<ttFont>
<head>
        <!-- Most of this table will be recalculated by the compiler -->
        <tableVersion value="1.0"/>
        <fontRevision value="1.002"/>
        <checkSumAdjustment value="0xa1f89a67"/>
        <magicNumber value="0x5f0f3cf5"/>
        <flags value="00000000 00000011"/>
        <unitsPerEm value="1000"/>
        <created value="Thu Jan 14 16:32:43 2016"/>
        <modified value="Thu Jan 14 21:32:43 2016"/>
        <xMin value="-1557"/>
        <yMin value="-375"/>
        <xMax value="703"/>
        <yMax value="1125"/>
        <macStyle value="00000000 00000010"/>
        <lowestRecPPEM value="3"/>
        <fontDirectionHint value="2"/>
        <indexToLocFormat value="0"/>
        <glyphDataFormat value="0"/>
    </head>
                    <CharString index="0">
                        rmoveto
14 -27 72 36 104 60 63 51 rlinecurve
-44 50 -54 -55 -90 -73 -65 -42 rlinecurve
return
                    </CharString>
                    <CharString index="1">
                        rmoveto
-167 -120 -208 -205 -153 69 -78 103 167 121 208 205 153 -70 78 -103 hvcurveto
-105 -591 rmoveto
-72 -48 60 122 176 90 179 125 72 48 -60 -121 -176 -89 -180 -126 hvcurveto
endchar
                    </CharString>
                    <CharString index="2">
                        rmoveto
-34 callgsubr
rlineto
-146 -29 64 -79 126 hhcurveto
115 79 73 140 27 hvcurveto
82 422 rlineto
-53 callsubr
-94 -35 58 116 23 hvcurveto
endchar
                    </CharString>
                    <CharString index="3">
                        rmoveto
43 -44 39 -43 36 vhcurveto
37 20 46 23 57 27 -16 28 rcurveline
-61 -29 -50 -25 -40 -22 rrcurveto
-32 28 -27 26 25 vvcurveto
34 42 29 126 -28 vhcurveto
16 48 rlineto
-152 25 -79 -54 -59 vvcurveto
return
                    </CharString>
                    <CharString index="4">
                        rmoveto
-74 -58 -45 -42 -54 hhcurveto
-51 -32 33 87 -35 hvcurveto
-47 -24 rlineto
-99 38 50 -46 65 hhcurveto
69 68 52 90 67 hvcurveto
return
                    </CharString>
                    <CharString index="5">
                        rmoveto
-41 -30 33 77 149 88 138 110 26 35 -6 -10 38 hvcurveto
-15 -74 -30 -153 -10 -53 rrcurveto
-54 -52 -72 -47 -47 hhcurveto
return
                    </CharString>
                    <CharString index="6">
                        -37 callgsubr
hintmask 10101100
-75 callgsubr
hintmask 10011100
-88 callsubr
hintmask 01011100
-39 callsubr
                    </CharString>
                    <CharString index="7">
                        11 43 rlineto
-116 hlineto
73 369 -50 -4 -12 -60 -129 -18 -6 -37 126 10 -51 -260 rlineto
-126 hlineto
-9 -43 rlineto
return
                    </CharString>
                    <CharString index="8">
                        -77 callgsubr
hintmask 10110110
-78 callgsubr
hintmask 01101110
-9 -61 rlineto
hintmask 10101110
5 callsubr
                    </CharString>
                    <CharString index="9">
                        rmoveto
13 42 rlineto
-55 hlineto
28 140 -48 -4 -26 -136 rlineto
-163 hlineto
53 76 39 70 41 124 -52 2 rcurveline
-38 -120 -37 -72 -54 -88 -4 -34 rcurveline
206 hlineto
return
                    </CharString>
                    <CharString index="10">
                        rmoveto
41 33 -133 151 rlineto
-2 hlineto
-200 -147 28 -33 162 118 rlineto
return
                    </CharString>
                    <CharString index="11">
                        -102 callsubr
hintmask 01011100
-74 callsubr
hintmask 10101100
-92 callgsubr
hintmask 01011100
-37 callsubr
                    </CharString>
                    <CharString index="12">
                        -98 callgsubr
endchar
                    </CharString>
                    <CharString index="13">
                        rmoveto
44 -41 41 -119 26 vhcurveto
192 132 5 43 83 callgsubr
hlineto
-8 -43 rlineto
200 hlineto
-194 -132 return
                    </CharString>
                    <CharString index="14">
                        rmoveto
hintmask 00111100
-62 callgsubr
hintmask 01011100
-87 callgsubr
hintmask 10011100
-18 callgsubr
hintmask 00111100
-87 callsubr
                    </CharString>
                    <CharString index="15">
                        -90 callsubr
-6 -46 rlineto
-18 callsubr
endchar
                    </CharString>
                    <CharString index="16">
                        rmoveto
-80 -57 -49 -61 -56 51 -43 73 79 58 49 62 56 -52 42 -72 hvcurveto
-5 -39 rmoveto
48 35 -29 -35 -37 -37 -30 -50 -48 -34 28 36 37 37 30 49 hvcurveto
return
                    </CharString>
                    <CharString index="17">
                        -94 callsubr
-73 callgsubr
return
                    </CharString>
                    <CharString index="18">
                        rmoveto
-53 45 -74 80 -45 59 -45 -48 rcurveline
53 -55 89 -70 58 -37 rrcurveto
return
                    </CharString>
                    <CharString index="19">
                        -81 callgsubr
60 62 42 81 70 hvcurveto
return
                    </CharString>
                    <CharString index="20">
                        -64 570 -85 callgsubr
                    </CharString>
                    <CharString index="21">
                        -140 -63 rmoveto
-51 -38 22 37 23 15 25 86 50 hvcurveto
41 -34 40 -32 -32 vvcurveto
-33 -38 -26 -55 vhcurveto
endchar
                    </CharString>
                    <CharString index="22">
                        245 176 93 156 115 vvcurveto
63 -33 36 -56 -135 -174 -267 -270 vhcurveto
-3 vlineto
-20 -14 -31 -21 -13 -8 18 -29 rcurveline
9 6 21 13 18 12 return
                    </CharString>
                    <CharString index="23">
                        rmoveto
55 34 -29 -42 -89 -120 -49 -183 -14 hvcurveto
111 17 79 112 118 hhcurveto
endchar
                    </CharString>
                    <CharString index="24">
                        rmoveto
81 350 -59 -3 -39 -176 rlineto
-161 -56 -90 58 166 vvcurveto
170 99 179 129 77 13 -61 -110 -3 vhcurveto
57 1 rlineto
152 7 -36 72 -106 hhcurveto
-162 -136 -199 -215 -189 113 -81 186 58 hvcurveto
-26 -118 rlineto
return
                    </CharString>
                    <CharString index="25">
                        -67 callgsubr
268 -441 -104 callsubr
return
                    </CharString>
                    <CharString index="26">
                        456 425 -97 callgsubr
return
                    </CharString>
                    <CharString index="27">
                        -32 callsubr
-26 callsubr
-55 callgsubr
                    </CharString>
                    <CharString index="28">
                        -152 -1 rmoveto
-3 callgsubr
-67 -1 -32 -131 rlineto
return
                    </CharString>
                    <CharString index="29">
                        rmoveto
-25 callgsubr
-165 139 -82 240 120 hvcurveto
-10 33 rlineto
-46 callsubr
endchar
                    </CharString>
                    <CharString index="30">
                        -8 callgsubr
-73 -32 -77 -19 -60 -5 rlinecurve
-67 callsubr
18 callgsubr
endchar
                    </CharString>
                    <CharString index="31">
                        rmoveto
59 52 72 75 42 53 -60 33 rcurveline
-33 -55 -58 -83 -48 -54 rrcurveto
234 -21 rmoveto
59 51 71 75 42 54 -62 30 rcurveline
-33 -57 -55 -78 -49 -54 rrcurveto
return
                    </CharString>
                    <CharString index="32">
                        -23 callsubr
hintmask 10110000
-89 callgsubr
                    </CharString>
                    <CharString index="33">
                        324 -12 rmoveto
-64 callsubr
return
                    </CharString>
                    <CharString index="34">
                        rmoveto
-6 33 rlineto
-146 -77 -49 30 107 vvcurveto
12 1 12 1 13 vhcurveto
hintmask 10111000
156 20 85 94 102 vvcurveto
57 -31 36 -54 -34 -32 -15 -26 -28 vhcurveto
hintmask 11011000
25 -34 -33 13 -37 hhcurveto
-126 -100 -187 -183 -86 28 -42 45 51 48 41 55 42 hvcurveto
18 -101 80 -37 155 104 rrcurveto
hintmask 10111000
-58 388 rmoveto
29 15 -20 -33 -74 -68 -77 -112 -17 hvcurveto
109 18 54 112 64 hhcurveto
-312 -396 rmoveto
-24 -13 28 56 hvcurveto
hintmask 11011000
144 64 167 86 22 29 -9 -24 30 vhcurveto
-49 -69 -31 -101 -1 -98 rrcurveto
hintmask 10111000
-51 -39 -41 -43 -33 hhcurveto
endchar
                    </CharString>
                    <CharString index="35">
                        -61 callgsubr
hintmask 11011000
-43 callsubr
100 callgsubr
-29 callgsubr
                    </CharString>
                    <CharString index="36">
                        -91 callsubr
hintmask 1001111110000000
18 -854 rmoveto
hintmask 0011111110000000
-62 callgsubr
hintmask 0101111110000000
-87 callgsubr
hintmask 1001111110000000
-18 callgsubr
hintmask 0011111110000000
-87 callsubr
                    </CharString>
                    <CharString index="37">
                        rmoveto
173 87 176 124 39 32 -17 -35 21 vhcurveto
-292 -390 rlineto
-7 26 -4 31 36 vvcurveto
123 -191 rmoveto
-41 -33 18 36 -21 hvcurveto
294 390 rlineto
7 -26 4 -31 -37 vvcurveto
-174 -87 -176 -123 vhcurveto
-11 -53 rmoveto
166 117 205 202 hvcurveto
hintmask 10011100
60 -10 49 -18 37 vhcurveto
67 87 rlineto
hintmask 01101100
-36 26 -56 -73 rlineto
35 -30 -42 18 -49 hhcurveto
-164 -119 -204 -203 -59 10 -49 17 -37 hvcurveto
-66 -88 rlineto
hintmask 10101100
37 -26 55 73 rlineto
-35 30 42 -18 49 hhcurveto
endchar
                    </CharString>
                    <CharString index="38">
                        -88 callgsubr
hintmask 01111110
-6 -59 rlineto
hintmask 10111110
28 callgsubr
                    </CharString>
                    <CharString index="39">
                        -4 callsubr
-88 -73 -133 -209 -158 hvcurveto
226 9 130 216 92 hhcurveto
return
                    </CharString>
                    <CharString index="40">
                        5 17 3 15 13 vvcurveto
23 -12 13 -19 -39 -43 -49 -35 -21 16 -13 26 -6 vhcurveto
-28 -68 -44 -64 -62 -75 26 -23 rcurveline
61 67 58 87 33 71 50 -1 65 12 64 20 return
                    </CharString>
                    <CharString index="41">
                        720 -107 callsubr
return
                    </CharString>
                    <CharString index="42">
                        -104 122 -42 -34 134 -150 rlineto
return
                    </CharString>
                    <CharString index="43">
                        -7 32 -7 callsubr
79 rlinecurve
69 351 rlineto
return
                    </CharString>
                    <CharString index="44">
                        6 36 6 48 4 23 -57 -4 rcurveline
-23 -144 -21 -108 -45 -231 rrcurveto
58 hlineto
18 93 35 172 12 65 rrcurveto
return
                    </CharString>
                    <CharString index="45">
                        rmoveto
69 120 83 123 97 115 9 40 rcurveline
-283 hlineto
-9 -43 rlineto
230 -3 hlineto
return
                    </CharString>
                    <CharString index="46">
                        109 -15 -52 59 -100 hhcurveto
-120 -88 -86 -92 hvcurveto
-145 262 -64 -111 vvcurveto
-68 -87 -54 -264 66 vhcurveto
return
                    </CharString>
                    <CharString index="47">
                        -104 callsubr
1 callgsubr
return
                    </CharString>
                    <CharString index="48">
                        -60 callsubr
hintmask 11111000
-43 callgsubr
hintmask 11011000
23 callgsubr
hintmask 11111000
-86 callsubr
                    </CharString>
                    <CharString index="49">
                        28 callsubr
292 46 237 53 hstemhm
457 61 hintmask 10111000
58 callgsubr
-54 -281 rlineto
-76 hlineto
-9 -46 rlineto
76 hlineto
hintmask 01111000
-57 -292 100 callgsubr
19 callgsubr
-208 -90 rmoveto
12 46 rlineto
-146 hlineto
46 234 31 callgsubr
17 callsubr
47 243 rlineto
endchar
                    </CharString>
                    <CharString index="50">
                        rmoveto
26 48 rlineto
-153 66 -67 43 49 vvcurveto
hintmask 11010000
69 119 37 72 vvcurveto
34 -24 31 -69 18 vhcurveto
hintmask 11101000
93 22 38 47 40 49 -69 61 47 vvcurveto
hintmask 11100000
53 82 44 203 41 vhcurveto
-11 53 rlineto
-246 -59 -83 -71 -70 -61 68 -55 -43 vvcurveto
hintmask 11101000
-34 -38 -34 -134 -9 vhcurveto
-8 -43 88 callgsubr
98 -10 43 -25 -36 -56 -122 -37 -87 vvcurveto
hintmask 11100000
-63 73 -51 181 -80 vhcurveto
endchar
                    </CharString>
                    <CharString index="51">
                        465 534 -94 callsubr
rlineto
return
                    </CharString>
                    <CharString index="52">
                        57 vstem
455 65 -103 callgsubr
return
                    </CharString>
                    <CharString index="53">
                        19 -21 23 -40 callsubr
return
                    </CharString>
                    <CharString index="54">
                        -61 hlineto
-82 -423 rlineto
-107 -21 -51 -49 -81 hhcurveto
return
                    </CharString>
                    <CharString index="55">
                        -102 callsubr
hintmask 01011110
-74 callsubr
hintmask 10101110
-92 callgsubr
hintmask 01011110
-37 callsubr
                    </CharString>
                    <CharString index="56">
                        rmoveto
246 59 83 71 70 62 -69 55 42 vvcurveto
hintmask 11011000
34 38 35 135 8 vhcurveto
8 43 rlineto
hintmask 10101000
-99 10 -42 25 36 56 121 38 86 vvcurveto
63 -72 51 -181 80 vhcurveto
-26 -47 rlineto
153 -67 66 -43 -49 -69 -118 -37 -72 vvcurveto
-33 24 -31 68 -19 vhcurveto
hintmask 11011000
-92 -21 -38 -48 -40 -49 69 -61 -47 vvcurveto
hintmask 10011000
-53 -82 -44 -203 -41 vhcurveto
endchar
                    </CharString>
                    <CharString index="57">
                        rmoveto
9 hlineto
-64 -328 rlineto
-117 hlineto
57 108 57 110 58 110 rrcurveto
-102 -568 rmoveto
229 hlineto
14 52 rlineto
-175 hlineto
46 239 rlineto
147 hlineto
8 46 rlineto
-146 hlineto
45 231 rlineto
173 hlineto
10 52 rlineto
-275 hlineto
-114 -207 -112 -209 -110 -204 rrcurveto
64 hlineto
34 64 33 64 34 65 rrcurveto
133 hlineto
endchar
                    </CharString>
                    <CharString index="58">
                        32 callgsubr
61 hlineto
110 570 rlineto
155 17 74 -40 -74 vvcurveto
-75 -65 -52 -151 -67 vhcurveto
-1 -2 rlineto
return
                    </CharString>
                    <CharString index="59">
                        rmoveto
-320 10 callsubr
321 hlineto
return
                    </CharString>
                    <CharString index="60">
                        15 53 -329 -2 395 383 10 50 rlineto
-380 hlineto
-14 -52 316 1 -395 -382 -9 -51 rlineto
endchar
                    </CharString>
                    <CharString index="61">
                        -204 -77 -106 43 137 vvcurveto
138 97 122 117 56 26 -26 -79 2 vhcurveto
return
                    </CharString>
                    <CharString index="62">
                        -37 callgsubr
hintmask 10101110
-75 callgsubr
hintmask 10011110
-88 callsubr
hintmask 01011110
-39 callsubr
                    </CharString>
                    <CharString index="63">
                        -48 -47 -45 -86 -50 hvcurveto
32 -19 rlineto
61 37 33 42 30 return
                    </CharString>
                    <CharString index="64">
                        -205 -52 4 -33 183 30 -80 -307 return
                    </CharString>
                    <CharString index="65">
                        131 -128.5 82 callsubr
return
                    </CharString>
                    <CharString index="66">
                        2 callgsubr
278 -426 -92 callsubr
                    </CharString>
                    <CharString index="67">
                        66 callsubr
200 47 319 55 return
                    </CharString>
                    <CharString index="68">
                        -24 -116 35 -44 143 74 callsubr
                    </CharString>
                    <CharString index="69">
                        12 53 rlineto
-317 hlineto
110 567 rlineto
-62 -36 callgsubr
return
                    </CharString>
                    <CharString index="70">
                        -14 -102 36 -43 139 74 callsubr
                    </CharString>
                    <CharString index="71">
                        694 -97 callsubr
return
                    </CharString>
                    <CharString index="72">
                        -10 56 -55 53 399 51 -20 20 return
                    </CharString>
                    <CharString index="73">
                        hintmask 11010000
455 51 -20 callgsubr
hintmask 10110000
32 141 -46 -3 88 callgsubr
-17 callsubr
return
                    </CharString>
                    <CharString index="74">
                        74 71 66 36 47 hhcurveto
37 18 -21 -40 hvcurveto
-85 -69 -170 -77 vvcurveto
return
                    </CharString>
                    <CharString index="75">
                        rmoveto
203 57 70 115 104 vvcurveto
94 -62 46 -77 -84 -66 -56 -83 return
                    </CharString>
                    <CharString index="76">
                        -144 -114 -139 -172 return
                    </CharString>
                    <CharString index="77">
                        67 10 -173 263 rlineto
130 60 73 65 92 vvcurveto
97 -95 68 -247 -31 vhcurveto
return
                    </CharString>
                    <CharString index="78">
                        -23 callgsubr
-39 -76 -74 vhcurveto
return
                    </CharString>
                    <CharString index="79">
                        18 callsubr
hintmask 01110000
32 callgsubr
hintmask 10110000
19 callgsubr
-61 -7 rmoveto
17 callsubr
102 523 31 callgsubr
endchar
                    </CharString>
                    <CharString index="80">
                        -108 352 -63 -2 128 -409 -41 -210 rlineto
endchar
                    </CharString>
                    <CharString index="81">
                        -105 128 -42 105 83 vhcurveto
-20 -64 -60 -69 -148 -37 rrcurveto
return
                    </CharString>
                    <CharString index="82">
                        466 548 -106 callgsubr
return
                    </CharString>
                    <CharString index="83">
                        707 -65 callgsubr
hintmask 11101000
-79 callsubr
return
                    </CharString>
                    <CharString index="84">
                        55 hlineto
60 167 48 152 45 165 rrcurveto
-63 hlineto
return
                    </CharString>
                    <CharString index="85">
                        -10 52 142 38 223 51 return
                    </CharString>
                    <CharString index="86">
                        hlineto
-10 -49 rlineto
return
                    </CharString>
                    <CharString index="87">
                        rmoveto
-269 -178 -109 -153 -167 vvcurveto
-123 62 -134 151 -160 vhcurveto
46 35 rlineto
-142 147 -60 122 114 vvcurveto
150 92 139 261 165 vhcurveto
endchar
                    </CharString>
                    <CharString index="88">
                        18 -156 119 -14 184 111 rrcurveto
return
                    </CharString>
                    <CharString index="89">
                        224 -21 68 69 61 vvcurveto
return
                    </CharString>
                    <CharString index="90">
                        -70 -138 rlineto
-66 hlineto
-12 -47 rlineto
93 hlineto
-62 -276 -36 -156 77 -78 251 125 rlinecurve
return
                    </CharString>
                    <CharString index="91">
                        -147 519 -72 -2 -119 -619 rlineto
57 hlineto
return
                    </CharString>
                    <CharString index="92">
                        -174 57 -54 54 141 55 407 -20 27 -20 return
                    </CharString>
                    <CharString index="93">
                        rmoveto
201 hlineto
10 53 rlineto
-463 hlineto
-10 -53 rlineto
201 hlineto
-111 -567 rlineto
62 hlineto
return
                    </CharString>
                    <CharString index="94">
                        0 8 -2 3 -4 -4 -2 -3 41 callsubr
0 -9 2 -3 4 4 2 3 41 callsubr
return
                    </CharString>
                    <CharString index="95">
                        291 416 rlineto
-67 hlineto
-241 -351 rlineto
return
                    </CharString>
                    <CharString index="96">
                        23 callsubr
-2 callsubr
return
                    </CharString>
                    <CharString index="97">
                        -98 -111 -83 -119 -68 -117 rrcurveto
return
                    </CharString>
                    <CharString index="98">
                        83.5 -42 callsubr
return
                    </CharString>
                    <CharString index="99">
                        -22 callsubr
4 callgsubr
return
                    </CharString>
                    <CharString index="100">
                        -102 -43 -7 21 16 return
                    </CharString>
                    <CharString index="101">
                        48 callsubr
77 callsubr
hintmask 10110000
return
                    </CharString>
                    <CharString index="102">
                        0 102 -81 -21 531 90 -1 67 callgsubr
return
                    </CharString>
                    <CharString index="103">
                        -33 104 callgsubr
31 20 -22 -41 return
                    </CharString>
                    <CharString index="104">
                        -73 -99 -66 -168 -105 vhcurveto
return
                    </CharString>
                    <CharString index="105">
                        hstem
66 62 335 63 vstem
return
                    </CharString>
                    <CharString index="106">
                        -4 callgsubr
92 41 return
                    </CharString>
                    <CharString index="107">
                        49 9 47 126 47 return
                    </CharString>
                    <CharString index="108">
                        0 52 380.5 51.5 return
                    </CharString>
                    <CharString index="109">
                        -157 -84 -85 4 -7 141 return
                    </CharString>
                    <CharString index="110">
                        -61 52 -22 113 69 vhcurveto
return
                    </CharString>
                    <CharString index="111">
                        rmoveto
-86 callgsubr
return
                    </CharString>
                    <CharString index="112">
                        229 -14 98 37 28 57 rrcurveto
endchar
                    </CharString>
                    <CharString index="113">
                        12 callgsubr
200 62 hintmask 10111000
return
                    </CharString>
                    <CharString index="114">
                        -10 53 -22 -21 440 55 -8 -20 return
                    </CharString>
                    <CharString index="115">
                        -210 43 188 -21 142 43 return
                    </CharString>
                    <CharString index="116">
                        90 callsubr
231 57 return
                    </CharString>
                    <CharString index="117">
                        hlineto
-10 -51 rlineto
return
                    </CharString>
                    <CharString index="118">
                        -173 55 -52 52 139 56 368 50 return
                    </CharString>
                    <CharString index="119">
                        -135 -698 rlineto
58 hlineto
61 315 rlineto
84 83 77 41 53 hhcurveto
32 20 -17 -29 -45 -50 -65 -174 -84 hvcurveto
return
                    </CharString>
                    <CharString index="120">
                        -35 callsubr
59 -3 callgsubr
39 90 callsubr
129 46 56 57 56 46 hintmask 0110111111000000
return
                    </CharString>
                    <CharString index="121">
                        -197 -36 rmoveto
218 219 16 63 -131 225 -50 -31 133 -221 -225 -217 rlineto
endchar
                    </CharString>
                    <CharString index="122">
                        rmoveto
-306 -21 callsubr
248 hlineto
-149 -772 rlineto
-248 -21 callsubr
305 hlineto
endchar
                    </CharString>
                    <CharString index="123">
                        28 callsubr
26 -21 569 52 hstemhm
return
                    </CharString>
                    <CharString index="124">
                        -187 -109 -159 -228 20 vhcurveto
return
                    </CharString>
                    <CharString index="125">
                        rmoveto
195 -127 79 -221 -37 vhcurveto
return
                    </CharString>
                    <CharString index="126">
                        45 156 -20 43 -20 152 43 hstemhm
return
                    </CharString>
                    <CharString index="127">
                        hstemhm
63 0 callsubr
return
                    </CharString>
                    <CharString index="128">
                        -11 51 406 50 return
                    </CharString>
                    <CharString index="129">
                        69 58 306 58 return
                    </CharString>
                    <CharString index="130">
                        -12 53 537 54 return
                    </CharString>
                    <CharString index="131">
                        161 -17 10 48 -161 17 33 164 -58 6 -32 -164 -160 17 -10 -49 161 -17 return
                    </CharString>
                    <CharString index="132">
                        -2 callgsubr
64 callgsubr
hintmask 10110000
return
                    </CharString>
                    <CharString index="133">
                        0 callgsubr
482 vstem
return
                    </CharString>
                    <CharString index="134">
                        16 callsubr
455 62 return
                    </CharString>
                    <CharString index="135">
                        16 57 callsubr
return
                    </CharString>
                    <CharString index="136">
                        rmoveto
39 callsubr
39 callgsubr
return
                    </CharString>
                    <CharString index="137">
                        80 callsubr
hstem
75 58 vstem
return
                    </CharString>
                    <CharString index="138">
                        -15 44 callsubr
return
                    </CharString>
                    <CharString index="139">
                        0 49 522 49 return
                    </CharString>
                    <CharString index="140">
                        rmoveto
216 222 14 63 -132 223 -51 -32 136 -218 -222 -221 rlineto
return
                    </CharString>
                    <CharString index="141">
                        36 callsubr
hstemhm
76 54 hintmask 01110000
return
                    </CharString>
                    <CharString index="142">
                        -13 55 537 54 hstem
70 61 323 58 vstem
return
                    </CharString>
                    <CharString index="143">
                        0 80 -59 -21 484 -20 return
                    </CharString>
                    <CharString index="144">
                        -6 -46 rlineto
return
                    </CharString>
                    <CharString index="145">
                        -38 callsubr
endchar
                    </CharString>
                    <CharString index="146">
                        0 9 7 6 9 9 7 -6 41 callsubr
return
                    </CharString>
                    <CharString index="147">
                        -9 callgsubr
hstem
return
                    </CharString>
                    <CharString index="148">
                        0 hflex1
return
                    </CharString>
                    <CharString index="149">
                        50 hhcurveto
43 35 -39 -81 -145 -87 -135 -113 hvcurveto
-151 -211 rmoveto
return
                    </CharString>
                    <CharString index="150">
                        51 callsubr
236 -20 hstemhm
56 59 235 56 return
                    </CharString>
                    <CharString index="151">
                        56 579 -20 return
                    </CharString>
                    <CharString index="152">
                        -13 53 -26 -21 587 53 -6 -20 hstemhm
67 62 333 62 hintmask 10101100
return
                    </CharString>
                    <CharString index="153">
                        -12 -97 39 -40 137 81 rrcurveto
endchar
                    </CharString>
                    <CharString index="154">
                        -58 75 -38 140 74 vhcurveto
return
                    </CharString>
                    <CharString index="155">
                        21 -21 620 67 callgsubr
return
                    </CharString>
                    <CharString index="156">
                        44 309 45 hstem
return
                    </CharString>
                    <CharString index="157">
                        -3 26 hhcurveto
168 121 164 180 108 -48 54 -63 return
                    </CharString>
                    <CharString index="158">
                        -10 56 -54 52 401 50 -8 -20 return
                    </CharString>
                    <CharString index="159">
                        hmoveto
21 101 rlineto
-84 hlineto
-22 -101 rlineto
return
                    </CharString>
                    <CharString index="160">
                        -7 52 397 49 -48 51 hstemhm
41 60 393 56 hintmask 11011000
return
                    </CharString>
                    <CharString index="161">
                        32 callgsubr
53 hlineto
113 575 rlineto
56 1 27 return
                    </CharString>
                    <CharString index="162">
                        rmoveto
-23 callsubr
return
                    </CharString>
                    <CharString index="163">
                        224 217 -39 38 -217 -219 -16 -63 rlineto
endchar
                    </CharString>
                    <CharString index="164">
                        -21 26 -21 return
                    </CharString>
                    <CharString index="165">
                        vstem
345 335 rmoveto
20 101 rlineto
-91 hlineto
-20 -101 rlineto
return
                    </CharString>
                    <CharString index="166">
                        30 hlineto
102 221 rlineto
3 hlineto
-54 -273 rlineto
43 hlineto
return
                    </CharString>
                    <CharString index="167">
                        64 callgsubr
hintmask 10111000
return
                    </CharString>
                    <CharString index="168">
                        -20 103.5 return
                    </CharString>
                    <CharString index="169">
                        50 221 49 vstem
return
                    </CharString>
                    <CharString index="170">
                        hlineto
-9 -48 rlineto
return
                    </CharString>
                    <CharString index="171">
                        48 195 46 return
                    </CharString>
                    <CharString index="172">
                        512 33 -22 callgsubr
return
                    </CharString>
                    <CharString index="173">
                        -21 23 -21 return
                    </CharString>
                    <CharString index="174">
                        63 326 rlineto
-60 hlineto
-98 -215 rlineto
-2 hlineto
return
                    </CharString>
                    <CharString index="175">
                        78 callsubr
73 callgsubr
return
                    </CharString>
                    <CharString index="176">
                        81 247 3 32 rlineto
-76 hlineto
-49 -279 rlineto
return
                    </CharString>
                    <CharString index="177">
                        rmoveto
-391 hlineto
-9 -50 rlineto
391 hlineto
endchar
                    </CharString>
                    <CharString index="178">
                        hintmask 010000000000000000000000000000000000000000000000
return
                    </CharString>
                    <CharString index="179">
                        rmoveto
21 callgsubr
return
                    </CharString>
                    <CharString index="180">
                        40 172 35 return
                    </CharString>
                    <CharString index="181">
                        82 rrcurveto
endchar
                    </CharString>
                    <CharString index="182">
                        28 callsubr
575 53 hstemhm
457 61 return
                    </CharString>
                    <CharString index="183">
                        -219 73 callsubr
256 41 100 43 return
                    </CharString>
                    <CharString index="184">
                        hstemhm
110 479 return
                    </CharString>
                    <CharString index="185">
                        -10 52 401 52 return
                    </CharString>
                    <CharString index="186">
                        -7 49 604 59 return
                    </CharString>
                    <CharString index="187">
                        0 76 544 -20 return
                    </CharString>
                    <CharString index="188">
                        45 196 48 vstem
return
                    </CharString>
                    <CharString index="189">
                        131 hstemhm
return
                    </CharString>
                    <CharString index="190">
                        rlineto
131 return
                    </CharString>
                    <CharString index="191">
                        rmoveto
-8 98 callgsubr
return
                    </CharString>
                    <CharString index="192">
                        234 40 rmoveto
-28 -38 6 12 -40 hvcurveto
return
                    </CharString>
                    <CharString index="193">
                        28 callsubr
25 -21 616 -20 hstemhm
return
                    </CharString>
                    <CharString index="194">
                        rmoveto
-392 10 callsubr
391 hlineto
return
                    </CharString>
                    <CharString index="195">
                        -20 23 -20 hstemhm
return
                    </CharString>
                    <CharString index="196">
                        -21 567 53 return
                    </CharString>
                    <CharString index="197">
                        hstemhm
56 60 return
                    </CharString>
                    <CharString index="198">
                        55 -17 57 -26 55 32 60 hintmask 10011000
return
                    </CharString>
                    <CharString index="199">
                        67 -76 102 158 120 199 return
                    </CharString>
                    <CharString index="200">
                        rmoveto
-110 -107 -72 -199 -2 vhcurveto
return
                    </CharString>
                    <CharString index="201">
                        119 18 66 85 86 rlinecurve
endchar
                    </CharString>
                    <CharString index="202">
                        hstemhm
176 return
                    </CharString>
                    <CharString index="203">
                        -60 -2 -63 -325 rlineto
41 hlineto
return
                    </CharString>
                    <CharString index="204">
                        -210 44 17 -21 313 45 return
                    </CharString>
                    <CharString index="205">
                        43 309 43 hstem
return
                    </CharString>
                    <CharString index="206">
                        80 5 123 rlinecurve
return
                    </CharString>
                    <CharString index="207">
                        -20 22 -20 hstemhm
return
                    </CharString>
                    <CharString index="208">
                        -118 -18 -66 return
                    </CharString>
                    <CharString index="209">
                        142 113 return
                    </CharString>
                    <CharString index="210">
                        18 34 vvcurveto
return
                    </CharString>
                    <CharString index="211">
                        -207 45 return
                    </CharString>
                    <CharString index="212" fingerprint="1df71722">
                        226 rmoveto
39 hlineto
25 116 56 211 30 122 rrcurveto
-78 hlineto
-21 -122 -29 -211 -22 -116 rrcurveto
return
                    </CharString>
                    <CharString index="213" fingerprint="502a035d">
                        106 callgsubr
278 -286 41 41 return
                    </CharString>
                    <CharString index="214" fingerprint="2f3e5c58">
                        rmoveto
90 hlineto
20 96 rlineto
-90 hlineto
endchar
                    </CharString>
                    <CharString index="215" fingerprint="e06728d3">
                        16 61 187 60 187 60 hstem
return
                    </CharString>
                    <CharString index="216" fingerprint="ef3b9a97">
                        rmoveto
13 60 rlineto
-1486 hlineto
-12 -60 rlineto
1437 return
                    </CharString>
                    <CharString index="217" fingerprint="9772cd75">
                        417 hintmask 11100000
return
                    </CharString>
                    <CharString index="218" fingerprint="e0be236e">
                        109 callgsubr
119 -120 rlineto
return
                    </CharString>
                    <CharString index="219" fingerprint="34bb5356">
                        hlineto
89 -90 -2 -8 -103 -73 rlineto
return
                    </CharString>
                    <CharString index="220" fingerprint="a374cd37">
                        hlineto
hintmask 11010000
return
                    </CharString>
                    <CharString index="221" fingerprint="b821e20e">
                        -179 -127 111 callgsubr
return
                    </CharString>
                    <CharString index="222" fingerprint="1c31358f">
                        27 -46 380 271 10 52 return
                    </CharString>
                    <CharString index="223" fingerprint="ebacf4f0">
                        -355 -252 27 -46 243 173 rlineto
return
                    </CharString>
                    <CharString index="224" fingerprint="9b1a6feb">
                        11 52 rlineto
return
                    </CharString>
                    <CharString index="225" fingerprint="5fadfa30">
                        hlineto
hintmask 10100000
-331 -235 119 callsubr
                    </CharString>
                    <CharString index="226" fingerprint="8182c88f">
                        111 callgsubr
endchar
                    </CharString>
                    <CharString index="227" fingerprint="e8cda87a">
                        417 vstem
444 316 rmoveto
return
                    </CharString>
                    <CharString index="228" fingerprint="8855f5cc">
                        -42 -26 26 46 81 73 92 90 89 hvcurveto
9 -76 28 -73 45 -71 rrcurveto
-76 -67 -63 -38 -47 hhcurveto
return
                    </CharString>
                    <CharString index="229" fingerprint="35be6a3e">
                        rmoveto
96 hlineto
22 101 rlineto
-97 hlineto
return
                    </CharString>
                    <CharString index="230" fingerprint="7140cd68">
                        rmoveto
124 callgsubr
return
                    </CharString>
                    <CharString index="231" fingerprint="a61c4392">
                        125 callsubr
-936 110 callgsubr
return
                    </CharString>
                    <CharString index="232" fingerprint="053ace07">
                        rmoveto
117 callsubr
return
                    </CharString>
                    <CharString index="233" fingerprint="3e00176a">
                        264 rmoveto
9 51 rlineto
-295 hlineto
-9 -51 rlineto
return
                    </CharString>
                    <CharString index="234" fingerprint="cc477545">
                        11 54 722 278 16 -43 -655 -258 -1 -8 rlineto
return
                    </CharString>
                    <CharString index="235" fingerprint="b7d29b5c">
                        hlineto
126 callgsubr
-187 127 callgsubr
188 hlineto
-38 -193 rlineto
54 hlineto
return
                    </CharString>
                    <CharString index="236" fingerprint="0e168d1d">
                        10 50 rlineto
return
                    </CharString>
                    <CharString index="237" fingerprint="b374d8cf">
                        -11 -59 rlineto
201 -24 103 -33 -78 vvcurveto
-61 -60 -60 -190 -98 vhcurveto
19 -33 rlineto
215 109 83 80 83 vvcurveto
95 -117 53 -243 26 vhcurveto
return
                    </CharString>
                    <CharString index="238" fingerprint="60a53e89">
                        rmoveto
89 hlineto
20 96 rlineto
-89 hlineto
return
                    </CharString>
                    <CharString index="239" fingerprint="57653682">
                        -47 23 -618 -876 53 -14 return
                    </CharString>
                <CharString name=".notdef">
                    -200 50 900 50 hstem
0.5 54 432 54 vstem
8 -200 rmoveto
540 hlineto
-15 1000 rlineto
-540 hlineto
77 -50 rmoveto
387 hlineto
-188 -390 rlineto
212 316 rmoveto
11 -752 -191 376 rlineto
-241 -376 rmoveto
-11 752 191 -376 rlineto
31 -60 rmoveto
200 -390 rlineto
-387 hlineto
endchar
                </CharString>
                <CharString name="A">
                    -5 callgsubr
463 hintmask 10011100
405 -2 -93 callsubr
                </CharString>
                <CharString name="AE">
                    70 callgsubr
611 vstem
348 568 -50 callsubr
                </CharString>
                <CharString name="AEacute">
                    70 callgsubr
630 vstem
363 -66 callsubr
-15 -152 -50 callsubr
                </CharString>
                <CharString name="Aacute">
                    -5 callgsubr
509 hintmask 00111100
258 722 -107 callsubr
hintmask 10011100
147 -724 -93 callsubr
                </CharString>
                <CharString name="Abreve">
                    -54 callsubr
80 49 hstemhm
2 574 hintmask 00111110
541 868 -103 callsubr
hintmask 10011110
-171 -847 -45 callgsubr
                </CharString>
                <CharString name="Acircumflex">
                    -5 callgsubr
541 hintmask 00111100
502 696 -97 callsubr
hintmask 10011100
7 -820 -93 callsubr
                </CharString>
                <CharString name="Adieresis">
                    -54 callsubr
82.5 -42 callsubr
2 536 hintmask 00111011
499 709 -65 callgsubr
hintmask 10011101
-79 callsubr
178 -707 rmoveto
hintmask 00111101
-62 callgsubr
hintmask 01011101
-87 callgsubr
hintmask 10011101
-18 callgsubr
hintmask 00111101
-87 callsubr
                </CharString>
                <CharString name="Agrave">
                    -5 callgsubr
472 hintmask 00111100
474 714 -89 callsubr
hintmask 10011100
-52 -690 -93 callsubr
                </CharString>
                <CharString name="Amacron">
                    -54 callsubr
126 51 hstemhm
2 547 hintmask 00111110
549 800 -48 callsubr
hintmask 10011110
-135 -751 -45 callgsubr
                </CharString>
                <CharString name="Aogonek">
                    104 callsubr
183 -40 callsubr
hstemhm
221 57 hintmask 10111100
436 60 callgsubr
-42 103 callsubr
37 53 45 134 48 vhcurveto
-40 callgsubr
rrcurveto
-87 hlineto
hintmask 11011100
-87 callgsubr
6 -64 6 -63 6 -62 rrcurveto
-129 -55 -54 -55 -47 vvcurveto
hintmask 10111100
47 callsubr
-95 734 -85 callgsubr
                </CharString>
                <CharString name="Aring">
                    14 callgsubr
392 891 -71 callsubr
                </CharString>
                <CharString name="Aringacute">
                    14 callgsubr
322 955 -6 callgsubr
-64 -71 callsubr
                </CharString>
                <CharString name="Atilde">
                    -54 callsubr
82 47 63 47 hstemhm
2 588 hintmask 00111111
458 752 -48 callgsubr
hintmask 10011111
-53 -754 rmoveto
hintmask 00111111
-62 callgsubr
hintmask 01011111
-87 callgsubr
hintmask 10011111
-18 callgsubr
hintmask 00111111
-87 callsubr
                </CharString>
                <CharString name="B">
                    -7 53 -25 -21 291 39 248 49 hstemhm
424 60 -28 58 hintmask 10111000
484 185 rmoveto
68 -58 52 -86 15 vhcurveto
hintmask 01110100
108 28 66 66 80 vvcurveto
92 -100 66 -237 -34 vhcurveto
-120 -618 100 callgsubr
314 -36 113 113 108 vvcurveto
hintmask 10110100
-28 295 rmoveto
-75 -81 -67 -193 -8 vhcurveto
47 244 rlineto
154 17 73 -44 -67 vvcurveto
hintmask 10111000
-32 -301 rmoveto
-81 -89 -68 -207 20 vhcurveto
46 241 rlineto
177 11 73 -50 -73 vvcurveto
endchar
                </CharString>
                <CharString name="C">
                    35 callsubr
378 633 -79 callgsubr
                </CharString>
                <CharString name="Cacute">
                    35 callsubr
262 733 -107 callsubr
116 -100 -79 callgsubr
                </CharString>
                <CharString name="Ccaron">
                    35 callsubr
368 704 -93 callgsubr
13 -71 -79 callgsubr
                </CharString>
                <CharString name="Ccedilla">
                    -157 -21 137 83 -55 55 -44 44 537 54 hstemhm
70 61 158 55 110 58 hintmask 10101111
344 -178 rmoveto
5 86 -21 54 -34 25 46 2 52 12 57 21 6 57 rcurveline
-72 callgsubr
20 callgsubr
hvcurveto
hintmask 10011111
-120 47 -77 85 -26 vhcurveto
-39 -17 -35 -45 -32 -75 34 -11 rcurveline
hintmask 11001111
-10 callgsubr
endchar
                </CharString>
                <CharString name="Cdotaccent">
                    -13 55 537 54 40 callsubr
70 61 323 58 vstem
396 718 -42 callgsubr
42 -84 -79 callgsubr
                </CharString>
                <CharString name="D">
                    75 callsubr
hintmask 10110000
518 382 -28 callsubr
                </CharString>
                <CharString name="Dcaron">
                    75 callsubr
hintmask 01110000
380 698 -93 callgsubr
hintmask 10110000
141 -316 -28 callsubr
                </CharString>
                <CharString name="Dcroat">
                    -58 callsubr
                </CharString>
                <CharString name="E">
                    26 callsubr
439 53 -101 callgsubr
                </CharString>
                <CharString name="Eacute">
                    26 callsubr
271 -66 callsubr
168 -667 -101 callgsubr
                </CharString>
                <CharString name="Ebreve">
                    -21 callgsubr
81 49 hstem
65 525 vstem
555 866 -103 callsubr
-151 -790 -101 callgsubr
                </CharString>
                <CharString name="Ecaron">
                    0 callgsubr
512 vstem
378 691 -93 callgsubr
64 -638 -101 callgsubr
                </CharString>
                <CharString name="Ecircumflex">
                    0 callgsubr
491 vstem
515 -36 callsubr
28 -763 -101 callgsubr
                </CharString>
                <CharString name="Edieresis">
                    -21 callgsubr
-9 callsubr
65 487 hintmask 11101100
513 707 -65 callgsubr
hintmask 11110100
-79 callsubr
198 -650 -101 callgsubr
                </CharString>
                <CharString name="Edotaccent">
                    -21 callgsubr
40 callsubr
65 482 vstem
406 705 -42 callgsubr
93 -651 -101 callgsubr
                </CharString>
                <CharString name="Egrave">
                    26 callsubr
487 -24 callgsubr
-31 -633 -101 callgsubr
                </CharString>
                <CharString name="Emacron">
                    -21 callgsubr
127 51 hstem
65 497 vstem
562 798 -48 callsubr
-114 -694 -101 callgsubr
                </CharString>
                <CharString name="Eogonek">
                    -208 45 163 53 238 47 229 53 hstem
181 56 vstem
396 -167 rmoveto
46 callgsubr
14 53 rlineto
-99 callgsubr
276 hlineto
-113 -50 -47 -51 -44 vvcurveto
49 callgsubr
endchar
                </CharString>
                <CharString name="Eth">
                    -58 callsubr
                </CharString>
                <CharString name="Euro">
                    -12 52 158 48 -44 46 108 44 182 51 hstemhm
106 57 324 57 hintmask 10111110
465 32 rmoveto
-7 39 -187 -66 -99 39 -9 158 rlinecurve
220 hlineto
11 46 rlineto
-231 hlineto
1 36 7 37 10 35 rrcurveto
234 hlineto
11 44 rlineto
-230 hlineto
101 40 73 81 87 hhcurveto
71 18 -49 -81 2 hvcurveto
57 7 rlineto
115 -3 -37 59 -96 hhcurveto
-116 -100 -99 -130 -51 hvcurveto
-73 hlineto
-10 -48 rlineto
66 hlineto
hintmask 11011110
-10 -35 -6 -37 -2 -38 rrcurveto
-68 hlineto
-10 -48 rlineto
77 hlineto
hintmask 10111110
9 -184 126 -84 225 102 rrcurveto
endchar
                </CharString>
                <CharString name="F">
                    21 -21 277 48 242 53 hstem
67 493 vstem
446 277 rmoveto
10 48 rlineto
-266 hlineto
47 242 rlineto
314 hlineto
9 53 rlineto
-373 -36 callgsubr
60 hlineto
54 277 rlineto
endchar
                </CharString>
                <CharString name="G">
                    103 callgsubr
54 72 callgsubr
398 -109 -83 callsubr
endchar
                </CharString>
                <CharString name="Gbreve">
                    103 callgsubr
54 81 49 72 callgsubr
537 879 -103 callsubr
-174 -965 -83 callsubr
endchar
                </CharString>
                <CharString name="Gcommaaccent">
                    -155 -21 165 52 538 54 hstemhm
69 61 29 73 213 57 hintmask 11110100
398 -109 -83 callsubr
hintmask 11111100
-230 -252 -94 callgsubr
                </CharString>
                <CharString name="Gdotaccent">
                    103 callgsubr
54 40 callsubr
69 61 315 57 vstem
389 718 -42 callgsubr
69 -826 -83 callsubr
endchar
                </CharString>
                <CharString name="H">
                    21 -21 290 49 281 -20 hstem
46 499 vstem
363 hmoveto
62 hlineto
41 callgsubr
-62 hlineto
-54 -281 rlineto
-255 hlineto
54 281 rlineto
-62 -36 callgsubr
62 hlineto
56 290 24 callgsubr
endchar
                </CharString>
                <CharString name="Hbar">
                    21 -21 279 48 122 45 -43 42 -42 169 hstemhm
46 549 hintmask 11010100
426 327 rmoveto
-255 hlineto
24 124 24 callgsubr
-87 -451 rmoveto
62 hlineto
hintmask 11100100
87 449 rlineto
74 hlineto
9 45 rlineto
-74 hlineto
hintmask 11001100
24 126 rlineto
-62 hlineto
hintmask 11010100
-25 -127 rlineto
-255 hlineto
hintmask 11001100
25 127 rlineto
-62 hlineto
hintmask 11100100
-24 -126 rlineto
-76 hlineto
-9 -45 rlineto
76 hlineto
-87 -449 rlineto
62 hlineto
54 279 24 callgsubr
endchar
                </CharString>
                <CharString name="I">
                    44 callgsubr
264 49 -95 callgsubr
                </CharString>
                <CharString name="Iacute">
                    44 callgsubr
249 -66 callsubr
15 -671 -95 callgsubr
                </CharString>
                <CharString name="Ibreve">
                    32 callsubr
81 49 hstem
42 525 vstem
532 866 -103 callsubr
-303 -794 -95 callgsubr
                </CharString>
                <CharString name="Icircumflex">
                    32 callsubr
hstem
42 491 vstem
492 -36 callsubr
-124 -767 -95 callgsubr
                </CharString>
                <CharString name="Idieresis">
                    32 callsubr
-9 callsubr
42 487 hintmask 11011000
490 -24 callsubr
46 -654 -95 callgsubr
                </CharString>
                <CharString name="Idotaccent">
                    32 callsubr
40 callsubr
42 483 vstem
384 705 -42 callgsubr
-60 -655 -95 callgsubr
                </CharString>
                <CharString name="Igrave">
                    44 callgsubr
464 -24 callgsubr
-183 -637 -95 callgsubr
                </CharString>
                <CharString name="Imacron">
                    32 callsubr
127 51 hstem
42 497 vstem
539 798 -48 callsubr
-266 -698 -95 callgsubr
                </CharString>
                <CharString name="Iogonek">
                    104 callsubr
162 49 522 49 hstem
89 57 vstem
304 -166 84 callsubr
38 33 43 82 47 vhcurveto
146 hlineto
12 49 rlineto
-155 hlineto
-90 callgsubr
154 hlineto
-75 -50 -32 -49 -45 vvcurveto
47 callsubr
endchar
                </CharString>
                <CharString name="J">
                    -12 57 526 49 hstem
47 436 vstem
47 -12 rmoveto
175 81 18 42 42 hvcurveto
27 27 14 35 31 165 66 345 rcurveline
-271 -21 callsubr
211 hlineto
-60 -304 -25 -133 -11 -35 -20 -20 rlinecurve
-31 -31 -62 -5 -147 2 rrcurveto
endchar
                </CharString>
                <CharString name="K">
                    86 callsubr
58 520 -14 callgsubr
endchar
                </CharString>
                <CharString name="Kcommaaccent">
                    86 callsubr
218 73 -14 callgsubr
-69 -884 -94 callgsubr
                </CharString>
                <CharString name="L">
                    63 callgsubr
hstem
67 389 -12 callgsubr
endchar
                </CharString>
                <CharString name="Lacute">
                    63 callgsubr
hstem
67 467 vstem
281 -66 callsubr
163 -720 38 callgsubr
                </CharString>
                <CharString name="Lcaron">
                    63 callgsubr
100 -20 hstem
481 73 vstem
481 696 -32 callgsubr
-110 -700 38 callgsubr
                </CharString>
                <CharString name="Lcommaaccent">
                    63 callgsubr
hstem
209 73 -12 callgsubr
95 -259 -94 callgsubr
                </CharString>
                <CharString name="Ldot">
                    0 53 216 96 255 -20 hstem
67 418 -12 callgsubr
396 269 rmoveto
22 96 rlineto
-79 hlineto
-23 -96 rlineto
endchar
                </CharString>
                <CharString name="Lslash">
                    63 callgsubr
hstem
54 414 vstem
456 hmoveto
12 53 rlineto
-317 hlineto
55 285 181 86 -3 43 -168 -79 45 232 rlineto
-62 hlineto
-51 -265 -94 -44 2 -44 82 39 -59 -306 rlineto
endchar
                </CharString>
                <CharString name="M">
                    21 -21 98 80 351 91 2 -20 hstemhm
38 523 hintmask 11011000
237 622 rmoveto
-79 -4 -120 -618 rlineto
56 hlineto
hintmask 11101000
101 529 rlineto
3 hlineto
31 -431 rlineto
48 hlineto
207 431 rlineto
3 hlineto
-106 -529 rlineto
60 hlineto
41 callgsubr
-82 hlineto
-209 -442 rlineto
-2 hlineto
endchar
                </CharString>
                <CharString name="N">
                    -5 callsubr
hstemhm
47 499 hintmask 01001100
362 hmoveto
-66 callgsubr
endchar
                </CharString>
                <CharString name="NUL">
                    -107 endchar
                </CharString>
                <CharString name="Nacute">
                    -5 callsubr
hstemhm
47 499 hintmask 01001100
261 721 -107 callsubr
101 -721 rmoveto
-66 callgsubr
endchar
                </CharString>
                <CharString name="Ncaron">
                    -5 callsubr
hstemhm
47 520 hintmask 01001100
368 692 -93 callgsubr
-3 -692 rmoveto
-66 callgsubr
endchar
                </CharString>
                <CharString name="Ncommaaccent">
                    -5 callsubr
hstemhm
189 73 hintmask 01001100
362 hmoveto
-66 callgsubr
-68 -790 -94 callgsubr
                </CharString>
                <CharString name="Ntilde">
                    -5 callsubr
103 47 63 47 hstemhm
47 546 hintmask 01001111
461 751 -48 callgsubr
-99 -751 rmoveto
64 hlineto
hintmask 10010111
-15 callgsubr
hintmask 01001111
-16 callsubr
hintmask 01100111
101 531 rlineto
5 hlineto
endchar
                </CharString>
                <CharString name="O">
                    -11 callsubr
353 632 -106 callsubr
                </CharString>
                <CharString name="OE">
                    0 52 239 46 231 52 hstem
60 60 vstem
120 207 rmoveto
100 44 257 191 4 vhcurveto
-100 -516 rlineto
-83 2 -52 37 116 vvcurveto
366 -155 rmoveto
-173 hlineto
46 239 90 callgsubr
hlineto
9 46 rlineto
-144 hlineto
45 231 rlineto
170 hlineto
10 52 rlineto
-199 hlineto
-272 -62 -283 -133 -161 86 -43 121 hvcurveto
204 hlineto
endchar
                </CharString>
                <CharString name="Oacute">
                    -11 callsubr
263 733 -107 callsubr
90 -101 -106 callsubr
                </CharString>
                <CharString name="Obreve">
                    23 callsubr
82 49 -2 callsubr
546 879 -103 callsubr
-228 -224 -106 callsubr
                </CharString>
                <CharString name="Ocircumflex">
                    -11 callsubr
506 707 -97 callsubr
-49 -197 -106 callsubr
                </CharString>
                <CharString name="Odieresis">
                    23 callsubr
84.5 -42 callsubr
66 62 335 63 hintmask 11011100
504 720 -65 callgsubr
hintmask 11101100
-79 callsubr
121 -84 -106 callsubr
                </CharString>
                <CharString name="Ograve">
                    -11 callsubr
478 725 -89 callsubr
-108 -67 -106 callsubr
                </CharString>
                <CharString name="Ohungarumlaut">
                    -11 callsubr
253 706 -76 callsubr
-81 -95 -106 callsubr
                </CharString>
                <CharString name="Omacron">
                    23 callsubr
128 51 -2 callsubr
553 811 -48 callsubr
-191 -128 -106 callsubr
                </CharString>
                <CharString name="Omega">
                    0 49 -23 -21 572 55 hstemhm
92 55 297 59 hintmask 10111000
183 5 rmoveto
-23 95 -13 85 91 vvcurveto
184 65 117 109 78 45 -54 -97 vhcurveto
hintmask 01111000
-102 -52 -141 -107 -178 vhcurveto
1 -5 100 callgsubr
173 hlineto
9 49 rlineto
-106 hlineto
96 151 45 134 105 vvcurveto
120 -63 73 -110 -151 -87 -135 -205 -77 14 -80 24 -86 vhcurveto
-115 hlineto
-9 -49 rlineto
175 hlineto
endchar
                </CharString>
                <CharString name="Oslash">
                    45 callsubr
129 231 -70 callsubr
                </CharString>
                <CharString name="Oslashacute">
                    45 callsubr
263 733 -107 callsubr
-134 -502 -70 callsubr
                </CharString>
                <CharString name="Otilde">
                    23 callsubr
84 47 63 47 -2 callsubr
462 763 -48 callgsubr
-109 -131 -106 callsubr
                </CharString>
                <CharString name="P">
                    21 -21 572 53 hstem
478 61 vstem
120 hmoveto
41 209 rlineto
239 20 139 92 139 vvcurveto
111 -103 80 -257 -33 vhcurveto
-120 -618 rlineto
419 451 93 callsubr
60 302 rlineto
172 18 74 -54 -82 vvcurveto
endchar
                </CharString>
                <CharString name="Q">
                    13 -21 589 52 hstem
79 60 329 62 vstem
419 -131 rmoveto
27 50 -219 97 rlineto
171 85 132 153 172 vvcurveto
122 -63 85 -121 -200 -135 -241 -292 104 vhcurveto
52 20 rlineto
270 -80 104 191 142 hhcurveto
87 48 -60 -101 -155 -130 -155 -180 -74 hvcurveto
-15 -44 rlineto
endchar
                </CharString>
                <CharString name="R">
                    27 callsubr
hintmask 10011000
420 -5 -63 callgsubr
                </CharString>
                <CharString name="R_p">
                    -155 -21 171 50 -24 -21 22 -21 25 -21 438 53 -10 -20 109 48 hstemhm
273 53 178 52 hintmask 1100001111000000
204 -5 rmoveto
hintmask 1000101111000000
55 10 -59 269 rlineto
85 85 41 65 82 vvcurveto
84 -54 47 -128 -18 vhcurveto
hintmask 1010001111000000
54 callsubr
-27 -55 94 callgsubr
hintmask 1100010111000000
238 -232 rmoveto
-9 -15 4 6 -16 hvcurveto
27 143 28 145 11 63 rrcurveto
24 24 20 13 17 hhcurveto
21 10 -26 -46 -133 -60 -193 -58 hvcurveto
-84 -216 rmoveto
hintmask 1001001111000000
9 49 12 60 12 63 rrcurveto
hintmask 1100010111000000
-4 13 13 -2 10 hhcurveto
105 80 211 178 80 -22 32 -33 -26 -29 -20 -31 -28 hvcurveto
hintmask 1100001111000000
6 41 -51 -3 -24 -142 -47 -244 -53 -273 rlinecurve
endchar
                </CharString>
                <CharString name="Racute">
                    27 callsubr
hintmask 00111000
247 726 -107 callsubr
hintmask 10011000
173 -731 -63 callgsubr
                </CharString>
                <CharString name="Rcaron">
                    27 callsubr
hintmask 00111000
353 697 -93 callgsubr
hintmask 10011000
70 -702 -63 callgsubr
                </CharString>
                <CharString name="Rcommaaccent">
                    16 callsubr
201 73 181 62 hintmask 10011100
420 -5 rmoveto
hintmask 00111100
-30 callsubr
hintmask 01011100
-49 callsubr
-84 -541 -94 callgsubr
                </CharString>
                <CharString name="S">
                    6 callsubr
506 463 -69 callgsubr
                </CharString>
                <CharString name="Sacute">
                    6 callsubr
257 731 -107 callsubr
249 -268 -69 callgsubr
                </CharString>
                <CharString name="Scaron">
                    6 callsubr
364 702 -93 callgsubr
145 -239 -69 callgsubr
                </CharString>
                <CharString name="Scedilla">
                    -43 90 -53 53 -52 52 532 52 hstemhm
131 62 69 55 76 62 hintmask 10011110
262 -181 rmoveto
55 1 rlineto
hintmask 01011110
6 98 -28 56 -43 20 rrcurveto
144 10 59 66 71 -38 callgsubr
56 10 rlineto
-61 callsubr
hintmask 10011110
-13 -61 rlineto
hintmask 00111110
54 -12 48 -7 42 -2 -39 -18 -34 -44 -31 -74 42 callgsubr
                </CharString>
                <CharString name="Scommaaccent">
                    12 callgsubr
-28 73 155 62 hintmask 10110100
506 463 rmoveto
-61 callsubr
hintmask 01110100
-13 -61 rlineto
hintmask 10110100
-39 callgsubr
hintmask 10101100
-332 -719 -94 callgsubr
                </CharString>
                <CharString name="T">
                    21 89 callsubr
hstem
107 473 vstem
369 567 -14 callsubr
endchar
                </CharString>
                <CharString name="Tcaron">
                    21 89 callsubr
hstem
107 473 vstem
359 691 -93 callgsubr
13 -124 -14 callsubr
endchar
                </CharString>
                <CharString name="Tcommaaccent">
                    21 89 callsubr
hstem
180 73 vstem
369 567 -14 callsubr
-126 -259 -94 callgsubr
                </CharString>
                <CharString name="Thorn">
                    0 163 305 51 -51 152 hstemhm
458 61 hintmask 10110000
120 hmoveto
20 105 rlineto
239 20 140 91 140 vvcurveto
hintmask 11010000
102 -86 75 -212 -14 vhcurveto
hintmask 10110000
20 101 74 callgsubr
79 callgsubr
399 347 93 callsubr
59 302 rlineto
172 18 75 -54 -82 vvcurveto
endchar
                </CharString>
                <CharString name="U">
                    8 callgsubr
145 215 -105 callsubr
                </CharString>
                <CharString name="Uacute">
                    8 callgsubr
259 -66 callsubr
-114 -505 -105 callsubr
                </CharString>
                <CharString name="Ubreve">
                    31 callsubr
101 49 hstem
76 63 vstem
543 866 -103 callsubr
-433 -628 -105 callsubr
                </CharString>
                <CharString name="Ucircumflex">
                    8 callgsubr
503 -36 callsubr
-254 -601 -105 callsubr
                </CharString>
                <CharString name="Udieresis">
                    -15 56 579 7 callgsubr
76 63 hintmask 11011000
501 -24 callsubr
-84 -488 -105 callsubr
                </CharString>
                <CharString name="Ugrave">
                    8 callgsubr
475 -24 callgsubr
-313 -471 -105 callsubr
                </CharString>
                <CharString name="Uhungarumlaut">
                    8 callgsubr
250 693 -76 callsubr
-286 -499 -105 callsubr
                </CharString>
                <CharString name="Umacron">
                    31 callsubr
147 51 hstem
76 63 vstem
550 798 -48 callsubr
-396 -532 -105 callsubr
                </CharString>
                <CharString name="Uogonek">
                    104 callsubr
147 44 callsubr
hstemhm
76 63 -26 56 hintmask 11101000
328 -166 rmoveto
-9 98 callgsubr
37 47 38 117 56 vhcurveto
67 32 46 64 19 99 82 422 rcurveline
-53 callsubr
hintmask 11110000
-94 -35 58 116 23 hvcurveto
-34 callgsubr
-28 -142 60 -79 120 -4 rlinecurve
hintmask 11101000
-85 -45 -37 -44 -40 vvcurveto
49 callgsubr
endchar
                </CharString>
                <CharString name="Uring">
                    31 callsubr
80 -3 callgsubr
39 hstem
76 63 117 46 169 46 vstem
393 889 -91 callsubr
-243 -635 -105 callsubr
                </CharString>
                <CharString name="V">
                    0 56 564 100 callsubr
116 59 hintmask 10110000
271 hmoveto
hintmask 11010000
110 207 106 207 98 206 rrcurveto
-62 hlineto
-89 -188 -95 -187 -98 -189 rrcurveto
-7 hlineto
hintmask 10110000
-22 189 -21 190 -16 187 -59 -4 rcurveline
17 -206 23 -205 27 -207 rrcurveto
endchar
                </CharString>
                <CharString name="W">
                    30 callsubr
332 hmoveto
-96 callgsubr
                </CharString>
                <CharString name="Wacute">
                    30 callsubr
262 -66 callsubr
70 -720 rmoveto
-96 callgsubr
                </CharString>
                <CharString name="Wcircumflex">
                    30 callsubr
506 -36 callsubr
-70 -816 rmoveto
-96 callgsubr
                </CharString>
                <CharString name="Wdieresis">
                    0 76 544 7 callgsubr
75 58 hintmask 11011000
503 -24 callsubr
101 -703 rmoveto
-96 callgsubr
                </CharString>
                <CharString name="Wgrave">
                    30 callsubr
478 -24 callgsubr
-129 -686 rmoveto
-96 callgsubr
                </CharString>
                <CharString name="X">
                    18 -21 24 -21 24 -21 617 88 callsubr
6 575 hintmask 10001100
398 -3 rmoveto
hintmask 00110100
62 6 -132 304 253 313 rlineto
-68 hlineto
-211 -268 rlineto
hintmask 01001100
-115 271 -61 -6 132 -303 -252 -314 rlineto
67 hlineto
211 269 rlineto
endchar
                </CharString>
                <CharString name="Y">
                    -6 callsubr
259 hmoveto
-59 callgsubr
                </CharString>
                <CharString name="Yacute">
                    -6 callsubr
254 721 -107 callsubr
5 -721 rmoveto
-59 callgsubr
                </CharString>
                <CharString name="Ycircumflex">
                    -6 callsubr
497 695 -97 callsubr
-134 -817 rmoveto
-59 callgsubr
                </CharString>
                <CharString name="Ydieresis">
                    21 -21 620 -20 21 7 callgsubr
110 479 hintmask 10101100
495 708 -65 callgsubr
hintmask 11010100
-79 callsubr
36 -704 rmoveto
39 204 -12 callsubr
hintmask 10110100
-27 callsubr
                </CharString>
                <CharString name="Ygrave">
                    -6 callsubr
469 713 -89 callsubr
-193 -687 rmoveto
-59 callgsubr
                </CharString>
                <CharString name="Z">
                    -1 callgsubr
hstem
27 523 vstem
434 hmoveto
-47 callgsubr
                </CharString>
                <CharString name="Zacute">
                    -1 callgsubr
hstem
27 523 vstem
254 -66 callsubr
180 -720 rmoveto
-47 callgsubr
                </CharString>
                <CharString name="Zcaron">
                    -1 callgsubr
hstem
27 533 vstem
361 691 -93 callgsubr
76 -691 rmoveto
-47 callgsubr
                </CharString>
                <CharString name="Zdotaccent">
                    -1 callgsubr
40 callsubr
27 523 vstem
389 705 -42 callgsubr
105 -704 rmoveto
-47 callgsubr
                </CharString>
                <CharString name="a">
                    -7 callgsubr
hintmask 10101100
187 46 -96 callsubr
                </CharString>
                <CharString name="aacute">
                    -7 callgsubr
hintmask 01101100
248 593 -107 callsubr
hintmask 10101100
-61 -547 -96 callsubr
                </CharString>
                <CharString name="abreve">
                    -35 callsubr
80 49 9 callsubr
hintmask 01101110
531 739 -103 callsubr
hintmask 10101110
-379 -670 -52 callsubr
                </CharString>
                <CharString name="acircumflex">
                    -7 callgsubr
hintmask 01101100
491 567 -97 callsubr
hintmask 10101100
-200 -643 -96 callsubr
                </CharString>
                <CharString name="acute">
                    704 -20 hstem
170 253 vstem
170 584 -107 callsubr
endchar
                </CharString>
                <CharString name="adieresis">
                    -35 callsubr
82.5 -42 callsubr
56 60 231 57 hintmask 01100111
489 580 -65 callgsubr
hintmask 10101011
-79 callsubr
-30 -530 -102 callsubr
hintmask 01010111
-74 callsubr
hintmask 10100111
-92 callgsubr
hintmask 01010111
-37 callsubr
                </CharString>
                <CharString name="ae">
                    53 callsubr
508 55 -73 callsubr
                </CharString>
                <CharString name="aeacute">
                    53 callsubr
256 586 -107 callsubr
252 -531 -73 callsubr
                </CharString>
                <CharString name="agrave">
                    -7 callgsubr
hintmask 01101100
463 585 -89 callsubr
hintmask 10101100
-259 -513 -96 callsubr
                </CharString>
                <CharString name="amacron">
                    -35 callsubr
126 51 9 callsubr
hintmask 01101110
538 671 -48 callsubr
hintmask 10101110
-342 -574 -52 callsubr
                </CharString>
                <CharString name="ampersand">
                    -10 55 -42 -21 658 -20 hstemhm
22 58 163 49 hintmask 01111000
474 -18 rmoveto
45 41 -51 48 -43 46 -34 48 rlinecurve
42 51 41 61 40 72 -52 19 rcurveline
-32 -63 -33 -54 -34 -45 -42 69 -24 70 -5 76 rrcurveto
57 60 35 65 50 vvcurveto
29 -17 15 -24 -44 -56 -103 -100 -3 vhcurveto
-124 -111 -94 -113 -108 vvcurveto
hintmask 10110000
-72 40 -43 70 63 78 45 84 79 vhcurveto
hintmask 01111000
34 -46 41 -46 47 -45 rrcurveto
hintmask 10111000
-326 63 rmoveto
-42 -26 26 46 81 73 92 90 89 hvcurveto
9 -76 28 -73 45 -71 rrcurveto
-76 -67 -63 -38 -47 hhcurveto
endchar
                </CharString>
                <CharString name="aogonek">
                    -206 45 151 56 -45 43 -22 -21 442 51 -20 20 90 callsubr
147 57 27 57 hintmask 1010101110000000
478 -166 rmoveto
-8 30 78 callgsubr
103 callsubr
46 54 49 137 66 vhcurveto
hintmask 1010011010000000
-64 callsubr
hintmask 1100101010000000
-92 callgsubr
hintmask 1001101010000000
-8 -56 10 -33 34 -7 rrcurveto
hintmask 1100101110000000
-87 -52 -36 -47 -45 vvcurveto
hintmask 1010101110000000
-58 75 -38 140 73 vhcurveto
hintmask 1100101010000000
-291 212 -102 callsubr
endchar
                </CharString>
                <CharString name="approxequal">
                    103 51 65 51 41 51 65 51 hstem
40 487 vstem
380 311 76 callgsubr
-39 -33 -48 -33 -52 -26 116 -79 hhcurveto
-53 87 callgsubr
35 49 32 54 27 -116 79 hhcurveto
-40 -208 76 callgsubr
-38 -34 -48 -33 -51 -27 116 -78 hhcurveto
-54 87 callgsubr
34 49 33 54 27 -116 79 hhcurveto
endchar
                </CharString>
                <CharString name="aring">
                    13 callsubr
382 762 -74 callgsubr
                </CharString>
                <CharString name="aringacute">
                    13 callsubr
312 830 -6 callgsubr
-68 -74 callgsubr
                </CharString>
                <CharString name="asciicircum">
                    491 -20 hstem
51 441 vstem
442 165 rmoveto
50 31 -171 295 -15 -2 -255 -293 38 -34 215 248 rlineto
endchar
                </CharString>
                <CharString name="asciitilde">
                    202 54 98 54 hstem
44 491 vstem
375 202 rmoveto
57 51 62 119 52 hvcurveto
-40 17 rlineto
-82 -35 -42 -62 -36 -57 -35 152 -85 hhcurveto
-57 -53 -64 -117 -51 hvcurveto
39 -17 rlineto
82 36 40 62 37 58 36 -152 85 hhcurveto
endchar
                </CharString>
                <CharString name="asterisk">
                    283 405 hstem
128 391 vstem
366 283 rmoveto
34 13 -37 153 156 23 rlineto
36 vlineto
-159 14 27 156 -37 10 -62 -147 -139 73 -21 -30 122 -104 -113 -110 23 -28 135 82 rlineto
endchar
                </CharString>
                <CharString name="asterisk.alt">
                    482 -20 hstem
105 414 vstem
346 552 rmoveto
50 124 -58 16 -21 -133 rlineto
-45 -10 rmoveto
-83 104 -43 -43 105 -84 rlineto
136 -38 rmoveto
132 20 -16 58 -125 -47 rlineto
-141 -37 rmoveto
-132 -20 16 -58 126 48 rlineto
107 -31 rmoveto
83 -104 41 43 -104 84 rlineto
-95 -27 rmoveto
-50 -123 59 -16 19 133 rlineto
endchar
                </CharString>
                <CharString name="at">
                    -155 49 165 52 319 47 156 48 hstemhm
56 53 123 54 132.5 49.5 27 54 hintmask 11111101
402 -140 rmoveto
7 50 rlineto
-222 -55 -78 86 181 vvcurveto
259 138 252 155 79 27 -55 -108 -17 vhcurveto
5 -20 -19 2 -16 hhcurveto
-122 -82 -150 -142 -86 31 -40 43 hvcurveto
hintmask 11111111
35 44 25 33 36 hvcurveto
-5 -52 52 -1 7 51 10 63 10 50 rlinecurve
43 208 rlineto
hintmask 11111101
159 33 -41 86 -115 hhcurveto
-201 -158 -279 -285 -207 98 -107 248 57 hvcurveto
-71 251 rmoveto
-25 -20 24 58 111 60 126 66 18 25 -5 -8 26 hvcurveto
-53 -259 rlineto
-26 -31 -40 -21 -26 hhcurveto
endchar
                </CharString>
                <CharString name="atilde">
                    -35 callsubr
82 47 0 -20 83 47 9 callsubr
hintmask 0110101110000000
447 623 72 callsubr
hintmask 0110011110000000
-44 callsubr
hhcurveto
hintmask 0110101110000000
-57 callgsubr
hintmask 1010101110000000
-260 -577 -102 callsubr
hintmask 0101101110000000
-74 callsubr
hintmask 1010101110000000
-92 callgsubr
hintmask 0101101110000000
-37 callsubr
                </CharString>
                <CharString name="b">
                    -10 51 400 55 207 -20 hstem
434 58 vstem
202 -10 rmoveto
170 120 164 179 109 -47 54 -63 -58 -74 -48 -58 -58 hvcurveto
61 313 -59 -5 -133 -685 rlineto
-14 49 52 -9 40 hhcurveto
32 51 rmoveto
-27 -38 6 11 -41 hvcurveto
54 277 rlineto
56 50 73 50 52 hhcurveto
41 36 -38 -82 -145 -88 -135 -112 hvcurveto
endchar
                </CharString>
                <CharString name="backslash">
                    -181 892 hstem
115 329 vstem
164 711 rmoveto
-49 -16 279 -876 50 15 rlineto
endchar
                </CharString>
                <CharString name="bar">
                    703 -20 hstem
163 227 vstem
334 701 rmoveto
-171 -881 rlineto
55 hlineto
172 883 rlineto
endchar
                </CharString>
                <CharString name="braceleft">
                    240 43 hstemhm
117 91 callgsubr
371 -205 -57 callsubr
                </CharString>
                <CharString name="braceleft.cap">
                    289 43 hstemhm
127 91 callgsubr
381 -156 -57 callsubr
                </CharString>
                <CharString name="braceright">
                    232 43 hstemhm
214 91 callsubr
9 -204 -51 callsubr
                </CharString>
                <CharString name="braceright.cap">
                    281 43 hstemhm
224 91 callsubr
19 -155 -51 callsubr
                </CharString>
                <CharString name="bracketleft">
                    -178 81 callgsubr
66 475 vstem
66 -178 16 callgsubr
                </CharString>
                <CharString name="bracketleft.cap">
                    -129 81 callgsubr
76 475 vstem
76 -129 16 callgsubr
                </CharString>
                <CharString name="bracketright">
                    -177 81 callgsubr
8 475 vstem
483 693 15 callsubr
                </CharString>
                <CharString name="bracketright.cap">
                    -128 81 callgsubr
18 475 vstem
493 742 15 callsubr
                </CharString>
                <CharString name="breve">
                    565 49 hstem
107 357 vstem
429 730 -103 callsubr
endchar
                </CharString>
                <CharString name="bullet">
                    181 234 hstem
173 220 vstem
393 310 rmoveto
61 -42 44 -59 -61 -58 -53 -76 -61 43 -44 56 62 59 53 76 vhcurveto
endchar
                </CharString>
                <CharString name="bullet.alt">
                    198 198 hstem
169 232 vstem
362 198 rmoveto
39 198 rlineto
-192 hlineto
-40 -198 rlineto
endchar
                </CharString>
                <CharString name="c">
                    68 callsubr
489 339 -78 callsubr
                </CharString>
                <CharString name="cacute">
                    68 callsubr
247 595 -107 callsubr
242 -256 -78 callsubr
                </CharString>
                <CharString name="caron">
                    617 -20 105 88 callsubr
128 336 hintmask 10110000
265 555 rmoveto
hintmask 11010000
-64 callgsubr
rlineto
hintmask 10110000
-65 callsubr
endchar
                </CharString>
                <CharString name="caron.alt">
                    551 251 hstem
282 73 vstem
282 798 -32 callgsubr
endchar
                </CharString>
                <CharString name="ccaron">
                    78 callsubr
133 -20 73 callgsubr
354 566 -93 callgsubr
138 -227 -78 callsubr
                </CharString>
                <CharString name="ccedilla">
                    -45 87 -51 51 -47 47 401 52 hstemhm
77 59 152 55 91 55 hintmask 01011110
343 -182 rmoveto
6 96 -27 56 -42 21 51 5 58 18 67 33 -10 33 rcurveline
-46 callsubr
55 1 rlineto
-25 callgsubr
hvcurveto
hintmask 00111110
-94 45 -67 83 -18 vhcurveto
-41 -15 -37 -45 -32 -78 42 callgsubr
                </CharString>
                <CharString name="cdotaccent">
                    78 callsubr
40 callsubr
77 59 298 55 vstem
382 580 -42 callgsubr
167 -240 -78 callsubr
                </CharString>
                <CharString name="cedilla">
                    -151 -21 137 46 hstem
296 55 vstem
137 -144 rmoveto
-10 callgsubr
55 1 rlineto
126 8 -49 57 -64 hhcurveto
-55 -47 -46 -98 -41 hvcurveto
endchar
                </CharString>
                <CharString name="cent">
                    34 54 333 58 141 -20 hstem
87 56 vstem
143 254 rmoveto
76 45 66 137 21 vhcurveto
-69 -300 rlineto
-84 30 -29 49 58 vvcurveto
278 -220 rmoveto
11 54 -52 2 -43 6 -36 8 rlinecurve
73 318 34 2 38 0 44 -3 rlinecurve
11 58 -41 3 -38 -1 -34 -2 rlinecurve
33 141 rlineto
-55 hlineto
-32 -147 rlineto
-180 -29 -67 -101 -100 vvcurveto
-78 45 -66 108 -36 vhcurveto
-35 -149 rlineto
55 hlineto
29 135 38 -8 44 -5 50 -2 rlinecurve
endchar
                </CharString>
                <CharString name="check.1">
                    -20.5 78.5 580 -20 hstem
86 489 vstem
575 638 rmoveto
-58 30 -120 -183 -106 -208 -85 -219 rlinecurve
-4 hlineto
-61 298 -55 -17 81 -359 53 -1 99 242 119 219 137 198 rlinecurve
endchar
                </CharString>
                <CharString name="check.2">
                    17 -21 25 -21 25 -21 495 -20 161 -20 hstemhm
37 519 hintmask 10011100
309 -4 rmoveto
hintmask 00111100
59 8 -87 266 275 370 -55 30 -239 -347 -55 176 -57 -16 70 -208 rlineto
hintmask 01011100
-183 -256 37 -19 164 223 rlineto
endchar
                </CharString>
                <CharString name="circumflex">
                    558 184 hstem
104 335 vstem
398 558 -97 callsubr
endchar
                </CharString>
                <CharString name="colon">
                    0 100 235 101 hstem
183 182 58 callsubr
20 -335 rmoveto
21 100 rlineto
-92 95 callgsubr
                </CharString>
                <CharString name="colon.alt">
                    92 101 235 100 hstem
202 182 vstem
364 428 rmoveto
20 100 rlineto
-91 hlineto
-20 -100 rlineto
20 -336 rmoveto
21 101 rlineto
-92 hlineto
-20 -101 rlineto
endchar
                </CharString>
                <CharString name="colonmonetary">
                    24 51 467 55 hstem
78 55 vstem
315 98 rmoveto
-29 7 -26 9 -22 11 107 387 rcurveline
27 8 30 6 34 5 rrcurveto
-303 -249 rmoveto
90 45 79 121 46 vhcurveto
-97 -351 rlineto
-48 33 -21 45 58 vvcurveto
132 -356 rmoveto
47 hlineto
29 109 27 -4 28 -4 30 -3 rlinecurve
21 51 -34 4 -31 4 -28 6 rlinecurve
124 447 27 3 30 2 31 1 rlinecurve
5 55 -26 -1 -25 -2 -24 -2 rlinecurve
28 101 rlineto
-47 hlineto
-28 -107 -32 -5 -29 -6 -27 -7 rlinecurve
34 125 rlineto
-47 hlineto
-38 -140 rlineto
-167 -58 -65 -106 -115 vvcurveto
-78 33 -62 71 -43 vhcurveto
-46 -165 rlineto
47 hlineto
40 144 22 -10 26 -8 28 -7 rlinecurve
endchar
                </CharString>
                <CharString name="comma">
                    -150 -21 hstem
211 85 vstem
119 -171 rmoveto
24 -15 105 87 43 79 5 123 rlinecurve
-91 -3 17 57 callgsubr
                </CharString>
                <CharString name="commaaccent">
                    -271 202 hstem
239 73 vstem
192 -259 -94 callgsubr
                </CharString>
                <CharString name="commaaccent.rot">
                    557 202 hstem
228 74 vstem
349 747 43 callgsubr
endchar
                </CharString>
                <CharString name="copyright">
                    7 37 93 43 265 41 90 37 hstem
45 39 79 44 139 40 92 40 vstem
314 613 rmoveto
-145 -124 -143 -214 -156 88 -93 117 147 121 144 214 155 -87 93 -117 hvcurveto
-7 -37 rmoveto
98 73 -81 -138 -180 -98 -133 -123 -98 -75 82 138 180 102 132 121 hvcurveto
10 -90 rmoveto
-86 -68 -109 -117 -107 67 -43 116 45 hvcurveto
6 41 rlineto
-94 -36 -51 22 87 vvcurveto
86 44 90 59 30 7 -30 -50 -1 vhcurveto
40 1 rlineto
77 4 -18 43 -55 hhcurveto
endchar
                </CharString>
                <CharString name="d">
                    43 callsubr
hintmask 10101110
191 46 -26 callgsubr
hintmask 01011110
30 callgsubr
hintmask 10101110
-17 callgsubr
hintmask 01011110
46 callsubr
                </CharString>
                <CharString name="dagger">
                    499 -20 hstem
126 388 vstem
262 122 rmoveto
81 355 24 callsubr
-72 -370 8 -7 rlineto
endchar
                </CharString>
                <CharString name="daggerdbl">
                    499 -20 hstem
85 429 vstem
253 71 rmoveto
46 207 165 -17 9 48 -163 17 33 151 24 callsubr
-30 -150 -162 17 -10 -49 163 -17 -43 -221 8 -7 rlineto
endchar
                </CharString>
                <CharString name="dcaron">
                    43 callsubr
222 73 hintmask 01101111
628 798 -32 callgsubr
hintmask 10101111
-510 -756 -26 callgsubr
hintmask 01011111
30 callgsubr
hintmask 10101111
-17 callgsubr
hintmask 01011111
46 callsubr
                </CharString>
                <CharString name="dcroat">
                    51 callsubr
117 41 -41 119 hstemhm
56 59 235 56 hintmask 10101011
191 46 -26 callgsubr
hintmask 01101011
27 callgsubr
90 458 rlineto
73 hlineto
8 41 rlineto
-72 hlineto
hintmask 01100111
15 78 -61 -5 rlineto
hintmask 01011011
-14 -73 rlineto
-140 hlineto
-8 -41 rlineto
140 hlineto
-19 -97 rlineto
hintmask 10101011
-17 callgsubr
hintmask 01101011
46 callsubr
                </CharString>
                <CharString name="degree">
                    322 47 255 46 hstem
156 49 237 50 vstem
341 670 rmoveto
-95 -90 -76 -115 -95 62 -62 87 96 91 76 115 96 -63 61 -88 hvcurveto
-28 -301 rmoveto
-67 -41 49 66 83 59 57 71 66 41 -49 -66 -84 -58 -56 -71 hvcurveto
endchar
                </CharString>
                <CharString name="dieresis">
                    567.5 17 callgsubr
132 311 hintmask 01100000
404 571 -65 callgsubr
hintmask 10100000
-79 callsubr
endchar
                </CharString>
                <CharString name="divide">
                    69 81 114 50 115 82 hstem
65 439 vstem
347 429 rmoveto
16 82 rlineto
-74 hlineto
-16 -82 rlineto
231 -115 rmoveto
-429 102 callgsubr
429 hlineto
-215 -195 rmoveto
16 81 rlineto
-73 hlineto
-17 -81 rlineto
endchar
                </CharString>
                <CharString name="dollar">
                    22 50 -48 51 470 159 0 -20 hstemhm
140 58 192 57 hintmask 10101100
198 480 rmoveto
37 40 34 104 -6 vhcurveto
-57 -189 rlineto
-47 44 -40 42 38 vvcurveto
192 -337 rmoveto
-38 -45 -35 -106 2 vhcurveto
60 197 rlineto
49 -46 42 -42 -38 vvcurveto
-190 -228 rmoveto
28 107 rlineto
157 -1 62 62 61 vvcurveto
61 -65 62 -64 58 vhcurveto
66 216 36 -5 41 -9 48 -14 rlinecurve
11 56 -43 11 -38 7 -35 4 rlinecurve
37 113 rlineto
-55 hlineto
-34 -109 rlineto
-152 5 -60 -61 -63 vvcurveto
-60 62 -60 63 -57 vhcurveto
hintmask 01011100
-68 -224 -40 4 -48 9 -56 15 rlinecurve
-13 -57 51 -11 46 -7 41 -4 rlinecurve
-32 -108 rlineto
endchar
                </CharString>
                <CharString name="dotaccent">
                    568.5 50 callgsubr
hstem
229 100 vstem
289 569 -42 callgsubr
endchar
                </CharString>
                <CharString name="dotlessi">
                    25 callsubr
467 41 -49 callgsubr
                </CharString>
                <CharString name="e">
                    -8 callsubr
463 54 -107 callgsubr
                </CharString>
                <CharString name="eacute">
                    -8 callsubr
242 596 -107 callsubr
221 -542 -107 callgsubr
                </CharString>
                <CharString name="ebreve">
                    -22 callsubr
81 49 4 callgsubr
525 742 -103 callsubr
-97 -665 -107 callgsubr
                </CharString>
                <CharString name="ecaron">
                    -22 callsubr
133 -20 4 callgsubr
349 567 -93 callgsubr
117 -513 -107 callgsubr
                </CharString>
                <CharString name="ecircumflex">
                    -8 callsubr
486 570 -97 callsubr
81 -638 -107 callgsubr
                </CharString>
                <CharString name="edieresis">
                    -22 callsubr
-9 callsubr
22 callsubr
hintmask 10101110
483 583 -65 callgsubr
hintmask 11110110
-79 callsubr
252 -525 -107 callgsubr
                </CharString>
                <CharString name="edotaccent">
                    -22 callsubr
40 callsubr
22 callsubr
vstem
377 581 -42 callgsubr
146 -526 -107 callgsubr
                </CharString>
                <CharString name="egrave">
                    -8 callsubr
458 588 -89 callsubr
22 -508 -107 callgsubr
                </CharString>
                <CharString name="eight">
                    -11 50 450 -20 107 52 -9 9 hstemhm
57 59 29 57 186 56 hintmask 11100110
444 144 rmoveto
67 -63 62 -62 60 vhcurveto
54 33 69 39 86 46 -21 38 rcurveline
-89 -49 -73 -41 -58 -36 rrcurveto
-46 46 -39 43 42 vvcurveto
58 64 51 182 -42 vhcurveto
hintmask 11010110
17 58 rlineto
hintmask 11100110
-208 37 -112 -81 -91 vvcurveto
-54 43 -50 50 -49 vhcurveto
hintmask 11101110
-149 -98 -32 -55 -58 vvcurveto
-78 72 -53 104 vhcurveto
hintmask 11100110
122 89 71 84 hvcurveto
-196 -105 rmoveto
hintmask 11101110
-75 -57 35 59 40 21 42 132 86 hvcurveto
60 -55 59 -53 -54 vvcurveto
hintmask 11100110
-55 -59 -45 -81 vhcurveto
endchar
                </CharString>
                <CharString name="eight.den">
                    -4 callgsubr
hstemhm
63 49 9 47 126 47 hintmask 10110110
341 -116 -60 callgsubr
                </CharString>
                <CharString name="eight.inf">
                    -160 41 328 43 hstemhm
75 0 callsubr
hintmask 11011000
353 -56 -59 callsubr
                </CharString>
                <CharString name="eight.num">
                    415 41 180 67 callgsubr
167 43 hstemhm
177 0 callsubr
hintmask 10110110
455 519 -60 callgsubr
                </CharString>
                <CharString name="eight.small">
                    -10 41 328 43 hstemhm
99 0 callsubr
hintmask 11011000
377 94 -59 callsubr
                </CharString>
                <CharString name="eight.sup">
                    323 41 279 -20 69 43 hstemhm
158 0 callsubr
hintmask 11101100
436 427 -60 callsubr
hintmask 11111100
-43 callgsubr
hintmask 11101100
23 callgsubr
hintmask 11111100
-86 callsubr
                </CharString>
                <CharString name="ellipsis">
                    0 101 hstem
33 106 77 106 77 106 cntrmask 01110000
484 52 callsubr
-98 52 callsubr
-98 52 callsubr
endchar
                </CharString>
                <CharString name="emacron">
                    -22 callsubr
127 51 4 callgsubr
533 674 -48 callsubr
-61 -569 -107 callgsubr
                </CharString>
                <CharString name="emdash">
                    266 48 hstem
71 450 vstem
521 314 rmoveto
-442 hlineto
-8 -48 rlineto
441 hlineto
endchar
                </CharString>
                <CharString name="endash">
                    266 48 hstem
79 408 vstem
487 314 rmoveto
-399 63 callsubr
400 hlineto
endchar
                </CharString>
                <CharString name="eogonek">
                    104 callsubr
152 52 -49 49 142 38 223 51 hstemhm
69 58 47 57 202 58 hintmask 11011111
389 -166 rmoveto
-8 29 78 callgsubr
103 callsubr
51 76 64 156 67 vhcurveto
-102 callgsubr
vhcurveto
hintmask 10111111
-120 74 -77 140 19 vhcurveto
-76 -48 -33 -45 -44 vvcurveto
hintmask 11011111
47 callsubr
-45 611 -84 callsubr
                </CharString>
                <CharString name="equal">
                    75 callgsubr
508 430 87 callsubr
-32 -172 87 callsubr
endchar
                </CharString>
                <CharString name="eth">
                    -11 50 369 49 186 -20 hstem
60 60 318 59 vstem
245 -11 rmoveto
147 105 122 198 95 -30 88 -64 83 hvcurveto
101 28 -10 40 -119 -33 -31 34 -36 33 -42 33 rlinecurve
-44 -36 36 -27 30 -27 26 -27 rlinecurve
-136 -38 12 -40 154 43 31 -37 22 -39 16 -39 rlinecurve
10 -35 -34 4 -29 hhcurveto
-149 -106 -127 -147 -115 72 -79 113 hvcurveto
13 50 rmoveto
-83 -55 64 94 111 75 100 103 33 50 -8 -23 50 hvcurveto
5 -25 2 -27 -27 vvcurveto
-150 -70 -109 -110 vhcurveto
endchar
                </CharString>
                <CharString name="exclam">
                    0 96 hstem
173 225 vstem
287 226 rmoveto
25 116 56 211 30 122 rrcurveto
-78 hlineto
-21 -122 -29 -211 -22 -116 rrcurveto
15 -226 rmoveto
20 96 rlineto
-90 hlineto
-20 -96 rlineto
endchar
                </CharString>
                <CharString name="exclamdown">
                    524 96 hstem
168 225 vstem
303 620 rmoveto
-20 -96 rlineto
90 hlineto
20 96 rlineto
-114 -226 rmoveto
-26 -116 -56 -211 -29 -122 rrcurveto
78 hlineto
22 122 27 211 24 116 rrcurveto
endchar
                </CharString>
                <CharString name="f">
                    -179 50 396 55 callgsubr
79 57 217 45 110 54 hintmask 11011110
398 -6 rmoveto
80 -60 97 -135 98 vhcurveto
279 -4 8 49 -305 1 rlineto
178 63 111 150 97 29 callgsubr
-142 -181 -208 -73 hvcurveto
-41 hlineto
-9 -34 34 -17 rlineto
-22 -73 -12 -75 -71 vvcurveto
-157 68 -67 80 vhcurveto
hintmask 11011110
88 83 70 103 hvcurveto
-150 -123 rmoveto
-59 -53 46 131 64 10 67 18 66 hvcurveto
134 -95 55 -90 -78 vvcurveto
-69 -49 -42 -56 vhcurveto
endchar
                </CharString>
                <CharString name="f.lig">
                    -151 50 368 55 callgsubr
80 58 216 44 110 54 hintmask 11011110
398 7 rmoveto
77 -60 91 -134 94 vhcurveto
278 -4 8 49 -306 1 rlineto
175 62 112 153 98 29 callgsubr
-144 -184 -205 -72 hvcurveto
-40 hlineto
-9 -34 rlineto
hintmask 11011110
32 -16 rlineto
-20 -69 -11 -69 -64 vvcurveto
-152 67 -62 80 88 83 64 94 vhcurveto
-150 -108 rmoveto
-59 -51 41 128 57 9 61 16 60 hvcurveto
135 -90 56 -86 -70 vvcurveto
-64 -50 -37 -56 vhcurveto
endchar
                </CharString>
                <CharString name="five">
                    -3 56 -32 89 callsubr
hstemhm
409 56 hintmask 10110000
465 192 rmoveto
74 -63 71 -202 41 vhcurveto
46 189 rlineto
265 hlineto
15 53 rlineto
-322 hlineto
-69 -282 rlineto
208 -35 66 -59 -64 vvcurveto
-72 -80 -77 -267 27 96 callgsubr
302 -26 108 114 104 vvcurveto
endchar
                </CharString>
                <CharString name="five.den">
                    8 callsubr
101 callgsubr
vstem
352 -87 -104 callgsubr
                </CharString>
                <CharString name="five.inf">
                    -150 98 callsubr
315 49 vstem
364 -27 -104 callgsubr
                </CharString>
                <CharString name="five.num">
                    425 43 167 -20 162 43 hstem
417 49 vstem
-25 callsubr
endchar
                </CharString>
                <CharString name="five.small">
                    0 98 callsubr
339 49 vstem
388 123 -104 callgsubr
                </CharString>
                <CharString name="five.sup">
                    333 98 callsubr
398 49 vstem
447 456 -104 callgsubr
                </CharString>
                <CharString name="fiveeighths">
                    -1 callsubr
100 43 167 -20 162 53 callgsubr
76 49 hintmask 1011111101110000
-25 callsubr
-402 -264 -82 callsubr
hintmask 1101111101110000
1 callgsubr
hintmask 1011111111110000
-43 callgsubr
hintmask 1011111101110000
23 callgsubr
hintmask 1011111111110000
-86 callsubr
                </CharString>
                <CharString name="fivesixths">
                    76 callsubr
167 -20 162 43 hstem
74 64 callsubr
54 49 vstem
-25 callsubr
-402 -264 -44 callgsubr
                </CharString>
                <CharString name="four">
                    0 191 -53 53 432 88 callsubr
57 441 hintmask 01011000
482 138 rmoveto
16 53 rlineto
-78 hlineto
44 227 -57 -5 -43 -222 rlineto
-246 hlineto
hintmask 01101000
80 123 59 110 64 199 rrcurveto
hintmask 01011000
-64 3 -58 -193 -56 -116 -84 -139 rlinecurve
-2 -40 rlineto
297 hlineto
hintmask 10011000
-27 -138 rlineto
56 hlineto
hintmask 01011000
27 138 rlineto
endchar
                </CharString>
                <CharString name="four.den">
                    -125 42 hstem
61 316 vstem
364 -125 -95 callsubr
                </CharString>
                <CharString name="four.inf">
                    -65 42 hstem
73 316 vstem
376 -65 -95 callsubr
                </CharString>
                <CharString name="four.num">
                    510 42 hstem
175 316 vstem
478 510 -95 callsubr
                </CharString>
                <CharString name="four.small">
                    0 127 -42 42 hstemhm
97 316 hintmask 01100000
400 85 -98 callsubr
hintmask 10100000
-16 -85 rlineto
46 hlineto
hintmask 01100000
17 85 rlineto
endchar
                </CharString>
                <CharString name="four.sup">
                    418 42 hstem
156 316 vstem
459 418 -95 callsubr
                </CharString>
                <CharString name="fourfifths">
                    11 callgsubr
185 42 101 callgsubr
vstem
478 510 -98 callgsubr
-364 -226 -83 callgsubr
                </CharString>
                <CharString name="fraction">
                    -160 912 hstem
-35 626 vstem
11 -160 rmoveto
580 885 -45 27 -581 -886 rlineto
endchar
                </CharString>
                <CharString name="fraction.afrc">
                    284 41 hstem
64 441 vstem
64 284 -67 callgsubr
endchar
                </CharString>
                <CharString name="g">
                    11 callsubr
hstemhm
62 58 255 43 hintmask 10111100
205 77 -88 callgsubr
hintmask 01111100
-6 -59 rlineto
hintmask 10111100
28 callgsubr
                </CharString>
                <CharString name="gbreve">
                    11 callsubr
81 49 hstemhm
62 58 255 43 hintmask 10111110
518 741 -103 callsubr
-348 -641 -69 callsubr
                </CharString>
                <CharString name="gcommaaccent">
                    11 callsubr
hstemhm
62 58 179 74 2 43 hintmask 10111100
420 758 43 callgsubr
-215 -681 -51 callgsubr
hintmask 10111010
-91 callgsubr
hintmask 01111010
-6 -59 rlineto
hintmask 10111010
28 callgsubr
                </CharString>
                <CharString name="gdotaccent">
                    11 callsubr
-9 callgsubr
hstemhm
62 58 255 43 hintmask 10111110
370 580 -42 callgsubr
-105 -502 -69 callsubr
                </CharString>
                <CharString name="germandbls">
                    -6 53 -47 47 601 51 hstemhm
429 59 -47 59 hintmask 10110000
200 -6 rmoveto
212 -15 76 72 81 vvcurveto
62 -55 69 -91 74 vhcurveto
hintmask 01101000
105 94 53 77 72 vvcurveto
67 -40 52 -85 -112 -87 -88 -147 -29 vhcurveto
-90 -464 rlineto
59 hlineto
90 468 rlineto
116 23 55 64 75 hhcurveto
54 28 -34 -46 -66 -49 -64 -123 -113 hvcurveto
hintmask 10110000
113 -89 47 -63 -51 vvcurveto
-54 -58 -35 -163 18 vhcurveto
endchar
                </CharString>
                <CharString name="grave">
                    550 210 hstem
154 217 vstem
371 576 -89 callsubr
endchar
                </CharString>
                <CharString name="greater">
                    4 -21 hstem
67 417 vstem
94 -17 rmoveto
380 271 10 52 -278 285 -41 -40 259 -262 -2 -8 -355 -252 rlineto
endchar
                </CharString>
                <CharString name="greaterequal">
                    20 50 hstem
37 449 vstem
421 350 rmoveto
-2 -8 -335 -166 15 -48 378 189 9 48 -293 218 -31 -43 rlineto
275 -470 70 callsubr
                </CharString>
                <CharString name="guillemotleft">
                    10 -21 507 100 callsubr
53 505 hintmask 10110000
186 -11 5 callgsubr
88 callgsubr
56 callsubr
                </CharString>
                <CharString name="guillemotleft.cap">
                    57 509 hstem
67 505 vstem
200 57 5 callgsubr
56 callsubr
                </CharString>
                <CharString name="guillemotright">
                    10 -21 22 -21 507 -20 hstemhm
11 505 hintmask 10110000
286 -11 33 callsubr
hintmask 01110000
14 callsubr
                </CharString>
                <CharString name="guillemotright.cap">
                    57 508 hstem
25 505 vstem
300 57 33 callsubr
14 callsubr
                </CharString>
                <CharString name="guilsinglleft">
                    5 -21 516 -20 hstem
125 334 vstem
319 -16 34 callgsubr
                </CharString>
                <CharString name="guilsinglleft.cap">
                    52 516 hstem
139 334 vstem
333 52 34 callgsubr
                </CharString>
                <CharString name="guilsinglright">
                    7 -21 516 -20 hstem
84 335 vstem
119 -14 25 callgsubr
                </CharString>
                <CharString name="guilsinglright.cap">
                    54 516 hstem
98 335 vstem
133 54 25 callgsubr
                </CharString>
                <CharString name="h">
                    -10 53 -22 -21 440 55 208 -20 61 callgsubr
hintmask 10111000
65 callsubr
hintmask 01110100
-23 callgsubr
-40 -80 -73 vhcurveto
63 328 -59 -5 -135 -698 rlineto
58 hlineto
62 320 rlineto
80 72 67 40 48 hhcurveto
37 18 -21 -40 hvcurveto
hintmask 10110100
-83 -69 -172 -77 vvcurveto
hintmask 10111000
15 callgsubr
                </CharString>
                <CharString name="hbar">
                    -10 53 -22 -21 439 55 90 41 -41 119 61 callgsubr
hintmask 10110100
65 callsubr
hintmask 10110010
60 69 176 98 vvcurveto
51 -23 39 -60 -62 -75 -40 -80 -74 vhcurveto
41 210 rlineto
140 hlineto
8 41 rlineto
-140 hlineto
hintmask 10101010
15 78 -59 -5 rlineto
hintmask 01110010
-14 -73 rlineto
-75 hlineto
-8 -41 rlineto
75 hlineto
-113 -584 rlineto
58 hlineto
62 319 rlineto
81 72 67 39 48 hhcurveto
37 18 -21 -39 hvcurveto
hintmask 10110010
-84 -69 -171 -77 vvcurveto
hintmask 10110100
15 callgsubr
                </CharString>
                <CharString name="hcoslug">
                    -100 75 5 10 -6 10 -4 11 -10 10 -9 7 0 12 -11 11 -7 15 -15 26 -25 26 -15 8 -8 15 -12 12 0 14 -9 10 -10 19 -9 11 2 8 -7 32 71.5 22.5 514 -20 hstemhm
50 64 10 16 -3 8 5 40 -35 12 -1 12 14 10 -2 10 -10 42 -31 9 -1 7 3 12 -6 11 9 40 -29 13 -9 10 0 12 -4 11 -2 12 -5 16 18 11 10 8 hintmask 000000100000000000010110000010000010000010010000
500 700 rmoveto
-450 hlineto
hintmask 100000000000000000011010000000100000001000000000
-800 450 vlineto
-300 396 rmoveto
-17 11 -11 17 -16 vhcurveto
9 13 5 12 12 vvcurveto
18 -9 11 -13 -12 -8 -9 -13 vhcurveto
49 -64 rmoveto
12 -12 9 -12 9 -11 15 25 3 18 -17 17 -7 -7 -10 -9 -14 -9 rrcurveto
-39 -93 rmoveto
12 9 3 6 8 hvcurveto
-21 27 -21 22 -14 13 rrcurveto
-8 -8 -4 -11 -11 vvcurveto
-23 17 -18 22 vhcurveto
91 34 rmoveto
-22 19 13 -9 15 hhcurveto
15 9 9 13 8 hvcurveto
5 -1 rlineto
-44 -1 -27 -27 -32 hhcurveto
-22 -17 8 26 -25 hvcurveto
-23 -21 -25 -11 -32 hhcurveto
-45 -36 30 40 31 21 24 40 13 hvcurveto
-16 17 -7 13 22 vvcurveto
32 31 32 51 46 25 -30 -26 -10 -2 -8 -5 -7 vhcurveto
20 15 -8 -20 2 hvcurveto
18 12 14 10 19 hhcurveto
21 16 -15 -24 -23 -16 -17 -21 -14 -12 7 12 -6 hvcurveto
-12 -7 -12 -10 -11 -15 rrcurveto
hintmask 000000000000000000010000000000000100000000000000
-72 -105 rmoveto
-8 10 -5 -10 vlineto
hintmask 000000000000000010000000000000000100000000000000
-15 vlineto
-3 1 -1 2 2 1 1 4 1 vhcurveto
4 -1 rlineto
-2 -7 -3 -3 -6 -6 -3 4 41 callsubr
hintmask 000000000000000001000000000000010000000000000000
15 -5 5 5 7 vlineto
hintmask 000000000000000100000000100000000000000000000000
-75 -21 29 callsubr
47 callgsubr
22 hmoveto
-13 callsubr
hintmask 000000000000001000000000000000000000000100000000
132 -1 rmoveto
0 6 -2 4 -3 -5 -1 -5 41 callsubr
0 -6 1 -4 5 3 2 4 41 callsubr
47 callgsubr
-120 -9 rmoveto
4 hlineto
hintmask 000000000000000001000010000000000000000000000000
19 -4 5 vlineto
hintmask 000000000000000000010000000010000000000000000000
13 -6 hlineto
4 2 3 3 5 hhcurveto
7 2 -5 -6 hvcurveto
hintmask 000000000000000100000000000000010000000000000000
-14 5 -5 vlineto
hintmask 000000000010000000000000000010000000000000000000
-17 5 3 hlineto
hintmask 000000000000000001000000000010000000000000000000
13 vlineto
3 -1 3 -3 -3 -3 -3 -5 vhcurveto
-11 3 -5 vlineto
47 callgsubr
-16 hlineto
-71 5 rmoveto
6 hlineto
hintmask 000000000000000000100010000000000000000000000000
31 -6 5 vlineto
hintmask 000000000000000000010000001000000000000000000000
38 hlineto
hintmask 000000000000000001000000001000000000000000000000
-15 -5 vlineto
8 -2 -1 2 -6 hhcurveto
-8 hlineto
hintmask 000000000000000000100001000000000000000000000000
-14 3 vlineto
4 0 1 5 1 hvcurveto
5 hlineto
hintmask 000000000000000100000000100000000000000000000000
-17 -5 vlineto
5 -1 0 1 -4 hhcurveto
-3 hlineto
hintmask 000000000000000100000001000000000000000000000000
-12 7 -5 vlineto
47 callgsubr
-23 hlineto
hintmask 000000000000000010000000000000000100000000000000
133 10 rmoveto
5 hlineto
-4 3 3 -3 3 hhcurveto
3 1 2 1 hvcurveto
hintmask 000000000000000000100000000000000100000000000000
7 -18 -4 12 vvcurveto
4 4 5 7 3 3 -1 -3 2 vhcurveto
1 4 rlineto
5 -10 -5 hlineto
4 -3 -2 1 -3 hhcurveto
-2 -2 -1 -2 hvcurveto
hintmask 000000000010000000000000000000000000100000000000
-5 18 2 -11 vvcurveto
-5 -3 -4 -7 -5 -3 2 2 -2 vhcurveto
-1 -3 rlineto
-5 hlineto
hintmask 000000000000000000100000000000000000100000000000
38 38 rmoveto
-5 5 hlineto
hintmask 000000000000000000010000000000000000000100000000
14 hlineto
hintmask 000000000000000000100000000000000000000100000000
-20 vlineto
4 1 4 3 4 hhcurveto
hintmask 000000000100000000000000000000000000000010000000
7 0 5 -6 0 -9 0 -7 -3 -9 0 flex1
-6 -3 2 4 -2 hvcurveto
-3 -6 rlineto
-4 hlineto
hintmask 100000000000000000010000000000000000000010000000
39 -6 rmoveto
3 3 2 4 hvcurveto
-3 7 -9 18 0 vvcurveto
-3 5 18 -5 -4 hlineto
7 -15 6 15 rlineto
-4 5 13 -5 -4 hlineto
hintmask 000000001000000000000000000000000000000010000000
-10 -24 rlineto
-7 -3 -4 -5 -6 hhcurveto
-6 -3 3 4 3 2 2 3 hvcurveto
hintmask 100000000000000000010000000000000000000010000000
5 1 -5 -2 -2 hvcurveto
hintmask 000000010000000000000000000000000000000000000000
45 -24 rmoveto
-6 -4 vlineto
-2 -4 -2 -3 -3 -3 rrcurveto
2 -2 2 -2 1 1 1 1 1 hflex1
3 -1 rlineto
-5 -1 -2 -4 -6 hhcurveto
hintmask 100000000000000000000000000000000000000001000000
-4 0 -2 2 -3 3 -3 -3 -4 -2 -6 flex1
-7 -5 4 6 6 4 3 6 2 hvcurveto
-3 3 -2 3 4 vvcurveto
hintmask 000000000001000000000000000000000000000000100000
5 4 6 9 6 4 -4 -5 -5 -3 -2 -5 -3 vhcurveto
2 -2 4 -5 3 -3 2 2 2 3 1 2 rrcurveto
-5 6 hlineto
hintmask 000000000100000000000000000000000010000000000000
-114 4 rmoveto
11 4 hlineto
-3 -2 2 2 2 1 1 0 hvcurveto
0 -1 1 -2 -2 -2 -2 -6 vhcurveto
hintmask 100000000000000000000000000000000000000000010000
132 -13 rmoveto
hintmask 000100000000000000000000000000000000000000010000
15 9 8 11 vhcurveto
hintmask 000100000000000000000000000000000000000000000000
5 4 -2 -3 3 hvcurveto
4 6 vlineto
-16 -6 vlineto
hintmask 000000100000000000000000000000000000000000000000
9 -3 -2 3 -6 hhcurveto
-6 -4 -5 -12 hvcurveto
71 callsubr
-11 4 -6 8 vhcurveto
hintmask 000010000000000000000000000000000000000000000000
6 3 6 6 1 hvcurveto
6 hlineto
hintmask 100000000000000000000000000000000000000000000000
-10 -1 -6 -7 -11 hhcurveto
hintmask 100000000000000000000000000000000000000000010000
-13 -8 7 14 hvcurveto
hintmask 000000100000000000000000000000000000000000100000
-29 4 rmoveto
2 1 2 3 3 vvcurveto
3 -2 2 -3 -2 -2 -1 -3 -2 2 -3 3 -3 vhcurveto
hintmask 010000000000000000000000000000000000010000000000
-68 -11 rmoveto
69 callgsubr
hintmask 100000000000000000000000000000000000010000000000
-6 -1 -4 -5 -8 hhcurveto
-10 -6 6 9 hvcurveto
hintmask 000000000010000000000000000000000000010000000000
10 7 6 8 11 4 -7 -10 -1 vhcurveto
hintmask 010000000000000000000000000001000000000000000000
-89 hmoveto
69 callgsubr
71 callgsubr
-6 -1 -4 -5 -8 hhcurveto
hintmask 100000000000000000000000010000000000000000000000
-10 -6 6 9 hvcurveto
hintmask 000000000010000000000000010000000000000000000000
10 7 6 8 vhcurveto
hintmask 000000000010000000000000000000001000000000000000
11 4 -7 -10 -1 hvcurveto
hintmask 010000000000000000000010000001000000000000000000
-63 2 29 callsubr
252 hmoveto
71 callsubr
39 callsubr
hintmask 010000000000000000000010000001000000000000000000
39 callgsubr
hintmask 000001000000000000000000000001000000010000000000
-138 2 rmoveto
66 callgsubr
-70 hmoveto
66 callgsubr
hintmask 010000000000000000000000000100000000000000000000
-22 -2 rmoveto
-13 callsubr
71 callsubr
252 hmoveto
-13 callsubr
71 callgsubr
-208 -10 rmoveto
4 hlineto
hintmask 000001000000000000000000000000001000000000000000
19 -5 5 5 1 vlineto
hintmask 000000000000010000000000000000001000000000000000
10 7 4 6 4 2 -1 -1 2 vhcurveto
8 2 rlineto
hintmask 010000000000000000000000000000000000100000000000
-39 4 -5 vlineto
hintmask 100000000000000000000000000000000010000000000000
-17 5 4 hlineto
hintmask 000001000000000000000000000000000010000000000000
19 -11 vlineto
hintmask 010000000000000000000000000000000010000000000000
-19 4 -5 vlineto
71 callgsubr
-17 hlineto
hintmask 100000000000000000000000000000000001000000000000
69 5 rmoveto
4 hlineto
hintmask 000001000000000000000000000000000001000000000000
19 -4 5 vlineto
hintmask 000000000010000000000000000000000000000001000000
13 -6 hlineto
5 2 3 2 4 hhcurveto
4 2 -2 -4 -3 -2 -2 -3 -2 -3 1 3 hvcurveto
1 vlineto
-1 -3 -3 -4 -1 hvcurveto
hintmask 010000000000000000000000000000000000000001000000
-12 6 -5 vlineto
hintmask 100000000000000000000000000000000001000000000000
-19 hlineto
hintmask 100000000000000000000010000000000000000000000000
-183 5 rmoveto
6 hlineto
hintmask 000000100000000000000010000000000000000000000000
31 -6 5 vlineto
hintmask 000000000000100000000001000000000000000000000000
21 -5 -5 hlineto
hintmask 000000100000000000000001000000000000000000000000
-12 16 12 -5 5 vlineto
hintmask 000000000000100000000000000100000000000000000000
21 -5 -6 hlineto
hintmask 010000000000000000000000000100000000000000000000
-31 6 -5 vlineto
hintmask 100000000000000000000001000000000000000000000000
-21 5 5 hlineto
hintmask 001000000000000000000001000000000000000000000000
14 -16 vlineto
hintmask 010000000000000000000001000000000000000000000000
-14 5 -5 vlineto
hintmask 100000000000000000000010000000000000000000000000
-21 hlineto
hintmask 001000000000000000000000000000000000000000100000
234 7 rmoveto
-2 2 -4 5 -4 4 rrcurveto
-2 -2 -1 -2 -3 vvcurveto
-4 3 -3 4 2 2 1 2 2 vhcurveto
hintmask 100000000000000000000000000000000000000000000000
111 -2 rmoveto
0 -3 -2 -3 -4 -4 -2 3 41 callsubr
0 3 2 3 4 4 2 -3 41 callsubr
endchar
                </CharString>
                <CharString name="hungarumlaut">
                    557 213 hstem
131 406 vstem
157 557 -76 callsubr
endchar
                </CharString>
                <CharString name="hyphen">
                    264 51 hstem
124 304 vstem
428 315 rmoveto
-295 hlineto
-9 -51 rlineto
295 hlineto
endchar
                </CharString>
                <CharString name="i">
                    -2 callgsubr
104 133 60 callsubr
59 callgsubr
171 -526 -72 callsubr
                </CharString>
                <CharString name="iacute">
                    -2 callgsubr
240 -20 60 callsubr
213 585 -107 callsubr
254 -544 -72 callsubr
                </CharString>
                <CharString name="ibreve">
                    -2 callgsubr
101 49 60 callsubr
496 731 -103 callsubr
-64 -667 -72 callsubr
                </CharString>
                <CharString name="icircumflex">
                    25 callsubr
456 559 -97 callsubr
115 -640 -49 callgsubr
                </CharString>
                <CharString name="idieresis">
                    -2 callgsubr
103.5 17 callgsubr
176 61 hintmask 10101100
454 572 -65 callgsubr
hintmask 10110100
-79 callsubr
285 -527 -61 callgsubr
hintmask 11010100
-43 callsubr
rlineto
hintmask 10110100
-29 callgsubr
                </CharString>
                <CharString name="igrave">
                    25 callsubr
429 577 -89 callsubr
55 -510 -49 callgsubr
                </CharString>
                <CharString name="imacron">
                    -2 callgsubr
147 51 60 callsubr
503 663 -48 callsubr
-27 -571 -72 callsubr
                </CharString>
                <CharString name="iogonek">
                    104 callsubr
152 54 386 55 0 -20 104 133 hstemhm
157 57 -38 61 hintmask 11011010
59 callgsubr
hintmask 11011100
76 -733 84 callsubr
40 42 50 211 79 vhcurveto
-8 35 rlineto
hintmask 11011010
-206 -58 -33 22 24 92 92 352 rcurveline
-54 1 rlineto
hintmask 11101010
-43 callsubr
-23 -89 23 -48 92 4 rlinecurve
hintmask 11011100
-88 -46 -31 -45 -43 vvcurveto
47 callsubr
endchar
                </CharString>
                <CharString name="j">
                    -174 59 547 53 0 -20 104 134 hstemhm
321 19.72 hintmask 10111000
413 571 rmoveto
40 132 -67 -3 -34 -133 rlineto
-345 -741 rmoveto
187 1 55 12 34 34 63 64 -63 170 110 377 -53 1 rcurveline
hintmask 11011000
-214 -43 6 -32 189 22 -87 -334 48 -151 -41 -41 rlinecurve
-20 -20 -25 -4 -185 3 rrcurveto
endchar
                </CharString>
                <CharString name="k">
                    65 callgsubr
446 64 hintmask 10011100
418 -5 rmoveto
hintmask 00111100
6 callgsubr
hintmask 01011100
12 callsubr
endchar
                </CharString>
                <CharString name="kcommaaccent">
                    65 callgsubr
209 73 164 64 hintmask 10011110
418 -5 rmoveto
hintmask 00111110
6 callgsubr
hintmask 01011110
12 callsubr
-60 -464 -94 callgsubr
                </CharString>
                <CharString name="l">
                    -7 49 604 59 hstem
132 59 282 -55 callsubr
endchar
                </CharString>
                <CharString name="l.ultra">
                    -6 51 601 59 hstem
125 60 281 57 vstem
448 65 rmoveto
-14 33 -153 -81 -83 7 -12 125 rlinecurve
243 179 94 162 116 vvcurveto
63 -32 36 -56 -134 -176 -267 -270 -191 124 -33 199 121 vhcurveto
-4 callsubr
-90 -73 -137 -208 -163 hvcurveto
232 5 132 221 93 hhcurveto
endchar
                </CharString>
                <CharString name="lacute">
                    68 callgsubr
vstem
385 803 -6 callgsubr
-738 -103 callgsubr
endchar
                </CharString>
                <CharString name="lcaron">
                    68 callgsubr
100 73 vstem
630 798 -32 callgsubr
-248 -737 -103 callgsubr
endchar
                </CharString>
                <CharString name="lcommaaccent">
                    52 callgsubr
43 73 166 -55 callsubr
-235 -913 -94 callgsubr
                </CharString>
                <CharString name="ldot">
                    -7 49 226 95 283 59 hstem
132 59 282 -55 callsubr
160 -378 rmoveto
21 95 rlineto
-77 hlineto
-22 -95 rlineto
endchar
                </CharString>
                <CharString name="less">
                    4 -21 hstem
93 417 vstem
483 591 rmoveto
-381 -270 -9 -52 278 -286 41 41 -259 262 2 8 355 252 rlineto
endchar
                </CharString>
                <CharString name="lessequal">
                    20 50 hstem
37 470 vstem
172 349 rmoveto
335 187 -18 46 -374 -211 -11 -50 306 -190 29 44 -268 166 rlineto
266 -271 70 callsubr
                </CharString>
                <CharString name="lslash">
                    79 callsubr
86 44 hstemhm
132 59 -35 42 275 57 hintmask 11101100
156 721 rmoveto
-34 25 -29 39 -27 vhcurveto
32 39 rlineto
-36 27 -18 17 17 vvcurveto
52 189 42 258 -75 vhcurveto
20 48 rlineto
-280 79 -229 -57 -99 vvcurveto
299 -656 rmoveto
-14 33 rlineto
hintmask 11110100
2 callsubr
rrcurveto
-85 callsubr
rrcurveto
hintmask 11101100
-19 callsubr
hintmask 11110100
-68 callsubr
endchar
                </CharString>
                <CharString name="m">
                    -9 49 -19 -21 440 55 -9 -20 hstemhm
288 53 57 59 11 61 hintmask 10101110
528 21 rmoveto
-10 32 rlineto
-49 -20 -12 3 21 vvcurveto
hintmask 10101010
56 72 216 96 vvcurveto
45 -22 25 -36 -37 -45 -27 -55 -48 vhcurveto
53 2 -20 29 -38 hhcurveto
-35 -42 -25 -51 -45 hvcurveto
hintmask 01011010
4 22 4 28 2 17 -55 -4 rcurveline
-23 -143 -21 -108 -46 -231 rrcurveto
58 hlineto
hintmask 01101010
21 108 33 168 18 96 rrcurveto
46 41 37 22 24 hhcurveto
29 4 -33 -54 -11 hvcurveto
-70 -353 rlineto
52 hlineto
73 371 rlineto
47 42 37 22 25 hhcurveto
20 7 -16 -23 hvcurveto
hintmask 10101010
-80 -70 -215 -70 vvcurveto
hintmask 10101110
-52 40 -11 90 48 vhcurveto
endchar
                </CharString>
                <CharString name="macron">
                    611 51 hstem
109 330 vstem
439 662 -48 callsubr
endchar
                </CharString>
                <CharString name="minus">
                    264 50 hstem
84 401 vstem
485 314 rmoveto
-391 102 callgsubr
390 hlineto
endchar
                </CharString>
                <CharString name="mu">
                    -155 -21 166 55 -53 52 440 -20 24 -20 hstemhm
356 60 hintmask 10101100
82 -171 rmoveto
hintmask 11001100
34 188 rlineto
-18 13 21 -9 28 hhcurveto
59 58 42 82 68 hvcurveto
hintmask 10110100
-24 -118 35 -44 143 82 -9 32 rcurveline
-96 -43 -5 21 15 79 71 361 rcurveline
-57 hlineto
-62 -317 rlineto
hintmask 11001100
-81 -72 -54 -41 -50 hhcurveto
-47 -20 36 88 17 hvcurveto
62 319 -59 -5 -128 -659 rlineto
endchar
                </CharString>
                <CharString name="multiply">
                    482 -20 hstem
70 428 vstem
403 97 rmoveto
43 35 -124 154 176 146 -33 42 -176 -146 -124 154 -43 -36 124 -154 -176 -146 34 -42 176 146 rlineto
endchar
                </CharString>
                <CharString name="n">
                    54 callgsubr
hintmask 10101000
512 33 -52 callgsubr
                </CharString>
                <CharString name="nacute">
                    54 callgsubr
hintmask 10100100
223 595 -107 callsubr
hintmask 10101000
289 -562 -52 callgsubr
                </CharString>
                <CharString name="naira">
                    0 94 -73 -21 180.5 49 -47.5 50 -49.5 44 157 49.5 -42.5 43 87.5 100 -1 67 callgsubr
hstemhm
12 552 hintmask 0100110100100000
200 521 rmoveto
5 hlineto
24 -88 rlineto
-46 hlineto
153 -206 rmoveto
hintmask 1000101001100000
-43 163 141 1 -31 -164 rlineto
-260 -1 rmoveto
32 163 66 1 44 -163 rlineto
87 -133 rmoveto
-24 90 rlineto
47 hlineto
-17 -90 rlineto
-32 -94 rmoveto
60 hlineto
hintmask 0101010010100000
36 182 rlineto
73 hlineto
10 50 rlineto
-74 hlineto
30 153 74 1 9 49 -73 -1 36 186 rlineto
-49 hlineto
hintmask 0100101001100000
-35 -186 -162 -1 -50 188 -60 -2 rlineto
hintmask 0110010001100000
-36 -186 rlineto
-74 hlineto
-10 -50 74 1 -29 -154 -75 -1 -9 -49 74 1 -35 -181 rlineto
49 hlineto
hintmask 0100101001100000
35 182 161 1 rlineto
endchar
                </CharString>
                <CharString name="ncaron">
                    7 callsubr
161 -20 61 callgsubr
hintmask 10101010
330 566 -93 callgsubr
hintmask 10101100
185 -533 -50 callgsubr
endchar
                </CharString>
                <CharString name="ncommaaccent">
                    7 callsubr
hstemhm
185 73 89 62 7 62 hintmask 10101100
512 33 -50 callgsubr
hintmask 10101010
-374 -302 -94 callgsubr
                </CharString>
                <CharString name="nine">
                    2 -21 265 46 289 51 hstem
102 56 288 58 vstem
110 -19 rmoveto
295 96 99 190 159 vvcurveto
141 -80 65 -104 -120 -98 -90 -131 -168 181 -57 151 137 vhcurveto
-30 -106 -90 -115 -218 -66 rrcurveto
62 384 rmoveto
91 59 70 92 74 63 -45 -125 -14 -1 -15 -2 -14 vhcurveto
-140 -130 -145 49 133 vvcurveto
endchar
                </CharString>
                <CharString name="nine.den">
                    -157 -21 126 35 30 -21 162 41 hstemhm
93 45 196 48 hintmask 11011100
109 -221 -32 callsubr
vhcurveto
hintmask 11111100
-26 callsubr
hintmask 11011100
-55 callgsubr
                </CharString>
                <CharString name="nine.inf">
                    8 80 callgsubr
105 81 callsubr
121 -161 -80 callsubr
                </CharString>
                <CharString name="nine.num">
                    583 80 callgsubr
207 81 callsubr
223 414 -80 callsubr
                </CharString>
                <CharString name="nine.small">
                    10 -21 169 80 callgsubr
129 81 callsubr
145 -11 -80 callsubr
                </CharString>
                <CharString name="nine.sup">
                    491 80 callgsubr
188 81 callsubr
204 322 -80 callsubr
                </CharString>
                <CharString name="notequal">
                    75 callgsubr
454 156 rmoveto
11 51 rlineto
-202 hlineto
97 172 rlineto
137 hlineto
11 51 rlineto
-119 hlineto
73 129 -44 15 -81 -144 rlineto
-221 10 callsubr
202 hlineto
-97 -172 rlineto
-138 10 callsubr
119 hlineto
-73 -130 43 -15 82 145 rlineto
endchar
                </CharString>
                <CharString name="ntilde">
                    7 callsubr
111 47 0 -20 83 47 61 callgsubr
hintmask 1010101010000000
422 625 72 callsubr
hintmask 1010011010000000
-44 callsubr
hhcurveto
hintmask 1010101010000000
-57 callgsubr
hintmask 1010101100000000
90 -592 -22 callgsubr
hintmask 1010101010000000
-29 callsubr
hintmask 0101101010000000
-63 callsubr
hintmask 1010101010000000
-33 callsubr
hintmask 1010101100000000
15 callgsubr
                </CharString>
                <CharString name="numbersign">
                    4 -21 501 -20 158 -20 40 -20 hstemhm
33 509 hintmask 11011000
199 226 rmoveto
40 159 137 22 -40 -160 rlineto
-198 -259 rmoveto
47 185 137 21 -47 -186 46 5 48 188 108 17 12 53 -107 -17 41 160 107 17 12 53 -106 -16 46 180 -46 -6 -46 -182 -137 -21 rlineto
hintmask 11101000
47 183 -46 -5 -47 -185 -109 -17 -11 -54 106 17 -41 -159 -107 -17 -12 -53 106 16 -47 -182 rlineto
endchar
                </CharString>
                <CharString name="numero">
                    20 -21 22 -21 127 48 55 49 295 50 -4 -20 hstemhm
363 50 126 50 hintmask 01111011
515 624 rmoveto
-79 -73 -128 -144 -82 29 -40 46 79 72 127 145 81 -29 41 -45 hvcurveto
hintmask 10110111
-315 -624 rmoveto
50 -1 121 620 -51 1 -87 -463 rlineto
-2 hlineto
-33 463 rlineto
-54 hlineto
hintmask 01111011
79 callgsubr
51 hlineto
92 489 rlineto
2 hlineto
245 -131 rmoveto
100 46 116 44 22 14 -28 -50 -101 -46 -116 -44 -21 -15 29 50 vhcurveto
102 -231 rmoveto
10 48 rlineto
-194 hlineto
-10 -48 rlineto
endchar
                </CharString>
                <CharString name="o">
                    -11 callgsubr
59 185 -105 callgsubr
                </CharString>
                <CharString name="oacute">
                    -11 callgsubr
228 596 -107 callsubr
-169 -411 -105 callgsubr
                </CharString>
                <CharString name="obreve">
                    21 callsubr
81 49 3 callgsubr
512 742 -103 callsubr
-488 -534 -105 callgsubr
                </CharString>
                <CharString name="ocircumflex">
                    -11 callgsubr
472 570 -97 callsubr
-309 -507 -105 callgsubr
                </CharString>
                <CharString name="odieresis">
                    21 callsubr
-9 callsubr
22 callgsubr
hintmask 11011100
470 583 -65 callgsubr
hintmask 11101100
-79 callsubr
-139 -394 -105 callgsubr
                </CharString>
                <CharString name="oe">
                    -8 49 -49 55 394 89 callgsubr
42 58 188 49 162 57 hintmask 01011110
515 57 rmoveto
-12 29 rlineto
-130 -74 -49 36 104 vvcurveto
11 0 11 1 11 vhcurveto
146 19 85 83 108 vvcurveto
61 -30 38 -50 -55 -49 -46 -64 -35 vhcurveto
69 -9 -32 41 -51 hhcurveto
-113 -90 -178 -166 -108 39 -50 62 53 47 41 61 35 hvcurveto
15 -107 74 -40 148 110 rrcurveto
-227 281 rmoveto
hintmask 10011110
-127 -57 -170 -72 -36 -23 38 72 122 63 171 70 vhcurveto
hintmask 01011110
37 18 -39 -67 hvcurveto
hintmask 01101110
170 103 rmoveto
25 16 -20 -36 -80 -66 -65 -103 -17 hvcurveto
107 16 51 111 61 hhcurveto
endchar
                </CharString>
                <CharString name="ogonek">
                    104 callsubr
184 -21 hstem
155 56 vstem
379 27 rmoveto
-159 -59 -65 -60 -52 vvcurveto
49 callgsubr
46 callgsubr
endchar
                </CharString>
                <CharString name="ograve">
                    -11 callgsubr
444 588 -89 callsubr
-368 -377 -105 callgsubr
                </CharString>
                <CharString name="ohungarumlaut">
                    -11 callgsubr
219 569 -76 callsubr
-341 -405 -105 callgsubr
                </CharString>
                <CharString name="omacron">
                    21 callsubr
127 51 3 callgsubr
519 674 -48 callsubr
-451 -438 -105 callgsubr
                </CharString>
                <CharString name="one">
                    0 52 454.5 140.5 0 -20 hstemhm
57 396 hintmask 10110000
439 hmoveto
14 52 rlineto
-155 hlineto
115 595 -60 -4 88 callgsubr
-15 -77 -165 -20 -7 -44 162 9 -89 -459 rlineto
-172 hlineto
-10 -52 rlineto
endchar
                </CharString>
                <CharString name="one.den">
                    -210 10 callgsubr
53 300 vstem
342 -210 -97 callgsubr
endchar
                </CharString>
                <CharString name="one.inf">
                    -150 10 callgsubr
65 300 vstem
354 -150 -97 callgsubr
endchar
                </CharString>
                <CharString name="one.num">
                    425 10 callgsubr
167 300 vstem
-81 callsubr
endchar
                </CharString>
                <CharString name="one.small">
                    0 10 callgsubr
89 300 vstem
378 hmoveto
-100 callsubr
endchar
                </CharString>
                <CharString name="one.sup">
                    333 10 callgsubr
148 300 vstem
437 333 -97 callgsubr
endchar
                </CharString>
                <CharString name="oneeighth">
                    -1 callsubr
100 33 callgsubr
20 callsubr
hintmask 1011111011000000
456 425 rmoveto
11 43 rlineto
-116 hlineto
73 369 -50 -4 -12 -60 -129 -18 -6 -37 126 10 -51 -260 rlineto
-126 hlineto
-9 -43 rlineto
-103 -141 -82 callsubr
hintmask 1101111011000000
1 callgsubr
hintmask 1011111111000000
-43 callgsubr
hintmask 1011111011000000
23 callgsubr
hintmask 1011111111000000
-86 callsubr
                </CharString>
                <CharString name="onefifth">
                    11 callgsubr
100 10 callgsubr
303 49 vstem
456 425 rmoveto
11 43 rlineto
-116 hlineto
73 369 -50 -4 -12 -60 -129 -18 -6 -37 126 10 -51 -260 rlineto
-126 hlineto
-9 -43 rlineto
-103 -141 -83 callgsubr
                </CharString>
                <CharString name="onehalf">
                    97 callsubr
96 41 100 33 callgsubr
hstemhm
317 53 hintmask 10111110
-56 callgsubr
256 -535 4 callsubr
hintmask 01111110
-3 callsubr
hintmask 10111110
1 -40 rlineto
endchar
                </CharString>
                <CharString name="onequarter">
                    -125 42 367 41 100 10 callgsubr
61 444 vstem
-56 callgsubr
291 -450 -95 callsubr
                </CharString>
                <CharString name="onesixth">
                    76 callsubr
255 112 hstem
74 82 callgsubr
456 425 rmoveto
11 43 rlineto
-116 hlineto
73 369 -50 -4 -12 -60 -129 -18 -6 -37 126 10 -51 -260 rlineto
-126 hlineto
-9 -43 rlineto
-103 -141 -44 callgsubr
                </CharString>
                <CharString name="onethird">
                    51 callgsubr
99 41 100 10 callgsubr
302 49 vstem
456 425 rmoveto
11 43 rlineto
-116 hlineto
73 369 -50 -4 -12 -60 -129 -18 -6 -37 126 10 -51 -260 rlineto
-126 hlineto
-9 -43 rlineto
-103 -41 callsubr
                </CharString>
                <CharString name="ordfeminine">
                    123 44 79 47 -46 41 295 42 hstemhm
118 52 189 50 hintmask 11011100
230 293 rmoveto
-32 -28 29 56 107 70 98 91 21 28 -4 -7 28 hvcurveto
-12 -57 -22 -107 -8 -41 rrcurveto
-39 -40 -56 -35 -40 hhcurveto
hintmask 10111100
260 -17 rmoveto
-7 25 -77 -29 -4 19 12 60 rlinecurve
53 260 rlineto
10 -44 -38 4 -32 hhcurveto
-135 -100 -125 -134 hvcurveto
hintmask 11011100
-78 38 -42 52 45 59 34 43 47 vhcurveto
hintmask 10111100
-10 -73 35 -31 106 57 rrcurveto
-399 -109 rmoveto
-8 -44 rlineto
359 hlineto
8 44 rlineto
endchar
                </CharString>
                <CharString name="ordmasculine">
                    123 44 79 42 297 42 hstem
139 51 245 51 vstem
486 475 rmoveto
94 -55 58 -84 -116 -92 -106 -123 -94 54 -58 86 115 92 106 123 vhcurveto
-296 -70 rmoveto
99 60 81 86 61 38 -45 -72 -100 -59 -80 -87 -62 -37 46 71 vhcurveto
-98 -238 rmoveto
-8 -44 rlineto
334 hlineto
8 44 rlineto
endchar
                </CharString>
                <CharString name="oslash">
                    45 callgsubr
118 194 -70 callgsubr
                </CharString>
                <CharString name="oslashacute">
                    45 callgsubr
229 596 -107 callsubr
-111 -402 -70 callgsubr
                </CharString>
                <CharString name="otilde">
                    21 callsubr
83 47 0 -20 83 47 hstemhm
22 callgsubr
hintmask 11101110
428 626 72 callsubr
hintmask 11011110
-44 callsubr
hhcurveto
hintmask 11101110
-57 callgsubr
-369 -441 -105 callgsubr
                </CharString>
                <CharString name="p">
                    77 callgsubr
-9 -20 hstemhm
434 58 hintmask 11010100
85 callsubr
22 112 21 110 10 56 rrcurveto
54 50 75 50 42 callsubr
hintmask 10110100
10 49 12 60 12 61 rrcurveto
hintmask 11010100
-6 32 28 50 callsubr
-58 -77 -51 -60 -58 hvcurveto
hintmask 11001100
6 35 7 46 4 21 -57 -4 rcurveline
-27 -166 -32 -166 -63 -327 rrcurveto
endchar
                </CharString>
                <CharString name="paragraph">
                    104 52 409 59 -3 -20 hstemhm
81 58 hintmask 11010000
397 156 rmoveto
-34 4 -31 6 -27 8 77 392 rcurveline
29 2 32 0 34 -3 rrcurveto
-338 -210 rmoveto
96 65 82 129 26 vhcurveto
-71 -369 rlineto
-80 35 -43 59 71 vvcurveto
111 -463 rmoveto
44 227 28 -7 31 -6 34 -2 rlinecurve
-38 -192 55 7 rlineto
hintmask 10110000
137 702 88 callgsubr
-284 25 -176 -133 -168 vvcurveto
-96 59 -74 105 -41 vhcurveto
-48 -249 rlineto
endchar
                </CharString>
                <CharString name="parenleft">
                    -201 915 hstem
124 57 vstem
502 714 -20 callsubr
                </CharString>
                <CharString name="parenleft.cap">
                    -152 915 hstem
134 57 vstem
512 763 -20 callsubr
                </CharString>
                <CharString name="parenright">
                    -149 -21 872 -20 hstem
364 57 vstem
43 -213 -19 callgsubr
                </CharString>
                <CharString name="parenright.cap">
                    -164 915 hstem
374 57 vstem
53 -164 -19 callgsubr
                </CharString>
                <CharString name="percent">
                    -14 48 -18 -21 215 48 103 48 176 48 -8 -20 hstemhm
101 51 95 51 9 51 95 51 hintmask 1011101101000000
298 537 rmoveto
62 -32 34 -45 -68 -52 -80 -96 97 callgsubr
vhcurveto
hintmask 0111011101000000
-202 -542 rmoveto
450 599 -37 31 -449 -600 rlineto
hintmask 1011101101000000
187 512 rmoveto
-65 -28 -63 -34 -19 -14 12 36 65 28 63 34 19 14 -12 -36 vhcurveto
hintmask 1011101111000000
60 -455 rmoveto
97 callgsubr
62 -32 34 -45 -67 -53 -80 -96 vhcurveto
51 1 rmoveto
64 28 63 34 19 14 -11 -37 -65 -28 -63 -34 -18 -15 12 37 vhcurveto
endchar
                </CharString>
                <CharString name="period">
                    0 100 hstem
187 111 vstem
278 hmoveto
20 100 rlineto
-91 95 callgsubr
                </CharString>
                <CharString name="periodcentered">
                    258 100 hstem
221 113 vstem
314 258 rmoveto
20 100 rlineto
-93 95 callgsubr
                </CharString>
                <CharString name="peso">
                    21 -21 382 50 -46 45 141 52 hstemhm
448 57 hintmask 10111000
448 431 rmoveto
-253 hlineto
27 141 rlineto
159 14 67 -67 -88 vvcurveto
-288 -181 rmoveto
26 136 rlineto
256 hlineto
-25 -84 -96 -53 -155 1 rrcurveto
hintmask 11011000
398 132 rmoveto
9 50 rlineto
-68 hlineto
2 0 2 2 vvcurveto
118 -96 93 -236 -31 vhcurveto
-36 -186 rlineto
-80 102 callgsubr
81 hlineto
-74 -382 rlineto
57 hlineto
37 191 191 17 126 67 32 107 rlinecurve
endchar
                </CharString>
                <CharString name="plus">
                    264 50 hstem
65 439 vstem
494 264 rmoveto
10 50 rlineto
-188 hlineto
38 194 rlineto
-54 hlineto
-38 -194 rlineto
-187 102 callgsubr
188 hlineto
-38 -193 rlineto
54 hlineto
38 193 rlineto
endchar
                </CharString>
                <CharString name="plusminus">
                    71 49 180 49 hstem
38 465 vstem
446 71 rmoveto
10 49 rlineto
-178 hlineto
35 180 rlineto
180 13 callgsubr
-180 hlineto
36 187 rlineto
-54 hlineto
-36 -187 rlineto
-179 -21 callsubr
179 hlineto
-35 -180 rlineto
-176 -21 callsubr
endchar
                </CharString>
                <CharString name="published">
                    7 37 99 157 141 39 96 37 hstem
45 39 283 43 69 39 vstem
518 367 rmoveto
153 -87 93 84 callgsubr
-155 86 -93 117 145 125 143 217 vhcurveto
-211 209 rmoveto
98 74 -81 -136 -182 -103 -133 -121 -97 -74 82 137 180 102 133 121 hvcurveto
-97 -433 rmoveto
22 114 rlineto
107 13 71 48 72 vvcurveto
61 -51 43 -128 -18 vhcurveto
-63 -333 rlineto
199 239 rmoveto
-50 -44 -31 -83 -1 vhcurveto
28 141 rlineto
69 5 30 -27 -37 vvcurveto
endchar
                </CharString>
                <CharString name="q">
                    -179 54 115 55 400 50 hstem
57 59 204 61 vstem
496 -135 rmoveto
-8 31 -107 -37 -9 11 13 68 rlinecurve
106 533 rlineto
14 -47 -53 10 -42 hhcurveto
-171 -121 -163 -180 -107 49 -55 65 57 72 44 54 57 hvcurveto
-32 -166 -21 -108 46 -26 146 77 rlinecurve
-301 180 rmoveto
-44 -35 39 81 145 85 135 114 29 39 -5 -11 40 hvcurveto
-56 -290 rlineto
-52 -51 -71 -42 -50 hhcurveto
endchar
                </CharString>
                <CharString name="question">
                    0 96 523 -20 hstem
447 67 vstem
143 619 rmoveto
201 -24 103 -33 -78 vvcurveto
-61 -60 -60 -190 -98 vhcurveto
19 -33 rlineto
215 109 83 80 83 vvcurveto
95 -117 53 -243 26 vhcurveto
60 -678 rmoveto
20 96 rlineto
-89 hlineto
-20 -96 rlineto
endchar
                </CharString>
                <CharString name="questiondown">
                    22 -21 523 96 hstem
63 65 vstem
362 620 rmoveto
-21 -96 rlineto
90 hlineto
21 96 rlineto
-19 -619 rmoveto
-200 24 -105 33 78 vvcurveto
61 61 60 190 98 vhcurveto
-19 33 rlineto
-215 -109 -82 -80 -83 vvcurveto
-95 116 -53 242 -26 vhcurveto
endchar
                </CharString>
                <CharString name="quotedbl">
                    387 279 hstem
169 337 vstem
422 387 rmoveto
69 callsubr
-171 hmoveto
69 callsubr
endchar
                </CharString>
                <CharString name="quotedblbase">
                    -150 -21 hstem
108 85 122 84 vstem
17 -171 rmoveto
24 -15 104 86 43 99 callsubr
-90 -4 16 101 callsubr
-84 -86 rlinecurve
206 hmoveto
85 callgsubr
-89 -3 16 57 callgsubr
                </CharString>
                <CharString name="quotedblleft">
                    398 289 hstem
150 85 122 84 vstem
532 672 rmoveto
-24 15 -104 -86 -42 -80 -5 -122 rlinecurve
90 3 -17 118 18 66 84 86 rlinecurve
-205 hmoveto
86 callgsubr
90 3 -16 94 callsubr
                </CharString>
                <CharString name="quotedblright">
                    374 290 hstem
216 84 123 84 vstem
331 389 rmoveto
23 -15 106 87 42 99 callsubr
-90 93 callgsubr
-206 hmoveto
24 -15 104 87 43 79 4 123 rlinecurve
-89 -3 16 101 callsubr
-84 -87 rlinecurve
endchar
                </CharString>
                <CharString name="quoteleft">
                    398 289 hstem
251 85 vstem
428 672 rmoveto
86 callgsubr
91 3 -17 94 callsubr
                </CharString>
                <CharString name="quoteright">
                    374 290 hstem
318 85 vstem
226 389 rmoveto
24 -15 105 87 43 99 callsubr
-91 93 callgsubr
endchar
                </CharString>
                <CharString name="quotesinglbase">
                    -150 -21 hstem
212 84 vstem
120 -171 rmoveto
85 callgsubr
-90 -3 17 57 callgsubr
                </CharString>
                <CharString name="quotesingle">
                    387 279 hstem
277 126 vstem
318 387 rmoveto
83 247 2 32 rlineto
-78 hlineto
-48 -279 rlineto
endchar
                </CharString>
                <CharString name="r">
                    56 callgsubr
508 27 -77 callsubr
                </CharString>
                <CharString name="racute">
                    56 callgsubr
266 604 -107 callsubr
242 -577 -77 callsubr
                </CharString>
                <CharString name="rcaron">
                    48 callgsubr
164 -20 hstem
102 callsubr
53 59 vstem
367 575 -93 callgsubr
144 -548 -77 callsubr
                </CharString>
                <CharString name="rcommaaccent">
                    48 callgsubr
hstemhm
102 callsubr
-87 73 67 59 hintmask 11101100
508 27 -8 callgsubr
rlineto
hintmask 11110100
-73 -32 -77 -19 -60 -5 rrcurveto
-67 callsubr
rrcurveto
hintmask 11101100
18 callgsubr
-387 -271 -94 callgsubr
                </CharString>
                <CharString name="registered">
                    200 33 287 33 84 34 hstem
94 36 241 36 88 36 vstem
329 671 rmoveto
-137 -98 -110 -154 -129 79 -78 123 137 98 109 154 129 -79 79 -123 hvcurveto
-1 -34 rmoveto
98 69 -64 -114 -138 -87 -88 -112 -97 -69 65 114 138 86 87 112 hvcurveto
30 -315 rmoveto
42 4 -70 92 rlineto
57 24 20 26 29 vvcurveto
37 -34 32 -114 -17 vhcurveto
-44 -225 rlineto
38 hlineto
37 196 rlineto
63 7 18 -17 -20 vvcurveto
-19 -21 -22 -69 -23 vhcurveto
endchar
                </CharString>
                <CharString name="registered.alt">
                    7 37 401 37 94 37 hstem
45 39 270 43 82 39 vstem
45 255 rmoveto
-155 86 -93 117 147 123 141 218 153 -87 94 84 callgsubr
vhcurveto
39 8 rmoveto
180 102 133 121 98 74 -83 -135 -184 -101 -130 -123 -97 -74 82 137 vhcurveto
248 -118 rmoveto
48 5 -78 141 rlineto
61 32 34 35 49 vvcurveto
52 -48 37 -120 -18 vhcurveto
-65 -331 rlineto
43 hlineto
58 298 rlineto
60 4 29 -19 -32 vvcurveto
-37 -35 -27 -71 -33 vhcurveto
endchar
                </CharString>
                <CharString name="ring">
                    544 -3 callgsubr
39 hstem
225 46 169 46 vstem
362 753 -91 callsubr
endchar
                </CharString>
                <CharString name="ruble">
                    0 173 -46 46 101 49 248 53 hstemhm
483 59 hintmask 01111000
483 459 rmoveto
-95 -93 -40 -176 -1 vhcurveto
48 248 rlineto
156 13 65 -45 -80 vvcurveto
-84 -332 rmoveto
13 46 rlineto
-227 hlineto
20 103 rlineto
223 10 114 65 117 vvcurveto
107 -95 70 -235 -27 vhcurveto
-57 -295 rlineto
-92 hlineto
-9 -49 rlineto
30 31 0 30 hhcurveto
-19 -99 rlineto
-93 63 callsubr
93 hlineto
hintmask 10111000
-25 -127 rlineto
60 hlineto
hintmask 01111000
25 127 rlineto
endchar
                </CharString>
                <CharString name="rupee">
                    -7 49 -21 57 callsubr
570 48 hstemhm
289 54 55 113 -50 55 hintmask 10011010
222 -5 rmoveto
hintmask 00111010
55 10 -60 270 rlineto
85 84 41 65 82 vvcurveto
84 -55 47 -128 -18 vhcurveto
hintmask 01011010
54 callsubr
-26 -56 94 callgsubr
352 -159 rmoveto
76 -45 85 -15 76 vhcurveto
hintmask 00111100
105 73 -8 68 -41 hhcurveto
-39 -43 -70 -76 -12 1 -12 2 -12 hvcurveto
-20 -31 -26 -34 -37 -42 18 -21 rcurveline
hintmask 10011010
29 27 25 27 22 24 rrcurveto
18 -65 31 -64 -55 vvcurveto
-51 -14 -33 -128 20 vhcurveto
-2 -55 rlineto
hintmask 01011010
161 -16 38 69 72 vvcurveto
endchar
                </CharString>
                <CharString name="rupeeindia">
                    8 -21 391 46 144 52 hstem
359 58 vstem
435 19 rmoveto
-118 112 -69 58 -85 26 138 19 94 62 19 82 rrcurveto
96 hlineto
8 46 rlineto
-101 hlineto
-5 60 -42 57 -79 27 rrcurveto
257 hlineto
14 52 rlineto
-406 hlineto
-13 -51 147 -15 62 -62 7 -68 rlinecurve
-242 hlineto
-9 -46 rlineto
248 hlineto
-19 -68 -81 -54 -166 -13 -18 -46 rcurveline
125 -37 56 -50 131 -123 rrcurveto
endchar
                </CharString>
                <CharString name="s">
                    26 callgsubr
457 121 -76 callgsubr
                </CharString>
                <CharString name="sacute">
                    26 callgsubr
240 628 -107 callsubr
217 -507 -76 callgsubr
                </CharString>
                <CharString name="scaron">
                    26 callgsubr
347 599 -93 callgsubr
113 -478 -76 callgsubr
                </CharString>
                <CharString name="scedilla">
                    -44 88 -53 40 callgsubr
-92 55 60 59 hintmask 10001100
283 -182 rmoveto
55 1 rlineto
hintmask 00101100
6 99 -29 57 -44 19 rrcurveto
144 13 42 56 58 vvcurveto
36 callgsubr
hintmask 01010100
-68 callgsubr
hintmask 01001100
-16 callgsubr
hintmask 00101100
-2 -56 rlineto
hintmask 01001100
-2 24 22 -1 21 hhcurveto
-37 -19 -32 -43 -30 -71 34 -11 rcurveline
hintmask 10001100
-10 callgsubr
endchar
                </CharString>
                <CharString name="schwa">
                    -11 50 223 39 141 52 hstem
59 58 306 58 vstem
193 -11 rmoveto
166 122 171 153 164 -140 84 -255 -131 hvcurveto
10 -32 rlineto
220 84 107 -39 -138 vvcurveto
-4 vlineto
-231 -18 -133 -69 -113 vvcurveto
-69 51 -43 83 vhcurveto
13 50 rmoveto
-55 -34 29 43 88 120 50 183 13 hvcurveto
-111 -17 -79 -112 -118 hhcurveto
endchar
                </CharString>
                <CharString name="scommaaccent">
                    -9 89 callgsubr
176 73 3 123 23 59 hintmask 10101000
457 121 rmoveto
36 callgsubr
hintmask 10011000
-68 callgsubr
hintmask 10101000
-16 callgsubr
hintmask 01101000
-2 -56 rlineto
hintmask 10101000
265 -18 70 70 75 vvcurveto
-328 -389 -94 callgsubr
                </CharString>
                <CharString name="section">
                    -107 51 637 51 hstemhm
75 56 38 60 118 61 17 56 -28 54 hintmask 11111000
131 252 rmoveto
50 72 31 79 13 vhcurveto
hintmask 11111100
68 -38 75 -30 -45 vvcurveto
-37 -46 -28 -112 -27 vhcurveto
hintmask 11111000
-68 34 -68 30 47 vvcurveto
277 -243 rmoveto
47 -43 33 -52 29 vhcurveto
hintmask 11111100
112 31 56 38 55 111 -252 28 109 vvcurveto
49 49 42 67 vhcurveto
hintmask 11111010
63 35 -34 -76 10 hvcurveto
54 11 -12 98 -44 53 -91 -1 rlinecurve
-111 -1 -80 -72 -78 vvcurveto
-47 32 -35 40 -28 vhcurveto
-94 -18 -72 -41 -71 -120 272 -29 -87 vvcurveto
-51 -80 -42 -237 64 vhcurveto
-13 -59 rlineto
hintmask 11111000
279 -64 112 77 79 vvcurveto
endchar
                </CharString>
                <CharString name="semicolon">
                    -151 -21 507 101 hstem
208 85 58 callsubr
-138 -507 rmoveto
24 -14 106 87 42 79 5 122 rlinecurve
-90 -3 15 101 callsubr
-84 -87 rlinecurve
endchar
                </CharString>
                <CharString name="servicemark">
                    292 38 16 59 162 53 -53 54 -32 37 hstemhm
113 41 48 42 -4 40 106.5 27 hintmask 1110011010000000
395 346 rmoveto
59 callsubr
67 callsubr
hintmask 1001011010000000
-17 216 96 callsubr
hintmask 1010011010000000
52 273 rlineto
3 hlineto
hintmask 1000110110000000
-98 -28 rmoveto
57 -6 -23 30 -44 hhcurveto
-54 -40 -41 -52 hvcurveto
hintmask 1000111010000000
-74 89 -37 -55 vvcurveto
-37 -36 -14 -100 31 vhcurveto
-7 -43 rlineto
135 -36 50 48 55 70 -90 36 61 vvcurveto
31 20 20 25 vhcurveto
hintmask 1000110110000000
22 14 -18 -38 5 hvcurveto
endchar
                </CharString>
                <CharString name="seven">
                    17 -21 28 -21 563 54 hstemhm
112 445 hintmask 10110000
174 -4 rmoveto
102 194 125 196 146 186 10 48 rcurveline
-396 hlineto
-11 -54 rlineto
331 -3 hlineto
hintmask 01110000
-145 -182 -122 -189 -102 -189 rrcurveto
endchar
                </CharString>
                <CharString name="seven.den">
                    142 43 hstem
99 311 vstem
152 -213 -71 callgsubr
endchar
                </CharString>
                <CharString name="seven.inf">
                    202 43 hstem
111 311 vstem
164 -153 -71 callgsubr
endchar
                </CharString>
                <CharString name="seven.num">
                    777 43 hstem
213 311 vstem
266 422 -71 callgsubr
endchar
                </CharString>
                <CharString name="seven.small">
                    18 57 callsubr
350 43 hstemhm
135 311 hintmask 10110000
188 -3 -62 callsubr
hintmask 01110000
-10 callsubr
endchar
                </CharString>
                <CharString name="seven.sup">
                    685 43 hstem
194 311 vstem
247 330 -71 callgsubr
endchar
                </CharString>
                <CharString name="seveneighths">
                    -1 callsubr
452 53 callgsubr
hintmask 1011110110000000
266 422 -71 callgsubr
-149 -143 -82 callsubr
hintmask 1101110110000000
1 callgsubr
hintmask 1011111110000000
-43 callgsubr
hintmask 1011110110000000
23 callgsubr
hintmask 1011111110000000
-86 callsubr
                </CharString>
                <CharString name="six">
                    -10 50 289 47 266 -20 hstem
73 57 289 56 vstem
256 -10 rmoveto
121 98 91 130 168 -181 58 -152 -138 hvcurveto
30 106 91 115 217 66 -14 56 rcurveline
-294 -97 -99 -190 -159 vvcurveto
-140 79 -66 104 vhcurveto
12 50 rmoveto
-74 -64 47 124 14 1 14 2 14 hvcurveto
140 130 146 -49 -132 vvcurveto
-91 -59 -71 -92 vhcurveto
endchar
                </CharString>
                <CharString name="six.den">
                    -219 73 callsubr
hstem
74 82 callgsubr
212 -219 -100 callgsubr
                </CharString>
                <CharString name="six.inf">
                    -159 73 callsubr
hstem
86 82 callgsubr
224 -159 -100 callgsubr
                </CharString>
                <CharString name="six.num">
                    416 40 163 -20 29 35 hstemhm
188 64 callsubr
hintmask 10111000
326 416 rmoveto
85 66 56 83 hvcurveto
hintmask 11111000
105 -128 42 -105 -83 vhcurveto
-58 callgsubr
hintmask 10111000
-80 callgsubr
                </CharString>
                <CharString name="six.small">
                    -9 73 callsubr
hstem
110 82 callgsubr
248 -9 -100 callgsubr
                </CharString>
                <CharString name="six.sup">
                    324 73 callsubr
hstem
169 82 callgsubr
307 324 -100 callgsubr
                </CharString>
                <CharString name="slash">
                    -157 -21 hstem
-57 665 vstem
561 712 rmoveto
-618 -876 53 -14 612 867 rlineto
endchar
                </CharString>
                <CharString name="space">
                    endchar
                </CharString>
                <CharString name="sterling">
                    -8 56 -39 -21 275 48 268 55 hstemhm
158 58 -53 58 248 59 hintmask 10111010
487 129 rmoveto
-30 16 -63 -143 -66 48 -153 32 rlinecurve
24 47 9 67 8 67 rrcurveto
196 hlineto
9 48 rlineto
hintmask 10110110
-200 hlineto
8 61 9 60 23 46 rrcurveto
58 29 46 43 55 hhcurveto
48 30 -30 -101 hvcurveto
59 2 rlineto
121 3 -39 63 -88 hhcurveto
-88 -70 -70 -73 -36 hvcurveto
-29 -58 -10 -60 -8 -62 rrcurveto
hintmask 01111010
-77 63 callsubr
81 hlineto
-7 -57 -8 -58 -24 -59 rrcurveto
5 -137 -31 -106 92 hhcurveto
36 36 16 31 29 hvcurveto
hintmask 10111010
184 -42 87 -62 72 198 rrcurveto
endchar
                </CharString>
                <CharString name="t">
                    35 callgsubr
-34 callsubr
endchar
                </CharString>
                <CharString name="tcaron">
                    35 callgsubr
228 73 hintmask 11011000
442 827 -32 callgsubr
-60 -780 -20 callgsubr
hintmask 10111000
32 141 -46 -3 rlineto
hintmask 11011000
-17 callsubr
endchar
                </CharString>
                <CharString name="tcommaaccent">
                    35 callgsubr
-17 73 -34 callsubr
hintmask 11001000
-305 -321 -94 callgsubr
                </CharString>
                <CharString name="thorn">
                    77 callgsubr
207 -20 hstemhm
434 58 hintmask 11011100
85 callsubr
54 279 rlineto
54 50 74 49 42 callsubr
hintmask 10111100
33 170 rlineto
hintmask 11011100
-6 32 29 50 callsubr
-56 -75 -48 -58 -57 hvcurveto
61 313 -59 -5 -169 -874 rlineto
endchar
                </CharString>
                <CharString name="three">
                    -5 56 -30 89 callsubr
hstemhm
412 57 hintmask 10110000
469 168 rmoveto
68 -57 66 -174 45 vhcurveto
285 222 6 51 rlineto
-356 hlineto
-10 -53 rlineto
292 hlineto
-287 -221 -5 -30 rlineto
190 -45 59 -54 -59 vvcurveto
-63 -64 -67 -284 30 96 callgsubr
317 -29 95 105 92 vvcurveto
endchar
                </CharString>
                <CharString name="three.den">
                    51 callgsubr
hstem
302 49 vstem
351 -101 -92 callsubr
                </CharString>
                <CharString name="three.inf">
                    -154 45 311 43 hstem
314 49 vstem
363 -41 -92 callsubr
                </CharString>
                <CharString name="three.num">
                    421 19 callsubr
416 49 hintmask 10111000
-56 callsubr
hintmask 11011000
-27 callgsubr
hintmask 10111000
-18 callsubr
endchar
                </CharString>
                <CharString name="three.small">
                    -4 45 -20 -21 352 43 hstemhm
338 49 hintmask 10110000
387 109 -90 callsubr
hintmask 01110000
37 callsubr
hintmask 10110000
-18 callsubr
endchar
                </CharString>
                <CharString name="three.sup">
                    329 45 311 43 hstem
397 49 vstem
446 442 -92 callsubr
                </CharString>
                <CharString name="threeeighths">
                    -1 callsubr
96 19 callsubr
63 49 9 47 126 47 75 49 hintmask 1011110110111000
-56 callsubr
hintmask 1011111010111000
-27 callgsubr
hintmask 1011110110111000
-18 callsubr
-401 -250 -82 callsubr
hintmask 1101110110111000
1 callgsubr
hintmask 1011110111111000
-43 callgsubr
hintmask 1011110110111000
23 callgsubr
hintmask 1011110111111000
-86 callsubr
                </CharString>
                <CharString name="threefifths">
                    11 callgsubr
96 19 callsubr
303 49 64 49 hintmask 1111101111000000
-56 callsubr
hintmask 1111110111000000
-27 callgsubr
hintmask 1111101111000000
-18 callsubr
-401 -250 -83 callgsubr
                </CharString>
                <CharString name="threequarters">
                    -125 42 367 41 96 19 callsubr
416 49 hintmask 11101110
-56 callsubr
hintmask 11110110
-27 callgsubr
hintmask 11101110
-18 callsubr
-401 -250 -67 callgsubr
291 -450 -95 callsubr
                </CharString>
                <CharString name="tilde">
                    567 47 63 47 -21 -20 hstemhm
73 409 hintmask 10110000
350 614 rmoveto
hintmask 11010000
21 callgsubr
-44 callsubr
48 16 -110 68 hhcurveto
hintmask 10110000
-46 callgsubr
endchar
                </CharString>
                <CharString name="trademark">
                    346 59 175 40 -40 41 hstemhm
386.5 27 hintmask 01010000
297 620 rmoveto
-188 hlineto
-8 -40 rlineto
75 hlineto
-56 -284 rlineto
42 hlineto
56 284 rlineto
71 hlineto
hintmask 10110000
116 41 rmoveto
96 callsubr
52 273 rlineto
3 hlineto
17 -221 rlineto
59 callsubr
hintmask 11010000
67 callsubr
endchar
                </CharString>
                <CharString name="two">
                    0 53 515 57 hstem
438 59 vstem
435 hmoveto
11 53 rlineto
-319 hlineto
235 161 135 110 141 vvcurveto
125 -110 61 -220 -36 vhcurveto
-9 -57 rlineto
206 32 74 -50 -90 vvcurveto
-122 -143 -108 -251 -171 vhcurveto
1 -49 rlineto
endchar
                </CharString>
                <CharString name="two.den">
                    97 callsubr
hstemhm
317 53 hintmask 10110000
329 -210 4 callsubr
hintmask 01110000
-3 callsubr
hintmask 10110000
1 -40 rlineto
endchar
                </CharString>
                <CharString name="two.inf">
                    -150 49 callsubr
329 53 vstem
341 -150 -13 callgsubr
                </CharString>
                <CharString name="two.num">
                    425 49 callsubr
431 -54 callgsubr
endchar
                </CharString>
                <CharString name="two.small">
                    0 49 callsubr
353 53 vstem
365 hmoveto
-84 callgsubr
endchar
                </CharString>
                <CharString name="two.sup">
                    333 49 callsubr
412 53 vstem
424 333 -13 callgsubr
                </CharString>
                <CharString name="twofifths">
                    11 callgsubr
100 49 callsubr
303 49 79 -54 callgsubr
-101 -141 -83 callgsubr
                </CharString>
                <CharString name="twothirds">
                    51 callgsubr
99 41 100 49 callsubr
302 49 80 -54 callgsubr
-101 -41 callsubr
                </CharString>
                <CharString name="u">
                    -33 callgsubr
517 34 -101 callsubr
                </CharString>
                <CharString name="uacute">
                    -33 callgsubr
239 587 -107 callsubr
278 -553 -101 callsubr
                </CharString>
                <CharString name="ubreve">
                    -28 callgsubr
101 49 9 callgsubr
hintmask 01011110
522 733 -103 callsubr
-40 -676 -45 callsubr
                </CharString>
                <CharString name="ucircumflex">
                    -33 callgsubr
483 561 -97 callsubr
138 -649 -101 callsubr
                </CharString>
                <CharString name="udieresis">
                    -28 callgsubr
103.5 17 callgsubr
81 60 215 60 hintmask 01010111
480 574 -65 callgsubr
hintmask 01101011
-79 callsubr
309 -536 -37 callgsubr
-41 callgsubr
hintmask 10011011
-53 callgsubr
-88 callsubr
hintmask 01101011
-39 callsubr
                </CharString>
                <CharString name="ugrave">
                    -33 callgsubr
455 579 -89 callsubr
79 -519 -101 callsubr
                </CharString>
                <CharString name="uhungarumlaut">
                    -33 callgsubr
230 560 -76 callsubr
106 -547 -101 callsubr
                </CharString>
                <CharString name="umacron">
                    -28 callgsubr
147 51 9 callgsubr
hintmask 01011110
530 665 -48 callsubr
-4 -580 -45 callsubr
                </CharString>
                <CharString name="underscore">
                    -98 48 hstem
-30 491 vstem
461 -50 rmoveto
-482 63 callsubr
482 hlineto
endchar
                </CharString>
                <CharString name="underscore.alt">
                    -98 48 hstem
-67 578 vstem
511 -50 rmoveto
-569 63 callsubr
569 hlineto
endchar
                </CharString>
                <CharString name="uni00A0">
                    endchar
                </CharString>
                <CharString name="uogonek">
                    104 callsubr
151 56 -47 46 -25 -21 486 88 callsubr
81 60 138 57 21 59 hintmask 1010011110000000
494 60 callgsubr
-42 103 callsubr
43 47 55 134 64 vhcurveto
hintmask 1010101010000000
-35 callgsubr
-41 callgsubr
hintmask 1100011010000000
-53 callgsubr
-81 callgsubr
59 62 43 80 71 hvcurveto
hintmask 1001011010000000
-13 -63 7 -43 35 -8 rrcurveto
hintmask 1100011110000000
-79 -49 -34 -48 -45 vvcurveto
hintmask 1010011110000000
49 callgsubr
endchar
                </CharString>
                <CharString name="uring">
                    -28 callgsubr
80 -3 callgsubr
39 hstemhm
81 60 95 46 74 60 35 46 hintmask 0101111111000000
373 756 -91 callsubr
149 -683 -37 callgsubr
hintmask 1010111111000000
-75 callgsubr
hintmask 1001111111000000
-88 callsubr
hintmask 0101111111000000
-39 callsubr
                </CharString>
                <CharString name="v">
                    -4 59 429 100 callsubr
97 447 hintmask 10110000
240 55 rmoveto
-7 hlineto
-30 145 -25 144 -22 142 -59 -3 rcurveline
24 -162 30 -162 34 -163 rrcurveto
79 hlineto
hintmask 11010000
97 160 95 168 88 160 rrcurveto
-63 hlineto
hintmask 10110000
-77 -142 -78 -143 -86 -144 rrcurveto
endchar
                </CharString>
                <CharString name="w">
                    34 callsubr
335 hmoveto
-75 callsubr
                </CharString>
                <CharString name="wacute">
                    36 callsubr
240 -20 hstemhm
76 54 hintmask 01111000
234 584 -107 callsubr
101 -584 55 callsubr
hintmask 10111000
-89 callgsubr
                </CharString>
                <CharString name="wcircumflex">
                    34 callsubr
478 558 -97 callsubr
-39 -680 rmoveto
-75 callsubr
                </CharString>
                <CharString name="wdieresis">
                    36 callsubr
103.5 17 callgsubr
76 54 hintmask 01101100
476 571 -65 callgsubr
hintmask 01110100
-79 callsubr
131 -567 55 callsubr
hintmask 10110100
-89 callgsubr
                </CharString>
                <CharString name="wgrave">
                    34 callsubr
450 576 -89 callsubr
-98 -550 rmoveto
-75 callsubr
                </CharString>
                <CharString name="x">
                    19 66 callsubr
24 -21 481 100 callsubr
4 536 hintmask 10001100
379 -2 rmoveto
hintmask 00110100
65 5 -134 240 230 241 rlineto
-66 hlineto
-193 -205 rlineto
hintmask 01001100
-119 207 -63 -4 136 -239 -231 -243 rlineto
65 hlineto
194 207 rlineto
endchar
                </CharString>
                <CharString name="y">
                    -30 callgsubr
413 -91 -99 callsubr
                </CharString>
                <CharString name="yacute">
                    -30 callgsubr
237 593 -107 callsubr
176 -684 -99 callsubr
                </CharString>
                <CharString name="ycircumflex">
                    -30 callgsubr
481 567 -97 callsubr
36 -780 -99 callsubr
                </CharString>
                <CharString name="ydieresis">
                    -174 57 -54 54 141 55 407 -20 27 7 callgsubr
75 60 242 51 hintmask 1010101110000000
478 580 -65 callgsubr
hintmask 1010110110000000
-79 callsubr
207 -667 -77 callgsubr
hintmask 1011010110000000
-78 callgsubr
hintmask 0110110110000000
-9 -61 rlineto
hintmask 1010110110000000
5 callsubr
                </CharString>
                <CharString name="yen">
                    0 168 -48 48 105 48 299 67 callgsubr
hstemhm
43 539 hintmask 01101100
455 120 rmoveto
11 48 rlineto
-177 hlineto
15 80 19 25 rlineto
163 hlineto
9 48 rlineto
-136 hlineto
hintmask 01110100
223 299 rlineto
-65 hlineto
-229 -314 rlineto
hintmask 01101100
-110 315 -62 -2 107 -298 rlineto
-141 63 callsubr
167 hlineto
8 -21 -17 -84 rlineto
-179 63 callsubr
179 hlineto
hintmask 10101100
-24 -120 rlineto
59 hlineto
hintmask 01101100
23 120 rlineto
endchar
                </CharString>
                <CharString name="ygrave">
                    -30 callgsubr
453 585 -89 callsubr
-23 -650 -99 callsubr
                </CharString>
                <CharString name="z">
                    1 callsubr
99 callgsubr
424 hmoveto
-47 callsubr
                </CharString>
                <CharString name="zacute">
                    1 callsubr
220 -20 99 callgsubr
229 584 -107 callsubr
195 -584 rmoveto
-47 callsubr
                </CharString>
                <CharString name="zcaron">
                    1 callsubr
133 -20 105 88 callsubr
33 502 hintmask 11101100
336 555 rmoveto
hintmask 11110100
-64 callgsubr
rlineto
hintmask 11101100
-65 callsubr
91 -555 rmoveto
-47 callsubr
                </CharString>
                <CharString name="zdotaccent">
                    1 callsubr
84.5 50 callgsubr
99 callgsubr
364 569 -42 callgsubr
120 -568 rmoveto
-47 callsubr
                </CharString>
                <CharString name="zero">
                    -11 51 540 51 hstem
65 60 327 60 vstem
65 217 rmoveto
-152 92 callsubr
216 151 92 callgsubr
-216 vhcurveto
266 363 rmoveto
70 45 -52 -106 6 hvcurveto
-327 -171 rlineto
168 8 84 161 114 hhcurveto
-85 -540 rmoveto
-71 -45 53 108 -5 hvcurveto
327 170 rlineto
-169 -7 -84 -162 -115 hhcurveto
endchar
                </CharString>
                <CharString name="zero.alt">
                    103 callgsubr
52 hstem
65 59 329 59 vstem
65 218 rmoveto
-153 92 callsubr
215 152 92 callgsubr
-215 vhcurveto
59 7 rmoveto
177 87 177 121 75 46 -60 -124 -177 -86 -177 -122 -75 -46 60 124 vhcurveto
endchar
                </CharString>
                <CharString name="zero.den">
                    -220 62 callgsubr
68 62 callsubr
68 -65 -82 callgsubr
                </CharString>
                <CharString name="zero.inf">
                    -160 62 callgsubr
80 62 callsubr
80 -5 -82 callgsubr
                </CharString>
                <CharString name="zero.num">
                    415 62 callgsubr
182 62 callsubr
182 570 -82 callgsubr
                </CharString>
                <CharString name="zero.small">
                    -10 62 callgsubr
104 62 callsubr
104 145 -82 callgsubr
                </CharString>
                <CharString name="zero.sup">
                    323 62 callgsubr
163 62 callsubr
163 478 -82 callgsubr
                </CharString>
                <CharString name="less_exclam_hyphen_hyphen.liga">
                    0 96 168 52 hstem
-1557 417 213 225 vstem
-852 105 callsubr
-288 320 rmoveto
105 callgsubr
446 hlineto
13 52 rlineto
-448 hlineto
861 hmoveto
-10 -52 rlineto
1044 hlineto
13 52 rlineto
-1371 -316 107 callsubr
                </CharString>
                <CharString name="equal_equal_equal.liga">
                    108 callsubr
563 511 109 callsubr
-247 109 callsubr
-248 rmoveto
13 61 rlineto
-1486 hlineto
-12 -61 rlineto
endchar
                </CharString>
                <CharString name="equal_equal_greater.liga">
                    107 callgsubr
-1018 1478 -393 110 callsubr
111 callsubr
-1249 110 callgsubr
1310 112 callsubr
-1327 110 callgsubr
1264 113 callsubr
114 callsubr
endchar
                </CharString>
                <CharString name="equal_less_less.liga">
                    107 callgsubr
-1018 1477 -666 417 -117 110 callsubr
-145 294 rmoveto
hintmask 11010000
112 callgsubr
-922 110 callgsubr
859 hlineto
-82 -58 -9 -52 59 -61 rlineto
-860 hlineto
hintmask 11100000
-10 -52 rlineto
921 113 callgsubr
302 8 rmoveto
hintmask 11001000
355 252 106 callsubr
-259 262 rlineto
endchar
                </CharString>
                <CharString name="exclam_equal_equal.liga">
                    108 callsubr
-603 665 vstem
563 511 rmoveto
13 60 rlineto
-597 hlineto
83 118 -47 23 -99 -141 rlineto
-826 hlineto
-12 -60 rlineto
795 hlineto
-132 -187 rlineto
-699 hlineto
-12 -60 rlineto
669 hlineto
-132 -187 rlineto
-573 hlineto
-12 -61 rlineto
542 hlineto
-127 -180 53 -14 137 194 rlineto
880 hlineto
13 61 rlineto
-850 hlineto
132 187 rlineto
753 hlineto
13 60 rlineto
-724 hlineto
132 187 rlineto
endchar
                </CharString>
                <CharString name="greater_equal_greater.liga">
                    107 callgsubr
-1033 417 -394 1469 -392 417 hintmask 11010000
111 callsubr
-1022 114 callgsubr
hintmask 11100000
116 callsubr
1009 hlineto
hintmask 11001000
116 callgsubr
-1010 hlineto
65 46 rlineto
hintmask 11100000
10 52 -71 73 rlineto
1022 hlineto
89 -90 rlineto
endchar
                </CharString>
                <CharString name="greater_greater_equal.liga">
                    107 callgsubr
-1033 417 -393 1477 -1201 110 callsubr
-616 306 rmoveto
-278 285 115 callgsubr
-355 -252 27 -46 380 271 rlineto
1147 177 rmoveto
-959 114 callgsubr
hintmask 11001000
116 callsubr
hintmask 11010000
930 hlineto
117 callsubr
-869 hlineto
65 46 rlineto
hintmask 11001000
10 52 -71 73 rlineto
897 hlineto
endchar
                </CharString>
                <CharString name="hyphen_hyphen_greater.liga">
                    264 52 hstemhm
-980 1440 117 callgsubr
-1367 110 callgsubr
1378 118 callsubr
                </CharString>
                <CharString name="less_equal_equal.liga">
                    107 callgsubr
-1010 1478 -1475 110 callsubr
-825 379 rmoveto
1335 hlineto
117 callsubr
-1273 113 callsubr
118 callgsubr
hintmask 11100000
1285 hlineto
117 callsubr
-1348 hlineto
-77 78 2 8 rlineto
endchar
                </CharString>
                <CharString name="less_equal_greater.liga">
                    107 callgsubr
-1007 417 657 417 hintmask 11010000
111 callsubr
-1036 hlineto
hintmask 11110000
118 callgsubr
1064 hlineto
116 callgsubr
-1189 hlineto
120 callgsubr
1160 hlineto
89 -90 rlineto
endchar
                </CharString>
                <CharString name="less_equal_less.liga">
                    107 callgsubr
-1010 1469 -1466 417 683 110 callsubr
155 294 rmoveto
hintmask 11001000
112 callgsubr
-1009 113 callsubr
118 callgsubr
1021 113 callgsubr
-1023 -78 rmoveto
120 callgsubr
1009 hlineto
-82 -58 rlineto
hintmask 11001000
-9 -52 59 -61 rlineto
endchar
                </CharString>
                <CharString name="less_hyphen_hyphen.liga">
                    264 52 hstem
-1007 120 callsubr
-1358 hlineto
324 230 105 callgsubr
1356 hlineto
endchar
                </CharString>
                <CharString name="ampersand_ampersand.liga">
                    -10 55 hstem
-400 58 163 49 112 58 163 49 vstem
311 165 rmoveto
42 51 41 61 40 72 121 callgsubr
-60 -54 -53 -54 -39 -54 15 23 14 25 15 26 122 callgsubr
23 -31 29 -46 32 -25 rrcurveto
-17 19 26 -10 33 hhcurveto
63 78 45 84 79 hvcurveto
34 -46 41 -46 47 -45 45 41 rcurveline
-51 48 -43 46 -34 48 rrcurveto
-625 -120 rmoveto
121 callsubr
382 hmoveto
121 callsubr
-83 195 rmoveto
-20 -33 -13 -32 -6 -32 -6 7 -6 7 -5 8 19 23 19 25 18 27 rrcurveto
endchar
                </CharString>
                <CharString name="bar_bar.liga">
                    -312 227 158 227 vstem
-85 703 123 callgsubr
557 883 123 callgsubr
endchar
                </CharString>
                <CharString name="bar_greater.liga">
                    -344 56 559 53 vstem
334 317 rmoveto
-436 456 -57 -5 -185 -949 rlineto
56 hlineto
1 4 611 440 rlineto
-53 23 rmoveto
-544 -392 156 804 390 -404 rlineto
endchar
                </CharString>
                <CharString name="colon_equal.liga">
                    131 101 -76 52 147 101 -77 52 hstemhm
-321 696 hintmask 00000000
hintmask 01101000
-277 355 122 callsubr
hintmask 10011000
620 -77 123 callsubr
-260 -248 122 callsubr
hintmask 01011000
620 -76 123 callsubr
endchar
                </CharString>
                <CharString name="equal_equal.liga">
                    126 22 201 22 hstem
-498 906 vstem
510 379 124 callsubr
892 -223 124 callsubr
endchar
                </CharString>
                <CharString name="equal_greater.liga">
                    107 callgsubr
-468 927 -392 110 callsubr
111 callsubr
-699 110 callgsubr
760 112 callsubr
-777 110 callgsubr
714 113 callsubr
114 callsubr
endchar
                </CharString>
                <CharString name="exclam_equal.liga">
                    126 22 201 22 hstemhm
-498 906 -768 665 hintmask 11100000
510 379 125 callsubr
-398 113 callsubr
182 258 -47 23 -198 -281 rlineto
-475 110 callgsubr
448 hlineto
-121 -171 rlineto
-360 110 callgsubr
334 hlineto
-226 -320 53 -14 236 334 rlineto
538 hlineto
117 callsubr
-513 hlineto
121 171 rlineto
endchar
                </CharString>
                <CharString name="greater_equal.liga">
                    -335 702 vstem
-293 125 callgsubr
-730 -283 rlineto
697 113 rmoveto
-730 -283 -17 42 758 297 rlineto
endchar
                </CharString>
                <CharString name="hyphen_greater.liga">
                    264 52 hstemhm
-430 890 117 callgsubr
-817 110 callgsubr
828 118 callsubr
                </CharString>
                <CharString name="hyphen_hyphen.liga">
                    264 51 hstem
-379 304 133 304 vstem
-84 126 callsubr
732 hmoveto
9 51 rlineto
-295 hlineto
-9 -51 rlineto
endchar
                </CharString>
                <CharString name="less_bar.liga">
                    -309 62 378 56 vstem
316 773 rmoveto
-614 -456 -11 -54 441 -441 -1 -3 rlineto
56 hlineto
184 949 rlineto
-225 -874 rmoveto
-393 392 1 8 548 405 rlineto
endchar
                </CharString>
                <CharString name="less_equal.liga">
                    -363 699 vstem
377 22 rmoveto
-33 -42 -620 283 127 callsubr
-126 -193 rmoveto
11 56 642 -297 -33 -42 rlineto
endchar
                </CharString>
                <CharString name="less_hyphen.liga">
                    264 52 hstem
-457 120 callsubr
-808 hlineto
324 230 105 callgsubr
806 hlineto
endchar
                </CharString>
                <CharString name="less_slash.liga">
                    418 -457 417 -245 665 hintmask 10000000
333 712 rmoveto
-479 -680 -251 254 2 8 355 252 106 callgsubr
277 -285 rlineto
hintmask 01000000
-105 -148 53 -14 612 867 rlineto
endchar
                </CharString>
                <CharString name="plus_plus.liga">
                    264 50 hstem
-3 439 vstem
248 314 rmoveto
126 callgsubr
-365 128 callsubr
38 193 rlineto
365 hlineto
-38 -193 rlineto
54 hlineto
38 193 rlineto
187 hlineto
129 callsubr
endchar
                </CharString>
                <CharString name="question_question.liga">
                    0 96 hstem
-74 67 353 67 vstem
-367 678 rmoveto
130 callsubr
420 hmoveto
130 callsubr
-449 -678 131 callsubr
400 -96 131 callsubr
endchar
                </CharString>
                <CharString name="slash_greater.liga">
                    -378 665 -220 417 hintmask 01000000
213 584 rmoveto
hintmask 10000000
74 105 132 callsubr
504 714 245 -247 -2 -8 rlineto
hintmask 01000000
-355 -252 119 callsubr
                </CharString>
                <CharString name="underscore_underscore.liga">
                    -100 50 hstem
-553 1125 vstem
562 -100 rmoveto
129 callsubr
-1115 127 callgsubr
endchar
                </CharString>
                <CharString name="LIG">
                    endchar
                </CharString>
                <CharString name="uniE0A0">
                    -59 53 160 104 264 54 53 53 hstemhm
6 53 0 105 0 53 106 53 0 105 0 53 hintmask 1111010101000000
428 576 rmoveto
-58 -47 -47 -60 hvcurveto
hintmask 1111010010000000
-38 22 -34 31 -18 vhcurveto
-15 vlineto
-53 -53 -53 -53 -44 -34 -9 -15 -28 vhcurveto
251 vlineto
hintmask 1111101101000000
31 17 22 34 40 vvcurveto
58 -47 48 -58 -60 -46 -48 -58 vhcurveto
hintmask 1111010101000000
-40 21 -34 32 -17 vhcurveto
-347 vlineto
hintmask 1111101010000000
-32 -17 -21 -34 -40 vvcurveto
-58 46 -48 60 58 47 48 58 29 -11 25 -17 19 vhcurveto
18 16 24 16 41 hhcurveto
106 105 105 106 hvcurveto
14 vlineto
hintmask 1111010101000000
32 19 21 34 38 vvcurveto
59 -46 47 -60 vhcurveto
hintmask 1111101101000000
-316 53 rmoveto
28 24 -24 -29 -30 -24 -24 -28 -30 -23 24 30 29 23 24 30 hvcurveto
316 -212 rmoveto
-28 -24 24 28 30 24 23 28 30 23 -23 -30 -28 -23 -24 -30 hvcurveto
-316 -423 rmoveto
-30 -23 23 30 29 23 24 30 28 24 -24 -29 -30 -24 -23 -28 hvcurveto
endchar
                </CharString>
                <CharString name="uniE0B0">
                    128 callgsubr
609 313 rmoveto
-627 581 -2 -1099 rlineto
endchar
                </CharString>
                <CharString name="uniE0B2">
                    128 callgsubr
-20 313 rmoveto
629 -518 -2 1099 rlineto
endchar
                </CharString>
            <CharString index="0">
                rmoveto
-102 callgsubr
-164 140 -84 254 131 vhcurveto
-119 391 -84 callsubr
            </CharString>
            <CharString index="1">
                rmoveto
48 -46 46 -143 25 vhcurveto
28 110 rlineto
185 hlineto
13 43 rlineto
-233 hlineto
-46 -185 rlineto
147 -21 46 -35 -37 vvcurveto
-43 -54 -44 -184 16 37 callgsubr
216 -17 77 72 68 vvcurveto
return
            </CharString>
            <CharString index="2">
                rmoveto
-128 68 -68 106 -31 callgsubr
128 -70 69 -104 -31 callsubr
vhcurveto
372 105 rmoveto
-137 -77 -113 -110 -80 -45 57 98 135 76 116 111 80 45 -59 -97 vhcurveto
endchar
            </CharString>
            <CharString index="3">
                -106 callgsubr
endchar
            </CharString>
            <CharString index="4">
                rmoveto
-14 33 2 callsubr
rlinecurve
-85 callsubr
-19 callsubr
-68 callsubr
return
            </CharString>
            <CharString index="5">
                -9 33 rlineto
-220 -85 -107 39 138 2 0 2 1 vvcurveto
231 17 133 70 113 vvcurveto
69 -51 43 -83 -166 -122 -172 -153 return
            </CharString>
            <CharString index="6">
                rmoveto
-99 callgsubr
360 hlineto
endchar
            </CharString>
            <CharString index="7">
                rmoveto
85 66 56 83 105 -128 42 -105 -83 hvcurveto
-58 callgsubr
-80 callgsubr
            </CharString>
            <CharString index="8">
                -302 hlineto
46 238 24 callgsubr
9 47 rlineto
-255 hlineto
44 229 rlineto
301 hlineto
10 53 rlineto
-362 -36 callgsubr
return
            </CharString>
            <CharString index="9">
                -98 callsubr
-16 -85 rlineto
46 hlineto
17 85 rlineto
return
            </CharString>
            <CharString index="10">
                rmoveto
-100 callsubr
return
            </CharString>
            <CharString index="11">
                70 hlineto
39 117 68 236 64 267 rrcurveto
-59 hlineto
-38 -165 -76 -298 -25 -81 rrcurveto
-4 hlineto
-27 362 rlineto
-41 hlineto
-166 -362 rlineto
-4 hlineto
6 81 40 298 25 165 rrcurveto
-60 hlineto
-39 -267 -25 -236 -5 -117 rrcurveto
70 hlineto
161 346 rlineto
endchar
            </CharString>
            <CharString index="12">
                rmoveto
-90 callgsubr
365 hlineto
12 49 rlineto
endchar
            </CharString>
            <CharString index="13">
                rmoveto
24 -12 68 67 29 71 -1 64 rlinecurve
-79 -3 12 -57 -2 -58 -51 -72 rlinecurve
endchar
            </CharString>
            <CharString index="14">
                rmoveto
-64 callgsubr
-65 callsubr
return
            </CharString>
            <CharString index="15">
                13 -50 -44 7 -40 hhcurveto
-168 -122 -168 -183 -103 44 -50 61 56 75 49 58 58 hvcurveto
return
            </CharString>
            <CharString index="16">
                213 -168 rmoveto
24 47 -24 67 135 vvcurveto
16 1 20 1 21 vhcurveto
49 102 44 126 29 vvcurveto
12 -23 11 -17 -6 -8 -9 -15 -9 vhcurveto
15 -36 -36 9 -36 hhcurveto
-161 -119 -154 -165 -101 49 -54 70 70 65 52 67 48 hvcurveto
-120 26 -78 -29 -28 vhcurveto
-20 -20 -79 -23 -206 18 rrcurveto
return
            </CharString>
            <CharString index="17">
                101 522 rlineto
150 13 callgsubr
-366 -21 callsubr
155 hlineto
-101 -522 rlineto
-151 -21 callsubr
return
            </CharString>
            <CharString index="18">
                -34 -143 -35 -127 -38 -134 rrcurveto
-4 hlineto
-44 285 rlineto
-40 hlineto
-152 -284 rlineto
-3 hlineto
14 131 14 128 20 144 rrcurveto
-60 hlineto
-24 -180 -14 -182 -4 -122 rrcurveto
59 hlineto
154 284 rlineto
endchar
            </CharString>
            <CharString index="19">
                -51 callgsubr
-91 callgsubr
return
            </CharString>
            <CharString index="20">
                -107 -207 -104 -209 -98 -207 rrcurveto
62 hlineto
32 67 32 67 33 68 rrcurveto
225 hlineto
return
            </CharString>
            <CharString index="21">
                10 44 rlineto
-214 hlineto
156 97 89 68 85 vvcurveto
81 -80 41 -161 -24 vhcurveto
-7 -45 90 callgsubr
20 51 -30 -53 vvcurveto
return
            </CharString>
            <CharString index="22">
                rmoveto
8 hlineto
12 -105 11 -107 10 -107 rrcurveto
-199 hlineto
52 107 53 106 53 106 rrcurveto
endchar
            </CharString>
            <CharString index="23">
                -86 callgsubr
-3 callsubr
1 -40 rlineto
return
            </CharString>
            <CharString index="24">
                -67 callgsubr
279 -412 -104 callgsubr
            </CharString>
            <CharString index="25">
                rmoveto
-99 50 -56 76 109 85 122 136 100 -49 55 -76 -110 -85 -122 -136 vhcurveto
271 98 rmoveto
-106 -56 -104 -81 -52 -32 40 77 106 55 104 81 53 32 -40 -77 vhcurveto
endchar
            </CharString>
            <CharString index="26">
                70 308 -60 -4 -70 -121 39 -23 -38 -166 rlineto
-126 -29 37 -58 72 hhcurveto
return
            </CharString>
            <CharString index="27">
                -95 62 -45 76 vhcurveto
8 40 rmoveto
-52 -46 30 78 7 0 7 1 8 hvcurveto
94 75 100 -34 -79 vvcurveto
-52 -37 -40 -60 vhcurveto
endchar
            </CharString>
            <CharString index="28">
                rmoveto
20 callgsubr
-209 143 -77 236 87 hvcurveto
6 57 rlineto
-72 callgsubr
endchar
            </CharString>
            <CharString index="29">
                -66 -34 70 337 121 hvcurveto
-58 -2 rlineto
-371 -138 56 -89 91 hhcurveto
71 80 57 66 56 hvcurveto
1 -128 11 -78 -26 -27 -21 -20 -72 -22 -200 18 rrcurveto
return
            </CharString>
            <CharString index="30">
                rmoveto
24 48 -12 82 124 vvcurveto
15 0 14 1 14 vhcurveto
47 96 38 138 31 vvcurveto
14 -24 8 -17 -26 -58 -164 -130 -11 vhcurveto
-71 -59 -72 -49 -49 hhcurveto
return
            </CharString>
            <CharString index="31">
                rmoveto
36 callgsubr
hintmask 10110000
-68 callgsubr
hintmask 10010000
-16 callgsubr
hintmask 01010000
-2 -56 rlineto
hintmask 10010000
265 -18 70 70 75 vvcurveto
endchar
            </CharString>
            <CharString index="32">
                -41 callgsubr
-53 callgsubr
return
            </CharString>
            <CharString index="33">
                -91 callsubr
hintmask 1010111111000000
-190 -677 -102 callsubr
hintmask 0101111111000000
-74 callsubr
hintmask 1010111111000000
-92 callgsubr
hintmask 0101111111000000
-37 callsubr
            </CharString>
            <CharString index="34">
                -3 -23 83 callsubr
-26 42 -33 -35 vvcurveto
-37 -46 -39 -191 19 vhcurveto
return
            </CharString>
            <CharString index="35">
                -208 -80 -116 51 182 vvcurveto
170 102 177 133 79 12 -61 -110 -3 vhcurveto
58 1 rlineto
146 7 -30 78 -111 hhcurveto
return
            </CharString>
            <CharString index="36">
                -62 callsubr
-10 callsubr
return
            </CharString>
            <CharString index="37">
                rmoveto
136 77 116 111 38 30 -13 -25 22 vhcurveto
-263 -297 rlineto
-10 22 -5 28 33 vvcurveto
126 -155 rmoveto
-37 -30 12 23 -21 hvcurveto
262 296 rlineto
9 -22 4 -27 -31 vvcurveto
-137 -77 -114 -110 vhcurveto
-11 -50 rmoveto
-31 callgsubr
hvcurveto
hintmask 10011100
48 -10 40 -18 31 vhcurveto
62 69 rlineto
hintmask 01101100
-36 27 -54 -60 rlineto
28 -30 -40 14 -48 hhcurveto
-31 callsubr
-50 10 -40 19 -31 hvcurveto
-62 -69 rlineto
hintmask 10101100
36 -27 55 61 rlineto
-27 29 40 -13 47 hhcurveto
endchar
            </CharString>
            <CharString index="38">
                rmoveto
-61 callsubr
hintmask 01111000
-13 -61 100 callgsubr
-39 callgsubr
endchar
            </CharString>
            <CharString index="39">
                89 76 -7 57 -46 hhcurveto
-42 -47 -62 -54 -11 1 -11 3 -11 hvcurveto
-37 -44 -52 -43 -91 -66 17 -28 rcurveline
77 49 58 45 44 41 rrcurveto
return
            </CharString>
            <CharString index="40">
                rmoveto
432 hlineto
9 41 rlineto
-432 hlineto
return
            </CharString>
            <CharString index="41">
                64 hlineto
hintmask 10010100
-15 callgsubr
hintmask 01001100
-16 callsubr
hintmask 01100100
101 531 rlineto
5 hlineto
return
            </CharString>
            <CharString index="42">
                rmoveto
-3 callgsubr
-68 -2 -31 -131 rlineto
return
            </CharString>
            <CharString index="43">
                199 147 -28 33 -162 -118 return
            </CharString>
            <CharString index="44">
                rmoveto
hintmask 00111000
-30 callsubr
hintmask 01011000
-49 callsubr
endchar
            </CharString>
            <CharString index="45">
                60 4 -40 callgsubr
rlinecurve
-87 hlineto
return
            </CharString>
            <CharString index="46">
                rmoveto
-8 35 -206 -58 -33 22 24 92 rlinecurve
92 352 -54 1 rlineto
return
            </CharString>
            <CharString index="47">
                -104 callsubr
hintmask 11010110
1 callgsubr
hintmask 10111110
-43 callgsubr
hintmask 10110110
23 callgsubr
hintmask 10111110
-86 callsubr
            </CharString>
            <CharString index="48">
                39 204 88 callgsubr
-12 callsubr
hintmask 10110000
-27 callsubr
            </CharString>
            <CharString index="49">
                20 64 60 69 148 37 -12 42 rcurveline
-203 -56 -69 -116 -103 vvcurveto
return
            </CharString>
            <CharString index="50">
                48 16 -110 68 hhcurveto
-46 callgsubr
return
            </CharString>
            <CharString index="51">
                -81 callsubr
-103 2 callgsubr
return
            </CharString>
            <CharString index="52">
                40 241 rmoveto
52 37 39 61 51 47 -29 -78 -7 0 -7 -1 -8 vhcurveto
-94 -75 -101 34 79 vvcurveto
endchar
            </CharString>
            <CharString index="53">
                53 vstem
443 425 rmoveto
-84 callgsubr
return
            </CharString>
            <CharString index="54">
                -81 -72 -54 -41 -50 hhcurveto
-47 -24 37 97 23 hvcurveto
return
            </CharString>
            <CharString index="55">
                -22 callgsubr
hintmask 10100100
-29 callsubr
hintmask 01010100
-63 callsubr
hintmask 10100100
-33 callsubr
hintmask 10101000
15 callgsubr
            </CharString>
            <CharString index="56">
                rmoveto
-48 -37 36 75 127 83 130 113 31 37 -10 -20 41 hvcurveto
-23 -58 -23 -80 -10 -71 rrcurveto
-83 -49 -60 -46 -55 hhcurveto
return
            </CharString>
            <CharString index="57">
                -22 callgsubr
hintmask 10101010
-29 callsubr
hintmask 01011010
-63 callsubr
hintmask 10101010
-33 callsubr
hintmask 10101100
3 callsubr
return
            </CharString>
            <CharString index="58">
                -61 callgsubr
hintmask 11010000
-43 callsubr
rlineto
hintmask 10110000
-29 callgsubr
            </CharString>
            <CharString index="59">
                72 callsubr
-44 callsubr
-57 callgsubr
return
            </CharString>
            <CharString index="60">
                9 54 -337 -1 435 515 9 52 rlineto
-396 hlineto
-11 -54 328 1 -435 -515 -9 -52 rlineto
endchar
            </CharString>
            <CharString index="61">
                49 46 50 86 50 hvcurveto
-32 19 rlineto
-61 -37 -33 -47 -30 hhcurveto
return
            </CharString>
            <CharString index="62">
                rmoveto
hintmask 00111110
-62 callgsubr
hintmask 01011110
-87 callgsubr
hintmask 10011110
-18 callgsubr
hintmask 00111110
-87 callsubr
            </CharString>
            <CharString index="63">
                -67 callgsubr
139 -544 -100 callgsubr
            </CharString>
            <CharString index="64">
                -101 -60 -22 -35 -38 vvcurveto
-52 52 -36 77 vhcurveto
return
            </CharString>
            <CharString index="65">
                rmoveto
40 131 -69 -1 -31 -131 rlineto
return
            </CharString>
            <CharString index="66">
                71 361 rlineto
-57 hlineto
-62 -317 rlineto
return
            </CharString>
            <CharString index="67">
                -19 208 -23 206 -25 207 return
            </CharString>
            <CharString index="68">
                308 -67 118 92 100 -38 callgsubr
return
            </CharString>
            <CharString index="69">
                138 -262 59 123 vvcurveto
63 54 55 76 73 41 -38 -88 13 vhcurveto
return
            </CharString>
            <CharString index="70">
                rmoveto
-35 callgsubr
return
            </CharString>
            <CharString index="71">
                hlineto
-120 -620 rlineto
return
            </CharString>
            <CharString index="72">
                -9 32 -96 -43 -5 21 15 79 rlinecurve
return
            </CharString>
            <CharString index="73">
                79 405 74 callgsubr
-80 -410 return
            </CharString>
            <CharString index="74">
                -28 callgsubr
9 callgsubr
hintmask 01011100
return
            </CharString>
            <CharString index="75">
                rmoveto
6 -74 -1 -67 -61 -93 26 -13 rcurveline
78 89 23 83 2 79 rrcurveto
return
            </CharString>
            <CharString index="76">
                143 115 136 174 return
            </CharString>
            <CharString index="77">
                -15 callsubr
hstemhm
75 60 242 51 hintmask 10101110
return
            </CharString>
            <CharString index="78">
                -36 -136 84 -40 235 94 rrcurveto
endchar
            </CharString>
            <CharString index="79">
                -11 56 -53 52 440 -20 23 -20 return
            </CharString>
            <CharString index="80">
                -73 callgsubr
-6 -46 rlineto
return
            </CharString>
            <CharString index="81">
                rmoveto
-43 -33 39 80 144 86 136 109 26 38 -6 -11 39 hvcurveto
-56 -288 rlineto
-51 -49 -69 -43 -48 hhcurveto
return
            </CharString>
            <CharString index="82">
                108 2 -39 48 -88 hhcurveto
-153 -134 -154 -167 return
            </CharString>
            <CharString index="83">
                712 -89 callsubr
return
            </CharString>
            <CharString index="84">
                60 69 176 99 vvcurveto
50 -23 40 -60 -62 -75 return
            </CharString>
            <CharString index="85">
                rmoveto
-11 33 rlineto
-77 -35 -15 8 31 vvcurveto
return
            </CharString>
            <CharString index="86">
                0 53 238 47 229 53 return
            </CharString>
            <CharString index="87">
                rmoveto
-9 33 -216 -82 -35 43 27 118 rlinecurve
62 273 rlineto
195 hlineto
9 47 rlineto
-194 hlineto
return
            </CharString>
            <CharString index="88">
                rmoveto
269 178 109 153 166 vvcurveto
124 -62 133 -151 161 vhcurveto
-47 -35 rlineto
143 -147 60 -122 -114 vvcurveto
-151 -92 -139 -261 -164 vhcurveto
endchar
            </CharString>
            <CharString index="89">
                7 -69 6 -68 6 -67 rrcurveto
return
            </CharString>
            <CharString index="90">
                5 -31 -28 3 -25 hhcurveto
-166 -119 -164 -179 -107 47 -55 62 56 73 45 56 56 hvcurveto
return
            </CharString>
            <CharString index="91">
                39 -84 87 -73 -61 vvcurveto
-50 -45 -38 -229 22 vhcurveto
return
            </CharString>
            <CharString index="92">
                41 callgsubr
-57 hlineto
-99 -518 rlineto
-5 hlineto
return
            </CharString>
            <CharString index="93">
                hintmask 10011000
408 -5 rmoveto
hintmask 00111000
66 9 -197 308 301 308 rlineto
-69 hlineto
-302 -308 rlineto
-28 308 rmoveto
hintmask 01011000
79 callgsubr
61 hlineto
121 620 rlineto
return
            </CharString>
            <CharString index="94">
                rmoveto
-84 callgsubr
endchar
            </CharString>
            <CharString index="95">
                vstem
444 hmoveto
-38 callsubr
return
            </CharString>
            <CharString index="96">
                21 callsubr
3 callgsubr
return
            </CharString>
            <CharString index="97">
                69 33 32 40 37 hhcurveto
38 26 -40 -98 -7 hvcurveto
return
            </CharString>
            <CharString index="98">
                84.5 131 return
            </CharString>
            <CharString index="99">
                rmoveto
-7 33 -159 -56 -33 37 176 433 rlinecurve
-28 19 return
            </CharString>
            <CharString index="100">
                -35 callsubr
9 callsubr
return
            </CharString>
            <CharString index="101">
                -107 callsubr
70 return
            </CharString>
            <CharString index="102">
                -54 callsubr
hstemhm
2 return
            </CharString>
            <CharString index="103">
                -220 41 201 -21 22 -21 147 43 return
            </CharString>
            <CharString index="104">
                39 131 return
            </CharString>
            <CharString index="105">
                -10 54 386 55 0 -20 return
            </CharString>
            <CharString index="106">
                0 53.5 513 53.5 return
            </CharString>
            <CharString index="107">
                -21 callgsubr
hstem
65 return
            </CharString>
            <CharString index="108">
                -35 30 -32 35 -30 vhcurveto
return
            </CharString>
            <CharString index="109">
                -141 -67 callgsubr
return
            </CharString>
            <CharString index="110">
                hstem
22 callgsubr
vstem
return
            </CharString>
            <CharString index="111">
                hstem
22 callsubr
vstem
return
            </CharString>
            <CharString index="112">
                rmoveto
50 32 -135 219 222 220 -39 38 -216 -222 -15 -63 rlineto
364 -224 rmoveto
50 31 -133 221 return
            </CharString>
            <CharString index="113">
                68 10 -191 195 rlineto
154 76 61 75 65 vvcurveto
47 -32 32 -57 -64 -84 -42 -83 -81 vhcurveto
65 333 -60 -5 rlineto
return
            </CharString>
            <CharString index="114">
                61 callsubr
-42 callsubr
return
            </CharString>
            <CharString index="115">
                31 callsubr
hstem
76 63 vstem
return
            </CharString>
            <CharString index="116">
                hstemhm
81 60 215 60 return
            </CharString>
            <CharString index="117">
                33 callgsubr
hstem
return
            </CharString>
            <CharString index="118">
                8 callsubr
99 41 return
            </CharString>
            <CharString index="119">
                -7 54 -31 31 532 52 hstemhm
131 62 return
            </CharString>
            <CharString index="120">
                hlineto
10 49 rlineto
return
            </CharString>
            <CharString index="121">
                -54 callsubr
59 -3 callgsubr
39 hstemhm
255 46 169 46 hintmask 0011111110000000
return
            </CharString>
            <CharString index="122">
                3 callsubr
endchar
            </CharString>
            <CharString index="123">
                rmoveto
305 13 callgsubr
-248 hlineto
150 772 rlineto
248 13 callgsubr
-306 hlineto
endchar
            </CharString>
            <CharString index="124">
                50 callgsubr
-129 132 hstemhm
return
            </CharString>
            <CharString index="125">
                -176 -414 72 -69 205 90 rrcurveto
return
            </CharString>
            <CharString index="126">
                317 -42 151 195 229 vvcurveto
return
            </CharString>
            <CharString index="127">
                -173 -135 -200 -212 return
            </CharString>
            <CharString index="128">
                -48 -16 110 -68 hhcurveto
return
            </CharString>
            <CharString index="129">
                59 60 312 60 return
            </CharString>
            <CharString index="130">
                86 63 47 57 hvcurveto
return
            </CharString>
            <CharString index="131">
                rlineto
255 hlineto
return
            </CharString>
            <CharString index="132">
                rmoveto
283 223 17 63 -195 230 -44 -41 185 -216 -281 -214 rlineto
endchar
            </CharString>
            <CharString index="133">
                -9 40 callgsubr
23 59 hintmask 10010000
return
            </CharString>
            <CharString index="134">
                323 -11 rmoveto
-8 31 -7 callsubr
82 rlinecurve
return
            </CharString>
            <CharString index="135">
                235 -15 104 36 29 58 rrcurveto
endchar
            </CharString>
            <CharString index="136">
                hhcurveto
65 12 -69 -99 -89 hvcurveto
25 -16 rlineto
133 135 -24 112 -104 hhcurveto
hintmask 10111110
-132 return
            </CharString>
            <CharString index="137">
                27 callgsubr
114 577 -61 -5 -41 -211 rlineto
return
            </CharString>
            <CharString index="138">
                rlineto
152 18 83 -62 -153 vvcurveto
return
            </CharString>
            <CharString index="139">
                -120 -619 rlineto
return
            </CharString>
            <CharString index="140">
                43 255 112 return
            </CharString>
            <CharString index="141">
                rmoveto
44 41 -185 215 281 215 -34 45 -284 -223 -16 -63 rlineto
endchar
            </CharString>
            <CharString index="142">
                -11 53 394 47 -47 188 hstemhm
155 59 return
            </CharString>
            <CharString index="143">
                83 -113 94 -26 85 vhcurveto
return
            </CharString>
            <CharString index="144">
                vhcurveto
37 callsubr
return
            </CharString>
            <CharString index="145">
                rmoveto
38 callsubr
            </CharString>
            <CharString index="146">
                0 -9 -7 -7 -9 -9 -7 6 41 callsubr
return
            </CharString>
            <CharString index="147">
                89 callgsubr
252 123 return
            </CharString>
            <CharString index="148">
                120 620 rlineto
return
            </CharString>
            <CharString index="149">
                34 -11 rcurveline
hintmask 10011110
-10 callgsubr
endchar
            </CharString>
            <CharString index="150">
                rmoveto
-24 12 rlineto
-68 -66 -29 -72 -64 vvcurveto
80 3 -12 57 2 58 51 72 rlinecurve
return
            </CharString>
            <CharString index="151">
                32 callsubr
hstem
42 483 vstem
return
            </CharString>
            <CharString index="152">
                -11 50 -23 -21 451 50 -9 -20 hstemhm
59 59 313 60 hintmask 10101100
return
            </CharString>
            <CharString index="153">
                -9 29 78 callgsubr
19 34 vvcurveto
37 55 43 133 48 vhcurveto
return
            </CharString>
            <CharString index="154">
                hintmask 000000000000000100000010000000000000000000000000
return
            </CharString>
            <CharString index="155">
                -8 48 349 48 56 -20 return
            </CharString>
            <CharString index="156">
                -58 74 -38 141 74 vhcurveto
return
            </CharString>
            <CharString index="157">
                131.5 return
            </CharString>
            <CharString index="158">
                -214 45 177 -21 155 43 return
            </CharString>
            <CharString index="159">
                79 callsubr
hstem
132 59 return
            </CharString>
            <CharString index="160">
                43 20 callsubr
return
            </CharString>
            <CharString index="161">
                7 callsubr
61 callgsubr
return
            </CharString>
            <CharString index="162">
                47.5 -33.5 34 328 61 hstemhm
return
            </CharString>
            <CharString index="163">
                48 callgsubr
hstem
102 callsubr
53 59 vstem
return
            </CharString>
            <CharString index="164">
                -118 -18 -67 -85 -86 rlinecurve
endchar
            </CharString>
            <CharString index="165">
                518 382 18 callsubr
return
            </CharString>
            <CharString index="166">
                356 571 rmoveto
38 131 -68 -3 -30 -132 rlineto
return
            </CharString>
            <CharString index="167">
                -166 rmoveto
-9 29 rlineto
-107 -43 return
            </CharString>
            <CharString index="168">
                hstemhm
347 62 7 62 return
            </CharString>
            <CharString index="169">
                43 327 43 hstem
return
            </CharString>
            <CharString index="170">
                0 53 567 -20 return
            </CharString>
            <CharString index="171">
                95 callsubr
61 return
            </CharString>
            <CharString index="172">
                28 callsubr
26 -21 435 55 208 -20 hstemhm
return
            </CharString>
            <CharString index="173">
                10 hlineto
0 6 -1 3 -4 -3 -2 -2 41 callsubr
return
            </CharString>
            <CharString index="174">
                -20 21 -20 return
            </CharString>
            <CharString index="175">
                52 callgsubr
282 57 return
            </CharString>
            <CharString index="176">
                -6 2 -3 5 4 2 2 4 1 vhcurveto
5 hlineto
return
            </CharString>
            <CharString index="177">
                0 52 141 47 51 46 231 52 hstem
-14 return
            </CharString>
            <CharString index="178">
                hintmask 100000000000000000000000000000001000000000000000
return
            </CharString>
            <CharString index="179">
                hstem
69 61 315 57 vstem
return
            </CharString>
            <CharString index="180">
                hstem
77 59 298 55 vstem
return
            </CharString>
            <CharString index="181">
                rlineto
-61 hlineto
return
            </CharString>
            <CharString index="182">
                156 51 172 51 hstem
63 445 vstem
return
            </CharString>
            <CharString index="183">
                rmoveto
53 38 45 97 56 hvcurveto
-34 19 rlineto
-62 return
            </CharString>
            <CharString index="184">
                -155 -21 166 50 -20 -21 441 56 return
            </CharString>
            <CharString index="185">
                rlineto
-108 -43 -42 return
            </CharString>
            <CharString index="186">
                -121 -620 rlineto
return
            </CharString>
            <CharString index="187">
                35 171 41 hstem
return
            </CharString>
            <CharString index="188">
                49 772 49 hstem
return
            </CharString>
            <CharString index="189">
                64 callsubr
vstem
return
            </CharString>
            <CharString index="190">
                rlineto
-254 return
            </CharString>
            <CharString index="191">
                -117 -145 -124 -143 -215 return
            </CharString>
            <CharString index="192">
                24 -15 105 86 43 80 4 123 rlinecurve
return
            </CharString>
            <CharString index="193">
                -24 15 -105 -86 -43 -80 -5 -123 rlinecurve
return
            </CharString>
            <CharString index="194">
                -42 -47 -98 -56 hvcurveto
33 -19 rlineto
64 40 return
            </CharString>
            <CharString index="195">
                rlineto
hintmask 11010000
return
            </CharString>
            <CharString index="196">
                53 -50 50 hstemhm
return
            </CharString>
            <CharString index="197">
                rlineto
144 return
            </CharString>
            <CharString index="198">
                60 33 55 -26 57 -18 56 hintmask 11100000
return
            </CharString>
            <CharString index="199">
                -68 76 -101 -158 -120 -198 return
            </CharString>
            <CharString index="200">
                -4 17 101 callsubr
-85 -87 rlinecurve
return
            </CharString>
            <CharString index="201">
                vvcurveto
-66 -36 -63 -89 -86 vhcurveto
-2 vlineto
return
            </CharString>
            <CharString index="202">
                hlineto
-20 -100 rlineto
endchar
            </CharString>
            <CharString index="203">
                vhcurveto
hintmask 01110000
-7 -58 rlineto
hintmask 10110000
return
            </CharString>
            <CharString index="204">
                -62 32 -34 46 67 52 80 96 return
            </CharString>
            <CharString index="205">
                29 rlineto
-107 -43 -43 103 callsubr
return
            </CharString>
            <CharString index="206">
                hstem
33 482 vstem
return
            </CharString>
            <CharString index="207">
                rlineto
hintmask 10111000
return
            </CharString>
            <CharString index="208">
                hstem
303 49 return
            </CharString>
            <CharString index="209">
                hlineto
-10 -50 rlineto
return
            </CharString>
            <CharString index="210">
                -11 52 538 return
            </CharString>
            <CharString index="211">
                581 rmoveto
return
            </CharString>
            <CharString index="212" fingerprint="e6467a83">
                106 callsubr
-237 240 rlineto
return
            </CharString>
            <CharString index="213" fingerprint="46d990e9">
                -27 45 -381 -270 -9 -52 return
            </CharString>
            <CharString index="214" fingerprint="17e5c391">
                108 callgsubr
hstemhm
return
            </CharString>
            <CharString index="215" fingerprint="a926ac67">
                156 52 171 52 return
            </CharString>
            <CharString index="216" fingerprint="9e664772">
                206 591 rmoveto
-41 -40 return
            </CharString>
            <CharString index="217" fingerprint="50f87708">
                hlineto
-10 -52 rlineto
return
            </CharString>
            <CharString index="218" fingerprint="2f89f84b">
                115 callsubr
rlineto
return
            </CharString>
            <CharString index="219" fingerprint="ba93ac95">
                355 252 -27 45 -226 -160 rlineto
return
            </CharString>
            <CharString index="220" fingerprint="a556ddda">
                hlineto
168 -173 41 41 -259 262 rlineto
return
            </CharString>
            <CharString index="221" fingerprint="4a0409a4">
                hlineto
-156 160 115 callgsubr
rlineto
return
            </CharString>
            <CharString index="222" fingerprint="5a2c4896">
                -41 -40 259 -262 -2 -8 return
            </CharString>
            <CharString index="223" fingerprint="9521edfd">
                114 callsubr
-62 -25 rmoveto
-103 -73 rlineto
return
            </CharString>
            <CharString index="224" fingerprint="eadcabe1">
                -393 417 hintmask 11000000
109 callgsubr
232 -235 rlineto
return
            </CharString>
            <CharString index="225" fingerprint="c18f7f36">
                162 115 106 callsubr
119 callgsubr
rlineto
return
            </CharString>
            <CharString index="226" fingerprint="13fcb190">
                -130 132 return
            </CharString>
            <CharString index="227" fingerprint="553b793e">
                -77 78 2 8 120 85 rlineto
return
            </CharString>
            <CharString index="228" fingerprint="4c9e2c1e">
                -52 19 rcurveline
-32 -63 -33 -54 -34 -45 -42 69 -24 70 -5 76 rrcurveto
57 60 35 65 50 vvcurveto
29 -17 15 -24 -44 -56 -103 -100 -3 vhcurveto
return
            </CharString>
            <CharString index="229" fingerprint="761b8378">
                121 callgsubr
-124 -111 -94 -113 -108 vvcurveto
-72 40 -43 70 63 78 45 84 79 vhcurveto
return
            </CharString>
            <CharString index="230" fingerprint="b95482c8">
                rmoveto
-56 -2 -171 -881 rlineto
55 hlineto
return
            </CharString>
</ttFont>
